<?xml version="1.0" encoding="iso-8859-1"?>
<svg version="1.1" xmlns="http://www.w3.org/2000/svg" xmlns:xlink="http://www.w3.org/1999/xlink" x="0px" y="0px"
	 viewBox="0 0 226.816 226.816" style="enable-background:new 0 0 226.816 226.816;" xml:space="preserve">
<path fill="white" d="M219.315,158.861h-45.453V63.561l29.576-29.575c2.929-2.93,2.929-7.678,0-10.607c-2.929-2.928-7.678-2.928-10.607,0
	l-29.577,29.577H67.954V7.5c0-4.143-3.358-7.5-7.5-7.5s-7.5,3.357-7.5,7.5v45.455H7.501c-4.142,0-7.5,3.357-7.5,7.5
	s3.358,7.5,7.5,7.5h45.453v95.301l-29.575,29.575c-2.929,2.93-2.929,7.678,0,10.607c1.464,1.464,3.384,2.196,5.303,2.196
	s3.839-0.732,5.303-2.196l29.577-29.577h95.3v45.455c0,4.143,3.358,7.5,7.5,7.5c4.142,0,7.5-3.357,7.5-7.5v-45.455h45.453
	c4.142,0,7.5-3.357,7.5-7.5C226.815,162.219,223.458,158.861,219.315,158.861z M67.954,67.955h80.301l-80.301,80.301V67.955z
	 M158.862,78.562v80.3h-80.3L158.862,78.562z"/>
</svg>
