<svg height="512" viewBox="0 0 64 64" width="512" xmlns="http://www.w3.org/2000/svg"><path d="m56.42053 30.86328c-2.68066 0-4.88367 1.99756-5.25226 4.57813h-14.63635c-.36127-4.23279-3.74091-7.61243-7.97369-7.97369v-14.63636c2.58057-.36859 4.57813-2.57159 4.57813-5.25226 0-2.9375-2.39063-5.32813-5.32813-5.32813s-5.32813 2.39063-5.32813 5.32813c0 2.68066 1.99756 4.88367 4.57813 5.25226v14.63635c-1.85278.15814-3.54175.89221-4.88678 2.02637l-10.35046-10.35138c1.12659-1.62927.97266-3.88287-.47662-5.33215-1.63184-1.63184-4.28711-1.63086-5.91699 0-1.63086 1.63086-1.63086 4.28516 0 5.91602.81543.81543 1.88672 1.22363 2.95898 1.22363.83276 0 1.66162-.25403 2.37415-.74689l10.35052 10.35138c-1.28528 1.52502-2.06354 3.49078-2.06354 5.63672 0 2.14606.77832 4.11163 2.06372 5.63647l-10.35095 10.35095c-2.08588-1.56335-5.05457-1.41821-6.95105.47644-2.07715 2.07715-2.07715 5.45801 0 7.53516 1.03906 1.03906 2.40332 1.55859 3.76758 1.55859s2.72852-.51953 3.76758-1.55859c1.89465-1.89551 2.03986-4.86572.4765-6.95111l10.35089-10.35089c1.52484 1.2854 3.49042 2.06372 5.63647 2.06372 2.14594 0 4.11169-.77826 5.63672-2.06354l10.35132 10.35046c-1.12738 1.62939-.97339 3.88385.47681 5.33319.81543.81543 1.88672 1.22363 2.95801 1.22363s2.14258-.4082 2.95801-1.22363c1.63184-1.63086 1.63184-4.28613 0-5.91699-1.44928-1.44928-3.70288-1.60321-5.33215-.47662l-10.35138-10.35046c1.13416-1.34503 1.86823-3.034 2.02637-4.88678h14.63635c.36859 2.58057 2.57159 4.57813 5.25226 4.57813 2.9375 0 5.32813-2.39063 5.32813-5.32813s-2.39063-5.32813-5.32813-5.32813z"/></svg>