<svg xmlns="http://www.w3.org/2000/svg" version="1.1" xmlns:xlink="http://www.w3.org/1999/xlink" viewBox="0 0 24 24" style="enable-background:new 0 0 512 512" xml:space="preserve" class=""><g><rect width="19.5" height="13.5" x="2.25" y="5.25" fill="#000000" rx="1.75" opacity="1" data-original="#00a0ed" class=""></rect><g fill="#c6ebbe"><path d="M9 15.75H6a.75.75 0 0 1 0-1.5h3a.75.75 0 0 1 0 1.5zM18 15.75h-6a.75.75 0 0 1 0-1.5h6a.75.75 0 0 1 0 1.5zM18 12.75h-3a.75.75 0 0 1 0-1.5h3a.75.75 0 0 1 0 1.5zM12 12.75H6a.75.75 0 0 1 0-1.5h6a.75.75 0 0 1 0 1.5z" fill="#ffffff" opacity="1" data-original="#c6ebbe" class=""></path></g></g></svg>