<?xml version="1.0" encoding="iso-8859-1"?>
<!-- Generator: Adobe Illustrator 16.0.0, SVG Export Plug-In . SVG Version: 6.00 Build 0)  -->
<!DOCTYPE svg PUBLIC "-//W3C//DTD SVG 1.1//EN" "http://www.w3.org/Graphics/SVG/1.1/DTD/svg11.dtd">
<svg version="1.1" id="Capa_1" xmlns="http://www.w3.org/2000/svg" xmlns:xlink="http://www.w3.org/1999/xlink" x="0px" y="0px"
	 width="468.062px" height="468.062px" viewBox="0 0 468.062 468.062" style="enable-background:new 0 0 468.062 468.062;"
	 xml:space="preserve">
<g>
	<path d="M431.379,0.225h-394.7C16.458,0.225,0,16.668,0,36.897v394.269c0,20.215,16.458,36.671,36.679,36.671h394.7
		c20.228,0,36.683-16.456,36.683-36.671V36.897C468.062,16.668,451.606,0.225,431.379,0.225z M406.519,41.969
		c8.689,0,15.723,7.04,15.723,15.726c0,8.677-7.033,15.716-15.723,15.716c-8.688,0-15.723-7.039-15.723-15.716
		C390.796,49.009,397.83,41.969,406.519,41.969z M350.189,41.969c8.688,0,15.723,7.04,15.723,15.726
		c0,8.677-7.034,15.716-15.723,15.716c-8.684,0-15.711-7.039-15.711-15.716C334.479,49.009,341.506,41.969,350.189,41.969z
		 M426.148,425.924H41.913V112.429h384.229v313.495H426.148z M280.832,171.991l-93.605,0.006l46.804-46.805L280.832,171.991z
		 M234.024,412.725l-46.798-46.795l93.605-0.006L234.024,412.725z"/>
</g>
<g>
</g>
<g>
</g>
<g>
</g>
<g>
</g>
<g>
</g>
<g>
</g>
<g>
</g>
<g>
</g>
<g>
</g>
<g>
</g>
<g>
</g>
<g>
</g>
<g>
</g>
<g>
</g>
<g>
</g>
</svg>
