<svg xmlns="http://www.w3.org/2000/svg" fill="#FFFFFF" viewBox="0 0 1174 1174"><path d="M698 245c0-7 8-12 14-9l169 77c4 2 6 6 6 9v395c0 6 4 10 10 10h248c6 0 11 6 9 12-25.3 94.2-73.6 180.7-140.7 251.5-67.1 70.9-150.8 123.9-243.5 154.2-92.7 30.4-191.5 37.2-287.5 19.8-96-17.4-186.2-58.5-262.3-119.5-3-3-4-8-2-12l34-58c3-5 10-7 15-3 51.5 43.1 111.1 75.4 175.4 94.9 64.2 19.6 131.7 25.9 198.5 18.7 66.7-7.2 131.4-27.8 190-60.5 58.6-32.8 110-77 151.1-130.1 5-7 1-16-8-16h-93c-4 0-7-2-9-5L699 574l-1-5z"></path><path d="M422 240c4-7 14-7 18 0l360 624c4 7-1 15-8 15H628c-4 0-7-2-9-5l-43-75c-2-3-5-5-9-5H373c-7 0-12-8-8-15l65-113c1-3 5-5 8-5h41c7 0 12-8 8-15l-47-83c-4-7-14-7-18 0L211 929v1l-23 39-1 1-10 19c-4 6-12 7-16 2-36-38-67-82-92-128-2-3-2-7 0-10l10-19 2-2v-1z"></path><path d="M587 0c83.2.1 165.5 17.8 241.3 52.1 75.8 34.3 143.5 84.2 198.5 146.7 55.1 62.4 96.2 135.8 120.7 215.3s31.8 163.3 21.5 245.9c0 5-4 9-9 9h-67c-6 0-11-6-10-12 20.8-146.3-24-294.3-122.5-404.5C862.1 142.4 720 81.3 572.3 85.6 424.6 90 286.3 159.3 194.5 275 102.7 390.8 66.6 541.2 96 686l-1 7-47 81c-5 7-15 6-18-2C.5 683.8-7.6 589.8 6.4 497.8c14-91.9 49.6-179.2 104.1-254.7 54.4-75.4 126-136.8 208.9-179.1C402.2 21.7 494-.2 587 0z"></path></svg>
