<?xml version="1.0" encoding="iso-8859-1"?>
<!-- Generator: Adobe Illustrator 19.0.0, SVG Export Plug-In . SVG Version: 6.00 Build 0)  -->
<svg version="1.1" id="Layer_1" xmlns="http://www.w3.org/2000/svg" xmlns:xlink="http://www.w3.org/1999/xlink" x="0px" y="0px"
	 viewBox="0 0 512 512" style="enable-background:new 0 0 512 512;" xml:space="preserve">
<path style="fill:#2C9FD9;" d="M495.304,278.262H294.957c-9.18,0-16.696,7.477-16.696,16.696v200.348
	c0,9.214,7.482,16.693,16.696,16.693h200.348c9.214,0,16.696-7.48,16.696-16.693V294.958
	C512,285.739,504.485,278.262,495.304,278.262z"/>
<path style="fill:#32BBFF;" d="M217.043,278.262H16.696C7.515,278.262,0,285.739,0,294.958v200.348
	c0,9.214,7.482,16.693,16.696,16.693h200.348c9.214,0,16.696-7.48,16.696-16.693V294.958
	C233.739,285.739,226.224,278.262,217.043,278.262z"/>
<path style="fill:#2C9FD9;" d="M16.696,511.999h200.348c9.214,0,16.696-7.482,16.696-16.693V294.958c0-4.606-1.877-8.776-4.9-11.796
	L4.895,507.106C7.918,510.128,12.09,511.999,16.696,511.999z"/>
<path style="fill:#2EE6E6;" d="M217.043,0.001H16.696C7.515,0.001,0,7.479,0,16.697v200.348c0,9.214,7.482,16.693,16.696,16.693
	h200.348c9.214,0,16.696-7.48,16.696-16.693V16.697C233.739,7.479,226.224,0.001,217.043,0.001z"/>
<path style="fill:#32BBFF;" d="M495.304,0.001H294.957c-9.18,0-16.696,7.477-16.696,16.696v200.348
	c0,9.214,7.482,16.693,16.696,16.693h200.348c9.214,0,16.696-7.48,16.696-16.693V16.697C512,7.479,504.485,0.001,495.304,0.001z"/>
<path style="fill:#2C9FD9;" d="M294.957,233.738h200.348c9.214,0,16.696-7.482,16.696-16.693V16.697c0-4.606-1.877-8.776-4.9-11.796
	L283.156,228.845C286.179,231.867,290.351,233.738,294.957,233.738z"/>
<g>
</g>
<g>
</g>
<g>
</g>
<g>
</g>
<g>
</g>
<g>
</g>
<g>
</g>
<g>
</g>
<g>
</g>
<g>
</g>
<g>
</g>
<g>
</g>
<g>
</g>
<g>
</g>
<g>
</g>
</svg>
