<?xml version="1.0" encoding="iso-8859-1"?>
<!-- Generator: Adobe Illustrator 19.0.0, SVG Export Plug-In . SVG Version: 6.00 Build 0)  -->
<svg version="1.1" id="Capa_1" xmlns="http://www.w3.org/2000/svg" xmlns:xlink="http://www.w3.org/1999/xlink" x="0px" y="0px"
	 viewBox="0 0 512.001 512.001" style="enable-background:new 0 0 512.001 512.001;" xml:space="preserve">
<path style="fill:#73E7E6;" d="M209.226,491.191L84.564,511.356c-27.059,4.377-52.543-14.011-56.92-41.07L7.479,345.624
	c-4.377-27.059,14.011-52.543,41.07-56.92l124.661-20.165c27.059-4.377,52.543,14.011,56.92,41.07l20.165,124.661
	C254.673,461.33,236.285,486.814,209.226,491.191z"/>
<path style="fill:#65D1CB;" d="M250.296,434.271L230.131,309.61c-4.377-27.059-29.861-45.447-56.92-41.07l-46.577,7.534
	c24.914-0.899,47.182,16.863,51.266,42.11l20.379,125.99c3.647,22.543-8.348,43.993-27.991,53.315l38.937-6.298
	C236.285,486.814,254.673,461.33,250.296,434.271z"/>
<path style="fill:#F26666;" d="M270.843,253.798l-121.271-35.22c-26.323-7.645-41.465-35.182-33.82-61.505l35.22-121.271
	c7.645-26.323,35.182-41.465,61.505-33.82l121.271,35.22c26.323,7.645,41.465,35.182,33.82,61.505l-35.22,121.271
	C324.703,246.301,297.166,261.443,270.843,253.798z"/>
<path style="fill:#DD5B5B;" d="M333.747,37.202L289.562,24.37c22.235,10.053,34.28,35.173,27.277,59.287L281.47,205.438
	c-7.062,24.317-31.029,39.116-55.4,35.357l44.773,13.003c26.323,7.645,53.86-7.497,61.505-33.82l35.22-121.271
	C375.213,72.384,360.071,44.847,333.747,37.202z"/>
<path style="fill:#FF9F40;" d="M455.533,498.384H329.251c-27.411,0-49.632-22.221-49.632-49.632V322.47
	c0-27.411,22.221-49.632,49.632-49.632h126.282c27.411,0,49.632,22.221,49.632,49.632v126.282
	C505.165,476.163,482.944,498.384,455.533,498.384z"/>
<path style="fill:#F49138;" d="M455.533,272.838h-40.439c22.129,5.253,38.595,25.129,38.595,48.865v127.816
	c0,23.735-16.466,43.612-38.595,48.865h40.439c27.411,0,49.632-22.221,49.632-49.632V322.47
	C505.165,295.059,482.944,272.838,455.533,272.838z"/>
<g>
	<path style="fill:#FFFFFF;" d="M195.762,155.482c0.089-0.251,0.394-0.709,0.697-1.167l52.283-70.406
		c2.468-3.367,7.739-3.476,12.387-1.826c4.773,1.694,8.797,5.102,8.59,9.271l-3.798,87.614c-0.053,0.547-0.061,0.968-0.195,1.345
		c-1.382,3.894-8.311,4.688-12.707,3.127c-2.764-0.981-4.587-2.618-4.368-5.227l1.156-18.4l-28.765-10.209l-10.702,15.012
		c-1.475,2.164-3.922,2.285-6.686,1.304C199.259,164.36,194.336,159.501,195.762,155.482z M250.838,145.751l2.758-42.441
		l-24.614,34.684L250.838,145.751z"/>
	<path style="fill:#FFFFFF;" d="M90.164,358.636c-0.914-3.481,2.222-6.234,5.96-7.216l24.88-6.535
		c13.408-3.522,27.063-2.422,31.872,15.883c2.777,10.572,0.48,18.616-5.574,23.376c8.676,1.029,15.411,4.634,18.797,17.525
		l0.711,2.707c5.282,20.112-4.037,30.276-18.605,34.102l-27.33,7.178c-4.512,1.185-7.992-0.519-8.703-3.226L90.164,358.636z
		 M115.023,385.595l14.438-3.792c6.961-1.828,9.128-7.222,7.401-13.796c-1.761-6.704-6.712-9.813-13.287-8.087l-14.309,3.758
		L115.023,385.595z M140.865,424.697c7.864-2.065,11.387-7.538,8.814-17.336l-0.542-2.062c-2.641-10.055-8.23-12.446-16.094-10.38
		l-14.567,3.826l7.821,29.779L140.865,424.697z"/>
	<path style="fill:#FFFFFF;" d="M396.908,350.771c-8.93,0-13.995,4.932-13.995,15.329v37.187c0,10.396,5.065,15.329,14.261,15.329
		c12.13,0,13.196-8.664,13.595-14.262c0.267-4.132,3.999-5.465,8.53-5.465c5.998,0,8.797,1.733,8.797,8.53
		c0,16.128-13.196,26.39-31.856,26.39c-16.794,0-30.656-8.263-30.656-30.522V366.1c0-22.259,13.995-30.523,30.789-30.523
		c18.527,0,31.723,9.863,31.723,25.325c0,6.931-2.799,8.53-8.664,8.53c-4.931,0-8.53-1.466-8.664-5.464
		C410.503,359.835,409.57,350.771,396.908,350.771z"/>
</g>
<g>
</g>
<g>
</g>
<g>
</g>
<g>
</g>
<g>
</g>
<g>
</g>
<g>
</g>
<g>
</g>
<g>
</g>
<g>
</g>
<g>
</g>
<g>
</g>
<g>
</g>
<g>
</g>
<g>
</g>
</svg>
