<svg xmlns="http://www.w3.org/2000/svg" viewBox="0 0 916 916"><defs><style>.a{fill:#353535;}.b{fill:#2b2b2b;}.c{fill:#565656;}.d{fill:#424242;}.e{fill:#fff;}</style></defs><title>Лого анилибрии</title><circle class="a" cx="458" cy="458" r="458"/><path class="b" d="M80.31,389.94,497,501,274.91,122.61S165.82,215,147.15,248.41C121.59,270,80.31,389.94,80.31,389.94Z" transform="translate(-41 -43)"/><path class="a" d="M279.83,133.42,499,501,757.48,160S650.36,62.66,504.9,65.61,279.83,133.42,279.83,133.42Z" transform="translate(-41 -43)"/><path class="c" d="M757.48,160.94,499,501,910.81,607.15S960,462.67,902,333.92,757.48,160.94,757.48,160.94Z" transform="translate(-41 -43)"/><path class="d" d="M913.76,608.13,499,501,390.89,914.77s128.75,63.89,316.47-33.41S913.76,608.13,913.76,608.13Z" transform="translate(-41 -43)"/><polygon class="e" points="371.51 612.3 289.94 612.3 459.97 172 513.04 172 656.53 612.3 573.97 612.3 471.76 265.37 371.51 612.3"/><polygon class="e" points="471.76 601.49 477.66 612.3 709.61 497.31 696.83 465.86 471.76 601.49"/><polygon class="e" points="289.94 172 230.97 206.4 454.07 572.01 685.03 433.43 659.48 365.61 479.62 471.76 289.94 172"/><path class="e" d="M499,71A430.11,430.11,0,0,1,666.37,897.21,430.11,430.11,0,0,1,331.63,104.79,427.28,427.28,0,0,1,499,71m0-8C257.1,63,61,259.1,61,501S257.1,939,499,939,937,742.9,937,501,740.9,63,499,63Z" transform="translate(-41 -43)"/><path class="e" d="M308.72,704.4l13.39,84.4H308.84l-2.27-15.31H290.43l-2.27,15.31H276.09l13.38-84.4Zm-10.28,15L292.1,762h12.67Z" transform="translate(-41 -43)"/><path class="e" d="M356.29,788.8l-16.37-61.13V788.8H328.08V704.4h16.5l13.5,50.52V704.4H369.8v84.4Z" transform="translate(-41 -43)"/><path class="e" d="M379.24,788.8V704.4h13.15v84.4Z" transform="translate(-41 -43)"/><path class="e" d="M402,788.8V704.4H415.1v72.34h21.63V788.8Z" transform="translate(-41 -43)"/><path class="e" d="M442.47,788.8V704.4h13.15v84.4Z" transform="translate(-41 -43)"/><path class="e" d="M485,704.4q10.16,0,14.82,4.76t4.67,14.65v3q0,13-8.49,17,9.8,3.85,9.8,18.08v6.87q0,9.76-5.08,14.89t-14.88,5.13H465.18V704.4Zm-.36,12.06h-6.33v22.3h5.14q3.94,0,5.91-2t2-6.87v-4.7Q491.36,716.46,484.66,716.46Zm-.47,34.36h-5.86v25.92h7.53a6.55,6.55,0,0,0,5.14-1.87q1.67-1.86,1.67-6.45v-7.35q0-5.79-2-8T484.19,750.82Z" transform="translate(-41 -43)"/><path class="e" d="M554.59,788.8H541.2a34.59,34.59,0,0,1-1.2-10.37V765.17c0-3.86-.67-6.61-2-8.26s-3.54-2.47-6.57-2.47h-4.54V788.8H513.71V704.4h19.84q10.16,0,14.82,4.76T553,723.81v6.63q0,13-8.6,17.12,8.72,3.75,8.72,18v13Q553.15,785.42,554.59,788.8Zm-21.4-72.34h-6.33v25.92H532q3.94,0,5.91-2t2-6.87v-8.32Q539.89,716.46,533.19,716.46Z" transform="translate(-41 -43)"/><path class="e" d="M561.76,788.8V704.4h13.15v84.4Z" transform="translate(-41 -43)"/><path class="e" d="M613.63,704.4,627,788.8H613.75l-2.27-15.31H595.35l-2.27,15.31H581l13.39-84.4Zm-10.28,15L597,762h12.67Z" transform="translate(-41 -43)"/><path class="e" d="M633.12,776h12.67V788.8H633.12Z" transform="translate(-41 -43)"/><path class="e" d="M644.35,716.46V704.4H685v12.06H671.25V788.8H658.1V716.46Z" transform="translate(-41 -43)"/><path class="e" d="M700.53,704.4l10,68.85,10-68.85h12.08l-12.91,84.4H700.17l-12.91-84.4Z" transform="translate(-41 -43)"/></svg>