<svg clip-rule="evenodd" fill-rule="evenodd" image-rendering="optimizeQuality" shape-rendering="geometricPrecision" text-rendering="geometricPrecision" viewBox="0 0 512 512" xmlns="http://www.w3.org/2000/svg"><g><path d="m189 180c0-22-18-40-40-40h-18-30-18c-22 0-39 18-39 40v277c0 22 17 40 39 40h66c22 0 40-18 40-40z" fill="#eaeef9"/><path d="m342 503c-45 0-82-37-82-83v-337c0-38-31-68-69-68-37 0-68 30-68 68v27c0 4-3 7-7 7-5 0-8-3-8-7v-27c0-46 37-83 83-83s83 37 83 83v338c0 37 30 68 68 68 37 0 68-31 68-68v-216c0-4 3-8 7-8s8 4 8 8v216c0 45-37 82-83 82z" fill="#283e63"/><g id="_630962680"><path d="m402 84c-11 0-14 0-25 0-4 0-6-3-6-7v-28c0-10 8-19 18-19s19 9 19 19v28c0 4-3 7-6 7z" fill="#3c5073"/><path d="m456 84c-12 0-13 0-25 0-3 0-6-3-6-7v-29c0-10 8-18 18-18s19 8 19 18v29c0 4-2 7-6 7z" fill="#3c5073"/><path d="m414 212c-6 0-11-2-15-6-9-7-10-18-10-21-7-27-14-33-21-38-11-9-17-17-17-69 0-4 3-7 7-7h118c4 0 7 3 7 6 0 53-6 61-17 70-5 4-11 8-17 25l-1 1c-1 4-2 8-3 12 0 3-1 14-10 21-3 4-9 6-15 6-1 0-2 0-3 0s-2 0-3 0z" fill="#f58900"/><path d="m381 162c-3-6-7-10-10-13h91c-3 3-6 7-9 13z" fill="#f7c705"/><path d="m415 133c-11 0-19-9-19-20 0-10 8-19 19-19s19 9 19 19c1 11-8 20-19 20z" fill="#fff"/><path d="m415 128c-8 0-15-6-15-15 0-8 7-14 15-14s15 6 15 14c0 9-7 15-15 15z" fill="#f7c705"/></g><path d="m116 491c-25 0-45-20-45-45 0-24 20-44 45-44s45 20 45 44c0 25-20 45-45 45z" fill="#979fc3"/><path d="m131 138c-11 0-19 0-30 0-4 0-7-3-7-7v-6c0-13 9-23 22-23 12 0 22 10 22 23v6c0 4-3 7-7 7z" fill="#3c5073"/><path d="m100 460c-4 0-7-3-7-7v-15c0-4 3-7 7-7s8 3 8 7v15c-1 4-4 7-8 7z" fill="#5e6b8e"/><path d="m130 460c-4 0-8-3-8-7v-15c0-4 4-7 8-7s7 3 7 7v15c0 4-3 7-7 7z" fill="#5e6b8e"/><path d="m116 380c-25 0-45-20-45-45 0-24 20-44 45-44s45 20 45 44c0 25-20 45-45 45z" fill="#979fc3"/><path d="m100 350c-4 0-7-4-7-8v-14c0-4 3-8 7-8s8 4 8 8v14c-1 4-4 8-8 8z" fill="#5e6b8e"/><path d="m130 350c-4 0-8-4-8-8v-14c0-4 4-8 8-8s7 4 7 8v14c0 4-3 8-7 8z" fill="#5e6b8e"/><path d="m116 269c-25 0-45-20-45-45 0-24 20-44 45-44s45 20 45 44c0 25-20 45-45 45z" fill="#979fc3"/><g fill="#5e6b8e"><path d="m100 239c-4 0-7-3-7-8v-14c0-4 3-7 7-7s8 3 8 7v14c-1 5-4 8-8 8z"/><path d="m130 239c-4 0-8-3-8-8v-14c0-4 4-7 8-7s7 3 7 7v14c0 5-3 8-7 8z"/><path d="m153 169h-74c-4 0-8-4-8-8s4-7 8-7h74c4 0 7 3 7 7s-3 8-7 8z"/></g><path d="m303 395c-4 0-7-3-7-8v-221c0-4 3-7 7-7s8 3 8 7v221c-1 5-4 8-8 8z" fill="#283e63"/><path d="m149 512h-66c-30 0-54-25-54-55v-277c0-30 24-54 54-54h66c30 0 54 24 54 54v277c0 30-24 55-54 55zm-66-372c-22 0-39 18-39 40v277c0 22 17 40 39 40h66c22 0 40-18 40-40v-277c0-22-18-40-40-40z" fill="#d3d4f2"/></g></svg>