<svg enable-background="new 0 0 512 512" height="512" viewBox="0 0 512 512" width="512" xmlns="http://www.w3.org/2000/svg"><g><path d="m229.24 206.719 16.096-26.826c2.382-3.97 1.036-9.123-2.985-11.42l-42.868-24.494c-3.905-2.231-5.307-7.177-3.153-11.126l34.906-63.995c2.028-3.717.776-8.637-2.79-10.922-14.729-9.438-31.217-16.36-48.875-20.13 0 0-31.864.796-48.748 2.767-78.252 9.133-108.535 73.691-104.207 152.355 4.953 90.022 61.812 158.932 128.47 210.14l37.04-5.1 86.246-143.746c2.382-3.97 1.036-9.123-2.984-11.42l-43.163-24.664c-4.02-2.297-5.367-7.449-2.985-11.419z" fill="#ff7e92"/><path d="m380.642 35.526c-36.363-4.116-70.386 4.975-98.067 23.016-8.674 5.653-15.543 13.682-20.501 22.772l-21.231 38.925c-2.154 3.948-.752 8.894 3.153 11.125l44.047 25.172c4.02 2.297 5.366 7.45 2.984 11.42l-16.096 26.826c-2.382 3.97-1.036 9.123 2.984 11.42l43.163 24.664c4.02 2.297 5.367 7.45 2.984 11.42l-105.648 176.079 15.839 36.178 53.156 8.961c66.674-38.587 216.899-139.612 224.335-270.238 4.536-79.678-51.801-148.765-131.102-157.74z" fill="#ff7e92"/><g fill="#ff5f7a"><path d="m63.074 193.267c-4.251-74.685 45.003-140.169 116.497-155.462-15.487-3.308-31.858-4.188-48.748-2.217-76.78 8.962-133.924 77.774-130.692 155.007 4.207 100.534 93.336 183.714 165.235 234.825 3.914 2.783 9.346 1.571 11.817-2.548l14.942-24.903c-61.957-50.677-124.326-121.702-129.051-204.702z"/><path d="m218.415 418.365-14.05 23.417c-2.336 3.893-1.076 8.927 2.791 11.307 15.578 9.585 28.588 16.826 37.254 21.456 7.257 3.877 15.942 3.875 23.2 0 5.161-2.755 11.933-6.489 19.8-11.041-18.28-10.575-42.798-25.835-68.995-45.139z"/></g></g></svg>