<svg id="圖層_1" height="512" viewBox="0 0 512 512" width="512" xmlns="http://www.w3.org/2000/svg"><path id="_x30_5" d="m39.983 0v472h192.5v-472zm96.267 406.1c-16.7 0-30.267-13.5-30.267-30.199 0-16.7 13.566-30.233 30.233-30.233 16.733 0 30.267 13.533 30.267 30.233 0 16.699-13.533 30.199-30.233 30.199z" fill="#02a9f4"/><path id="_x30_4" d="m39.983 415.834 56.167 56.166h50.966l85.367-85.4v-272.217l-192.5 192.517zm81.734-84.701c12.167 0 22.533 7.184 27.333 17.467 10.301 4.834 17.434 15.201 17.434 27.301 0 16.699-13.533 30.199-30.233 30.199-12.133 0-22.533-7.166-27.367-17.467-10.233-4.832-17.4-15.183-17.4-27.266-.001-16.683 13.566-30.234 30.233-30.234z" fill="#006ab3"/><path id="_x30_3" d="m333.75 42.133-333.733 333.767 136.1 136.1 333.734-333.767zm-197.5 363.967c-16.7 0-30.267-13.5-30.267-30.199 0-16.7 13.566-30.233 30.233-30.233 16.733 0 30.267 13.533 30.267 30.233 0 16.699-13.533 30.199-30.233 30.199z" fill="#f66"/><path id="_x30_2" d="m39.983 335.934v79.934l41.734 41.732h108.8l192.467-192.482h-272.2zm126.5 25.433c0 2.516-.4 4.934-1 7.266.6 2.334 1 4.734 1 7.268 0 16.699-13.533 30.199-30.233 30.199s-30.267-13.5-30.267-30.199c0-2.533.4-4.934 1-7.268-.6-2.332-1-4.75-1-7.266 0-16.684 13.566-30.234 30.233-30.234 16.734 0 30.267 13.551 30.267 30.234z" fill="#e63431"/><path id="_x30_1" d="m39.983 279.633v192.5h472v-192.5zm96.267 126.467c-16.7 0-30.267-13.5-30.267-30.199 0-16.7 13.566-30.233 30.233-30.233 16.733 0 30.267 13.533 30.267 30.233 0 16.699-13.533 30.199-30.233 30.199z" fill="#f4d177"/></svg>