<svg height="512" viewBox="0 0 64 64" width="512" xmlns="http://www.w3.org/2000/svg"><g id="_16-christmas_ball" data-name="16-christmas ball"><path d="m35 7h-6a1 1 0 0 1 -1-1c0-3.131 1.5-5 4-5s4 1.869 4 5a1 1 0 0 1 -1 1zm-4.933-2h3.866c-.3-2-1.5-2-1.933-2s-1.636 0-1.933 2z" fill="#ebd23f"/><path d="m27 8h10v10h-10z" fill="#f59daa"/><circle cx="32" cy="39" fill="#f5b3bd" r="24"/><g fill="#e36861"><path d="m53.805 28.975a24 24 0 0 0 -43.61 0c4.862-.261 5.985-3.975 11.13-3.975 5.334 0 5.334 4 10.668 4s5.332-4 10.664-4c5.152 0 6.273 3.719 11.148 3.975z"/><path d="m53.805 49.025a24 24 0 0 1 -43.61 0c4.862.261 5.985 3.975 11.13 3.975 5.334 0 5.334-4 10.668-4s5.332 4 10.664 4c5.152 0 6.273-3.719 11.148-3.975z"/><path d="m42.675 38-10.668-4-10.664 4-10.671-4-2.31.866a24.157 24.157 0 0 0 -.362 4.134c0 .664.034 1.319.087 1.969l2.585-.969 10.671 4 10.664-4 10.668 4 10.664-4 2.574.966c.053-.649.087-1.3.087-1.966a24.112 24.112 0 0 0 -.363-4.138l-2.298-.862z"/></g><path d="m34 9-2 2-2-2v-4h4z" fill="#fcea81"/><path d="m38 9-2 2-2-2v-4h3a1 1 0 0 1 1 1z" fill="#e0c62b"/><path d="m30 9-2 2-2-2v-3a1 1 0 0 1 1-1h3z" fill="#e0c62b"/><path d="m48.964 29a1.049 1.049 0 0 1 -.866-.448 21.193 21.193 0 0 0 -3.747-3.8.975.975 0 0 1 -.091-1.412 1.064 1.064 0 0 1 1.463-.088 22.813 22.813 0 0 1 4.105 4.2.978.978 0 0 1 -.293 1.386 1.063 1.063 0 0 1 -.571.162z" fill="#f6f0e5"/><path d="m42 21h2v2h-2z" fill="#f6f0e5"/></g></svg>