<svg height="512" viewBox="0 0 64 64" width="512" xmlns="http://www.w3.org/2000/svg"><path d="m46.919 11.84-1.929 14.392 3.5-1.445a17.988 17.988 0 0 1 -24.585 23.272l-4.517 8.941a27.991 27.991 0 0 0 37.791-37.228l3.668-1.54z" fill="#7ed63e"/><path d="m23 16.411a17.96 17.96 0 0 1 17.1-.47l4.517-8.936a27.991 27.991 0 0 0 -37.796 37.223l-3.668 1.54 13.928 6.392 1.929-14.392-3.5 1.445a18.026 18.026 0 0 1 7.49-22.802z" fill="#5eac24"/><path d="m32.016 61.007a29.048 29.048 0 0 1 -13.079-3.119 1 1 0 0 1 -.442-1.345l4.518-8.935a1 1 0 0 1 1.342-.441 16.989 16.989 0 0 0 23.589-21.067l-2.573 1.061a1 1 0 0 1 -1.371-1.061l1.929-14.392a1 1 0 0 1 1.408-.776l13.928 6.392a1 1 0 0 1 -.03 1.831l-2.71 1.138a29.006 29.006 0 0 1 -26.509 40.714zm-11.276-4.471a26.992 26.992 0 0 0 35.541-36.326.992.992 0 0 1 -.037-.79 1 1 0 0 1 .548-.57l1.568-.659-10.63-4.879-1.518 11.334 1.9-.783a1 1 0 0 1 1.3.523 18.987 18.987 0 0 1 -25.054 24.993z"/><path d="m17.081 53.16a1 1 0 0 1 -.417-.091l-13.928-6.392a1 1 0 0 1 .03-1.831l2.71-1.138a28.992 28.992 0 0 1 39.586-37.6 1 1 0 0 1 .443 1.345l-4.518 8.935a1 1 0 0 1 -1.342.441 16.989 16.989 0 0 0 -23.589 21.076l2.573-1.061a1 1 0 0 1 1.371 1.056l-1.928 14.393a1 1 0 0 1 -.991.867zm-11.441-7.351 10.63 4.879 1.518-11.334-1.9.783a1 1 0 0 1 -1.3-.523 18.987 18.987 0 0 1 25.054-24.993l3.618-7.157a26.992 26.992 0 0 0 -35.541 36.326.992.992 0 0 1 .037.79 1 1 0 0 1 -.548.57z"/></svg>