<svg height="512pt" viewBox="-26 0 512 512.00002" width="512pt" xmlns="http://www.w3.org/2000/svg"><path d="m445.78125 131.070312c-3.675781-5.964843-8.777344-10.917968-14.847656-14.417968l-179.03125-102.488282c-13.351563-7.507812-29.652344-7.507812-43.007813 0l-179.027343 102.488282c-6.070313 3.5-11.171876 8.453125-14.847657 14.417968-4.242187 6.65625-6.492187 14.382813-6.484375 22.273438v205.3125c.078125 15.152344 8.203125 29.125 21.332032 36.691406l179.027343 102.488282c13.355469 7.507812 29.65625 7.507812 43.007813 0l179.03125-102.488282c13.128906-7.566406 21.253906-21.539062 21.332031-36.691406v-205.3125c.003906-7.890625-2.246094-15.617188-6.484375-22.273438zm0 0" fill="#f76c82"/><path d="m452.265625 153.34375v205.3125c-.078125 15.152344-8.203125 29.125-21.332031 36.691406l-179.03125 102.488282c-6.5625 3.695312-13.96875 5.636718-21.503906 5.628906v-247.464844l215.382812-124.929688c4.238281 6.65625 6.488281 14.382813 6.484375 22.273438zm0 0" fill="#d94452"/><path d="m230.398438 256v247.464844c-7.53125.007812-14.9375-1.933594-21.503907-5.628906l-179.027343-102.488282c-13.128907-7.566406-21.253907-21.539062-21.332032-36.691406v-205.3125c-.007812-7.890625 2.242188-15.617188 6.484375-22.273438zm0 0" fill="#eb5463"/><path d="m315.683594 408.328125c-1.71875 12.445313-10.621094 22.707031-22.699219 26.164063-4.753906 1.929687-10.171875 1.207031-14.253906-1.902344-4.078125-3.109375-6.210938-8.140625-5.613281-13.234375 1.699218-12.4375 10.613281-22.683594 22.699218-26.078125 4.738282-1.976563 10.167969-1.285156 14.257813 1.816406 4.09375 3.097656 6.226562 8.140625 5.609375 13.234375zm0 0" fill="#cad0d7"/><path d="m42.71875 340.0625c1.71875 12.445312 10.617188 22.707031 22.699219 26.164062 4.75 1.929688 10.167969 1.207032 14.25-1.902343 4.078125-3.109375 6.214843-8.144531 5.613281-13.238281-1.695312-12.4375-10.613281-22.679688-22.699219-26.078126-4.734375-1.972656-10.167969-1.28125-14.257812 1.816407-4.089844 3.101562-6.226563 8.140625-5.605469 13.238281zm0 0" fill="#f4f6f8"/><path d="m153.652344 408.328125c1.71875 12.445313 10.617187 22.707031 22.699218 26.164063 4.75 1.929687 10.167969 1.207031 14.25-1.902344 4.078126-3.109375 6.214844-8.140625 5.613282-13.234375-1.695313-12.4375-10.613282-22.683594-22.699219-26.078125-4.738281-1.976563-10.167969-1.285156-14.257813 1.816406-4.089843 3.097656-6.226562 8.140625-5.605468 13.234375zm0 0" fill="#f4f6f8"/><path d="m42.71875 220.59375c1.71875 12.449219 10.617188 22.707031 22.699219 26.164062 4.75 1.929688 10.167969 1.207032 14.25-1.902343 4.078125-3.109375 6.214843-8.140625 5.613281-13.234375-1.695312-12.4375-10.613281-22.683594-22.699219-26.078125-4.734375-1.976563-10.167969-1.285157-14.257812 1.816406-4.089844 3.097656-6.226563 8.140625-5.605469 13.234375zm0 0" fill="#f4f6f8"/><path d="m153.652344 288.863281c1.71875 12.445313 10.617187 22.703125 22.699218 26.160157 4.75 1.933593 10.167969 1.207031 14.25-1.902344 4.078126-3.105469 6.214844-8.140625 5.613282-13.234375-1.695313-12.4375-10.613282-22.679688-22.699219-26.078125-4.738281-1.976563-10.167969-1.28125-14.257813 1.816406-4.089843 3.101562-6.226562 8.140625-5.605468 13.238281zm0 0" fill="#f4f6f8"/><path d="m418.082031 220.59375c-1.71875 12.449219-10.621093 22.707031-22.699219 26.164062-4.75 1.929688-10.171874 1.207032-14.25-1.902343-4.082031-3.109375-6.214843-8.140625-5.613281-13.234375 1.695313-12.4375 10.613281-22.683594 22.695313-26.078125 4.738281-1.976563 10.171875-1.285157 14.261718 1.816406 4.089844 3.097656 6.226563 8.140625 5.605469 13.234375zm0 0" fill="#cad0d7"/><path d="m366.882812 314.460938c-1.71875 12.445312-10.621093 22.707031-22.699218 26.164062-4.753906 1.929688-10.171875 1.207031-14.25-1.902344-4.082032-3.109375-6.214844-8.140625-5.617188-13.234375 1.699219-12.4375 10.617188-22.683593 22.699219-26.078125 4.738281-1.976562 10.167969-1.285156 14.261719 1.816406 4.089844 3.097657 6.226562 8.140626 5.605468 13.234376zm0 0" fill="#cad0d7"/><path d="m250.171875 145.824219c-9.875 9.175781-24.753906 10.378906-35.976563 2.910156-5.117187-2.992187-8.53125-8.210937-9.234374-14.097656-.699219-5.882813 1.398437-11.757813 5.667968-15.871094 9.890625-9.203125 24.789063-10.445313 36.070313-3.011719 5.089843 3.046875 8.472656 8.285156 9.15625 14.179688.679687 5.894531-1.421875 11.765625-5.683594 15.890625zm0 0" fill="#fff"/><g fill="#373737"><path d="m25.652344 402.773438 179.003906 102.46875c7.8125 4.402343 16.628906 6.722656 25.597656 6.730468l.144532.027344h.128906c8.988281-.011719 17.824218-2.335938 25.652344-6.75l179.019531-102.535156c15.777343-9.078125 25.53125-25.867188 25.601562-44.066406v-25.847657c0-4.714843-3.820312-8.535156-8.535156-8.535156-4.710937 0-8.53125 3.820313-8.53125 8.535156v25.847657c-.066406 12.101562-6.570313 23.25-17.066406 29.269531l-178.945313 102.476562c-2.757812 1.554688-5.714844 2.722657-8.789062 3.472657v-232.960938l203.09375-117.757812c1.105468 3.300781 1.679687 6.757812 1.707031 10.238281v128.214843c0 4.710938 3.820313 8.53125 8.53125 8.53125 4.714844 0 8.535156-3.820312 8.535156-8.53125v-128.257812c-.027343-9.351562-2.65625-18.507812-7.585937-26.453125 0-.042969 0-.09375-.050782-.136719-.050781-.042968-.136718-.136718-.1875-.222656-4.441406-7.136719-10.566406-13.074219-17.835937-17.296875l-178.996094-102.476563c-15.992187-9.011718-35.53125-9.011718-51.523437 0l-179.019532 102.519532c-7.269531 4.226562-13.386718 10.171875-17.820312 17.316406-.050781.074219-.125.117188-.167969.195312v.128907c-4.9375 7.933593-7.5742185 17.082031-7.613281 26.425781v42.921875c0 4.714844 3.820312 8.535156 8.535156 8.535156 4.710938 0 8.53125-3.820312 8.53125-8.535156v-42.921875c.027344-3.480469.601563-6.9375 1.707032-10.238281l203.09375 117.808593v232.960938c-3.0625-.75-6.007813-1.914062-8.753907-3.464844l-178.980469-102.476562c-10.496093-6.027344-17-17.179688-17.066406-29.285156v-111.183594c0-4.710938-3.820312-8.53125-8.53125-8.53125-4.714844 0-8.535156 3.820312-8.535156 8.53125v111.183594c.0703125 18.230468 9.84375 35.042968 25.652344 44.125zm187.425781-381.160157c10.742187-6.050781 23.867187-6.050781 34.609375 0l178.980469 102.453125c2.238281 1.304688 4.320312 2.867188 6.203125 4.652344l-202.472656 117.417969-202.433594-117.429688c1.875-1.773437 3.945312-3.324219 6.167968-4.632812zm0 0"/><path d="m293.707031 385.007812c-15.644531 4.316407-27.140625 17.652344-29.105469 33.765626-.742187 7.460937 2.179688 14.816406 7.832032 19.738281 4.277344 3.464843 9.636718 5.3125 15.140625 5.222656 2.539062-.007813 5.070312-.332031 7.535156-.964844 15.597656-4.417969 27.027344-17.753906 29.011719-33.84375.742187-7.472656-2.195313-14.839843-7.875-19.753906-6.394532-4.957031-14.792969-6.507813-22.539063-4.164063zm13.492188 22.730469c-1.457031 8.765625-7.777344 15.9375-16.289063 18.484375-2.5.898438-5.277344.585938-7.507812-.851562-1.394532-1.453125-2.027344-3.476563-1.707032-5.460938 1.4375-8.777344 7.796876-15.941406 16.339844-18.410156 1.074219-.28125 2.183594-.425781 3.292969-.433594 1.761719-.210937 3.511719.460938 4.679687 1.796875 1.167969 1.332031 1.601563 3.160157 1.15625 4.875zm0 0"/><path d="m63.308594 374.492188c2.457031.640624 4.980468.96875 7.519531.972656 5.515625.105468 10.890625-1.742188 15.179687-5.210938 5.652344-4.925781 8.570313-12.28125 7.832032-19.738281-1.949219-16.101563-13.425782-29.433594-29.054688-33.757813-7.777344-2.382812-16.230468-.839843-22.664062 4.136719-5.683594 4.914063-8.621094 12.28125-7.875 19.757813 1.992187 16.101562 13.445312 29.441406 29.0625 33.839844zm-10.34375-40.453126c2.246094-1.421874 5.027344-1.703124 7.511718-.761718 8.53125 2.472656 14.882813 9.632812 16.324219 18.398437.300781 1.992188-.347656 4.011719-1.75 5.460938-2.214843 1.417969-4.960937 1.730469-7.441406.855469-8.5625-2.523438-14.9375-9.714844-16.410156-18.519532-.304688-1.988281.351562-4.003906 1.765625-5.433594zm0 0"/><path d="m174.242188 442.761719c2.457031.636719 4.980468.964843 7.519531.972656 5.515625.101563 10.890625-1.746094 15.179687-5.214844 5.652344-4.925781 8.570313-12.277343 7.832032-19.738281-1.949219-16.101562-13.425782-29.429688-29.054688-33.757812-7.78125-2.375-16.226562-.832032-22.664062 4.140624-5.683594 4.910157-8.621094 12.28125-7.878907 19.753907 1.992188 16.101562 13.449219 29.441406 29.066407 33.84375zm-10.34375-40.457031c2.246093-1.417969 5.027343-1.699219 7.511718-.761719 8.53125 2.472656 14.882813 9.632812 16.324219 18.398437.3125 1.988282-.320313 4.007813-1.707031 5.460938-2.21875 1.417968-4.960938 1.730468-7.441406.855468-8.582032-2.507812-14.972657-9.703124-16.453126-18.519531-.304687-1.988281.351563-4.003906 1.765626-5.433593zm0 0"/><path d="m63.308594 255.027344c2.457031.636718 4.980468.964844 7.519531.972656 5.515625.101562 10.890625-1.742188 15.179687-5.214844 5.652344-4.921875 8.570313-12.277344 7.832032-19.738281-1.949219-16.097656-13.425782-29.425781-29.054688-33.746094-7.777344-2.378906-16.226562-.839843-22.664062 4.128907-5.691406 4.90625-8.628906 12.277343-7.875 19.753906 1.992187 16.101562 13.445312 29.441406 29.0625 33.84375zm-10.34375-40.464844c2.253906-1.402344 5.027344-1.675781 7.511718-.742188 8.53125 2.46875 14.882813 9.625 16.324219 18.390626.308594 1.984374-.320312 4.003906-1.707031 5.460937-2.21875 1.417969-4.96875 1.730469-7.449219.851563-8.574219-2.515626-14.957031-9.707032-16.445312-18.515626-.304688-1.992187.351562-4.011718 1.765625-5.445312zm0 0"/><path d="m174.242188 323.292969c2.457031.640625 4.980468.964843 7.519531.972656 5.515625.105469 10.890625-1.742187 15.179687-5.210937 5.652344-4.925782 8.570313-12.28125 7.832032-19.738282-1.949219-16.101562-13.425782-29.433594-29.054688-33.757812-7.777344-2.386719-16.230469-.84375-22.664062 4.136718-5.683594 4.914063-8.621094 12.28125-7.878907 19.753907 1.992188 16.105469 13.449219 29.441406 29.066407 33.84375zm-10.34375-40.457031c2.246093-1.414063 5.027343-1.695313 7.511718-.757813 8.53125 2.472656 14.882813 9.628906 16.324219 18.398437.3125 1.984376-.320313 4.003907-1.707031 5.460938-2.21875 1.414062-4.960938 1.730469-7.441406.851562-8.582032-2.507812-14.972657-9.699218-16.453126-18.515624-.304687-1.988282.351563-4.007813 1.765626-5.4375zm0 0"/><path d="m397.550781 255.011719c15.597657-4.417969 27.027344-17.75 29.011719-33.835938.746094-7.472656-2.191406-14.84375-7.875-19.753906-6.417969-4.96875-14.847656-6.515625-22.613281-4.148437-15.640625 4.332031-27.128907 17.660156-29.105469 33.765624-.742188 7.460938 2.175781 14.816407 7.832031 19.738282 4.285157 3.472656 9.65625 5.324218 15.171875 5.222656 2.558594-.011719 5.105469-.34375 7.578125-.988281zm-11.785156-17.339844c-1.394531-1.453125-2.023437-3.476563-1.707031-5.460937 1.441406-8.777344 7.804687-15.941407 16.351562-18.410157 1.085938-.296875 2.203125-.453125 3.328125-.46875 1.761719-.210937 3.511719.460938 4.679688 1.796875 1.164062 1.335938 1.59375 3.160156 1.148437 4.878906-1.460937 8.761719-7.777344 15.933594-16.289062 18.480469-2.496094.898438-5.265625.597657-7.511719-.816406zm0 0"/><path d="m346.34375 348.886719c15.597656-4.421875 27.027344-17.753907 29.011719-33.84375.742187-7.472657-2.195313-14.84375-7.875-19.753907-6.417969-4.972656-14.851563-6.519531-22.613281-4.148437-15.648438 4.316406-27.144532 17.652344-29.109376 33.765625-.738281 7.460938 2.179688 14.816406 7.835938 19.738281 4.285156 3.472657 9.664062 5.324219 15.179688 5.222657 2.554687-.011719 5.097656-.339844 7.570312-.980469zm-11.777344-17.351563c-1.394531-1.449218-2.027344-3.472656-1.707031-5.460937 1.4375-8.773438 7.800781-15.9375 16.339844-18.40625 1.085937-.296875 2.203125-.453125 3.328125-.46875 1.761718-.210938 3.515625.460937 4.683594 1.796875 1.167968 1.335937 1.597656 3.160156 1.15625 4.878906-1.460938 8.761719-7.78125 15.933594-16.292969 18.480469-2.492188.910156-5.269531.609375-7.507813-.820313zm0 0"/><path d="m209.355469 155.765625c6.226562 4.210937 13.578125 6.441406 21.097656 6.402344 9.628906.121093 18.910156-3.605469 25.785156-10.351563 5.90625-5.753906 8.910157-13.863281 8.175781-22.074218-.972656-8.582032-5.703124-16.285157-12.910156-21.035157-14.664062-9.804687-34.160156-8.128906-46.933594 4.035157-5.921874 5.699218-8.9375 13.777343-8.203124 21.964843.976562 8.605469 5.738281 16.328125 12.988281 21.058594zm7.390625-31.007813c3.710937-3.5 8.648437-5.402343 13.746094-5.292968 4.039062-.046875 7.996093 1.113281 11.367187 3.328125 3.035156 1.875 5.078125 5.003906 5.566406 8.535156.234375 3.183594-.992187 6.304687-3.339843 8.472656-6.976563 6.234375-17.273438 6.992188-25.085938 1.84375-3.066406-1.871093-5.128906-5.023437-5.617188-8.585937-.210937-3.136719 1.027344-6.195313 3.363282-8.300782zm0 0"/></g></svg>