<svg enable-background="new 0 0 499.519 499.519" viewBox="0 0 499.519 499.519" xmlns="http://www.w3.org/2000/svg"><g><g><path clip-rule="evenodd" d="m18.928 435.977-18.09 53.47c-1.257 4.83-1.2 8.088.857 9.602h9.488c.857-.229 1.772-.514 2.743-.829l35.779-12.146 14.432-4.887-13.045-35.731z" fill="#b5c4cf" fill-rule="evenodd"></path></g><g><path clip-rule="evenodd" d="m376.063 48.996-215.047 215.053-126.856 126.888c0 31.008 23.977 69.274 74.931 74.933l341.932-341.913-13.403-61.586z" fill="#fdb440" fill-rule="evenodd"></path></g><g><path clip-rule="evenodd" d="m18.928 435.977 45.21 45.211 44.953-15.318c-7.202-16.29-18.833-31.951-30.835-44.382-15.689-16.233-32.35-27.321-44.095-30.55z" fill="#fcd79b" fill-rule="evenodd"></path></g><g><path clip-rule="evenodd" d="m64.138 481.188 44.953-15.318c-3.572-8.088-8.259-16.033-13.517-23.492l-52.411 17.833z" fill="#fbc56c" fill-rule="evenodd"></path></g><g><path clip-rule="evenodd" d="m49.706 486.075 14.432-4.887-20.976-20.977-7.002 2.372-29.664 10.06-5.658 16.804c-1.257 4.83-1.2 8.088.857 9.602h9.488c.857-.229 1.772-.514 2.743-.829z" fill="#9aafb7" fill-rule="evenodd"></path></g><g><path clip-rule="evenodd" d="m375.692 49.367 74.931 74.933 42.038-42.039c9.145-9.145 9.145-24.12 0-33.265l-41.667-41.668c-9.145-9.145-24.12-9.145-33.264 0z" fill="#fe636e" fill-rule="evenodd"></path></g><g><path clip-rule="evenodd" d="m433.247 106.924h.029zm17.376 17.376 42.038-42.039c9.145-9.145 9.145-24.12 0-33.265l-20.262-20.262c9.145 9.145 9.145 24.12 0 33.265l-42.038 42.039 2.915 2.886z" fill="#fb2a39" fill-rule="evenodd"></path></g><g><path clip-rule="evenodd" d="m338.512 86.519 37.465 37.466 37.494 37.495 2.886 2.858c2 2.029 5.287 2.029 7.316 0l29.835-29.836c2.029-2 2.029-5.316 0-7.316l-2.886-2.886-74.931-74.933-2.886-2.886c-2-2.029-5.315-2.029-7.316 0l-29.864 29.836c-2 2.029-2 5.316 0 7.316z" fill="#edf3f4" fill-rule="evenodd"></path></g><g><path clip-rule="evenodd" d="m423.674 164.339 29.835-29.836c2.029-2 2.029-5.316 0-7.316l-2.886-2.886-17.318-17.347c1.972 2.029 1.943 5.287-.057 7.287l-29.835 29.836c-2 2.029-5.287 2.029-7.287.029v.029l17.347 17.347 2.886 2.858c1.999 2.028 5.286 2.028 7.315-.001z" fill="#d7e7ec" fill-rule="evenodd"></path></g><g><path clip-rule="evenodd" d="m394.953 142.962-299.38 299.416c5.258 7.459 9.945 15.404 13.517 23.492l304.381-304.389-17.347-17.347s0 0 0-.029z" fill="#fb8800" fill-rule="evenodd"></path></g><g><path d="m100.289 406.954c-1.92 0-3.841-.733-5.306-2.199-2.928-2.93-2.925-7.679.005-10.606l252.112-251.892c2.931-2.928 7.68-2.925 10.606.005 2.928 2.93 2.926 7.679-.005 10.606l-252.111 251.891c-1.464 1.463-3.383 2.195-5.301 2.195z" fill="#fcd79b"></path></g></g></svg>
