<svg id="Capa_1" enable-background="new 0 0 512 512" height="512" viewBox="0 0 512 512" width="512" xmlns="http://www.w3.org/2000/svg"><g id="_x34_8_eye"><path d="m256 124.089c-181.03 3.221-256 131.911-256 131.911s74.97 128.69 256 131.911c181.031-3.221 256-131.911 256-131.911s-74.969-128.69-256-131.911z" fill="#d8ecfe"/><path d="m480.147 216.55c2.354 3.458 3.506 5.434 3.506 5.434s-74.969 128.69-256 131.912c-114.585-2.039-186.662-54.339-224.147-92.461 16.673 24.494 93.862 123.653 252.494 126.476 181.031-3.221 256-131.911 256-131.911s-10.116-17.344-31.853-39.45z" fill="#c4e2ff"/><circle cx="256" cy="256" fill="#0182fc" r="131.911"/><path d="m256 329.699c-40.638 0-73.7-33.061-73.7-73.699 0-40.639 33.061-73.7 73.7-73.7 40.638 0 73.699 33.061 73.699 73.7 0 40.638-33.061 73.699-73.699 73.699z" fill="#465a61"/><path d="m300.019 247.636c-19.66 0-35.655-15.995-35.655-35.655 0-19.661 15.995-35.655 35.655-35.655s35.655 15.995 35.655 35.655c-.001 19.66-15.995 35.655-35.655 35.655z" fill="#d8ecfe"/><path d="m330.706 147.278c14.622 21.24 23.189 46.971 23.189 74.706 0 72.853-59.059 131.911-131.911 131.911-27.736 0-53.467-8.567-74.706-23.189 23.786 34.55 63.605 57.205 108.722 57.205 72.853 0 131.911-59.059 131.911-131.911 0-45.117-22.655-84.937-57.205-108.722z" fill="#0172fb"/></g></svg>