<?xml version="1.0"?>
<svg xmlns="http://www.w3.org/2000/svg" xmlns:xlink="http://www.w3.org/1999/xlink" xmlns:svgjs="http://svgjs.com/svgjs" version="1.1" width="512" height="512" x="0" y="0" viewBox="0 0 512 512" style="enable-background:new 0 0 512 512" xml:space="preserve" class=""><g transform="matrix(-1,0,0,1,512,0)"><linearGradient xmlns="http://www.w3.org/2000/svg" id="GradientFill_1" gradientUnits="userSpaceOnUse" x1="256" x2="256" y2="512"><stop offset="0" stop-color="#1fbbee"/><stop offset="1" stop-color="#4764af"/></linearGradient><path xmlns="http://www.w3.org/2000/svg" d="m256 0c-141.159 0-256 114.841-256 256s114.841 256 256 256 256-114.841 256-256-114.841-256-256-256zm141.772 235.037-63.6 63.6a16 16 0 1 1 -22.627-22.627l36.29-36.29h-94.135a112.283 112.283 0 0 0 -112.158 112.16 16 16 0 0 1 -32 0c0-79.488 64.668-144.156 144.156-144.156h94.135l-36.29-36.291a16 16 0 1 1 22.627-22.627l63.6 63.6a16 16 0 0 1 .002 22.631z" fill="url(#GradientFill_1)" data-original="url(#GradientFill_1)"/></g></svg>
