<svg id="svg8" clip-rule="evenodd" fill-rule="evenodd" height="512" stroke-linejoin="round" stroke-miterlimit="2" viewBox="0 0 24 24" width="512" xmlns="http://www.w3.org/2000/svg" xmlns:svg="http://www.w3.org/2000/svg"><path id="path2" d="m6 7.414-2.293 2.293c-.39.39-1.024.39-1.414 0s-.39-1.024 0-1.414l4-4c.39-.391 1.024-.391 1.414 0l4 4c.39.39.39 1.024 0 1.414s-1.024.39-1.414 0l-2.293-2.293v11.586c0 .552-.448 1-1 1s-1-.448-1-1z" fill="#29b6f6"/><path id="path4" d="m21 16h-2c-.552 0-1 .448-1 1s.448 1 1 1h2c.552 0 1-.448 1-1s-.448-1-1-1zm0-4h-6c-.552 0-1 .448-1 1s.448 1 1 1h6c.552 0 1-.448 1-1s-.448-1-1-1zm0-4h-6c-.552 0-1 .448-1 1s.448 1 1 1h6c.552 0 1-.448 1-1s-.448-1-1-1zm0-4h-6c-.552 0-1 .448-1 1s.448 1 1 1h6c.552 0 1-.448 1-1s-.448-1-1-1z" fill="#1565c0"/></svg>