<svg id="Layer_1" height="512" viewBox="0 0 512 512" width="512" xmlns="http://www.w3.org/2000/svg" xmlns:xlink="http://www.w3.org/1999/xlink" data-name="Layer 1"><linearGradient id="GradientFill_1" gradientUnits="userSpaceOnUse" x1="256" x2="256" y2="512"><stop offset="0" stop-color="#1fbbee"/><stop offset="1" stop-color="#4764af"/></linearGradient><path d="m256 0c-141.159 0-256 114.841-256 256s114.841 256 256 256 256-114.841 256-256-114.841-256-256-256zm141.772 235.037-63.6 63.6a16 16 0 1 1 -22.627-22.627l36.29-36.29h-94.135a112.283 112.283 0 0 0 -112.158 112.16 16 16 0 0 1 -32 0c0-79.488 64.668-144.156 144.156-144.156h94.135l-36.29-36.291a16 16 0 1 1 22.627-22.627l63.6 63.6a16 16 0 0 1 .002 22.631z" fill="url(#GradientFill_1)"/></svg>