<?xml version="1.0"?>
<svg xmlns="http://www.w3.org/2000/svg" xmlns:xlink="http://www.w3.org/1999/xlink" xmlns:svgjs="http://svgjs.com/svgjs" version="1.1" width="512" height="512" x="0" y="0" viewBox="0 0 512 512" style="enable-background:new 0 0 512 512" xml:space="preserve" class=""><g transform="matrix(1,0,0,-1,0,512)"><linearGradient xmlns="http://www.w3.org/2000/svg" id="GradientFill_1" gradientUnits="userSpaceOnUse" x1="256" x2="256" y2="512"><stop offset="0" stop-color="#1fbbee"/><stop offset="1" stop-color="#4764af"/></linearGradient><path xmlns="http://www.w3.org/2000/svg" d="m256 0c-141.159 0-256 114.841-256 256s114.841 256 256 256 256-114.841 256-256-114.841-256-256-256zm-63.575 181.462 52.262-52.262a16 16 0 0 1 22.626 0l52.262 52.261a16 16 0 0 1 -22.627 22.627l-24.948-24.947v136.807a16 16 0 0 1 -32 0v-136.807l-24.948 24.948a16 16 0 1 1 -22.627-22.627zm183.217 206.023h-239.284a16 16 0 0 1 0-32h239.284a16 16 0 0 1 0 32z" fill="url(#GradientFill_1)" data-original="url(#GradientFill_1)"/></g></svg>
