<svg height="512pt" viewBox="-45 0 511 512" width="512pt" xmlns="http://www.w3.org/2000/svg"><path d="m416.003906 83.183594-76.703125-76.703125c-4.148437-4.148438-9.777343-6.480469-15.644531-6.480469-6.515625 0-190.421875 0-200.203125 0-8.492187 0-15.375 6.882812-15.375 15.371094v56.167968h108.003906c5.863281 0 11.492188 2.332032 15.640625 6.480469l71.554688 71.550781c4.148437 4.148438 6.476562 9.777344 6.476562 15.644532v280.394531h97.355469c8.492187 0 15.375-6.882813 15.375-15.375 0-19.992187 0-311.09375 0-331.410156 0-5.867188-2.332031-11.492188-6.480469-15.640625zm0 0" fill="#8bcaff"/><path d="m334.179688 149.574219-71.550782-71.554688c-4.152344-4.148437-9.777344-6.480469-15.644531-6.480469-1.578125 0-13.539063 0-30.90625 0 5.867187 0 11.496094 2.332032 15.644531 6.480469l71.550782 71.554688c4.148437 4.148437 6.480468 9.773437 6.480468 15.640625v280.394531h30.90625c0-89.589844 0-264.796875 0-280.394531 0-5.867188-2.332031-11.492188-6.480468-15.640625zm0 0" fill="#60b8ff"/><path d="m154.355469 0c-16.820313 0-28.617188 0-30.902344 0-8.492187 0-15.375 6.882812-15.375 15.371094v56.167968h30.90625v-56.167968c0-8.488282 6.882813-15.371094 15.371094-15.371094zm0 0" fill="#60b8ff"/><g fill="#22a7ff"><path d="m354.734375 145.023438h-56.007813l4.546876 4.550781c4.148437 4.148437 6.480468 9.773437 6.480468 15.640625v2.59375h44.980469c6.289063 0 11.390625-5.101563 11.390625-11.390625 0-6.292969-5.101562-11.394531-11.390625-11.394531zm0 0"/><path d="m354.734375 196.445312h-44.980469v22.785157h44.980469c6.289063 0 11.390625-5.101563 11.390625-11.394531 0-6.289063-5.101562-11.390626-11.390625-11.390626zm0 0"/><path d="m354.734375 247.867188h-44.980469v22.785156h44.980469c6.289063 0 11.390625-5.101563 11.390625-11.394532 0-6.289062-5.101562-11.390624-11.390625-11.390624zm0 0"/><path d="m354.734375 299.289062h-44.980469v22.785157h44.980469c6.289063 0 11.390625-5.101563 11.390625-11.390625 0-6.292969-5.101562-11.394532-11.390625-11.394532zm0 0"/><path d="m354.734375 350.710938h-44.980469v22.785156h44.980469c6.289063 0 11.390625-5.101563 11.390625-11.390625 0-6.292969-5.101562-11.394531-11.390625-11.394531zm0 0"/><path d="m323.65625 0c5.867188 0 11.496094 2.332031 15.644531 6.480469l76.703125 76.703125c4.148438 4.148437 6.480469 9.773437 6.480469 15.640625v.425781h-87.046875c-6.738281 0-12.203125-5.464844-12.203125-12.203125v-87.046875zm0 0"/></g><path d="m354.140625 87.046875v-65.726563l-14.839844-14.839843c-4.148437-4.148438-9.777343-6.480469-15.644531-6.480469-.09375 0-.238281 0-.421875 0v87.046875c0 6.738281 5.464844 12.203125 12.203125 12.203125h30.902344c-6.734375 0-12.199219-5.464844-12.199219-12.203125zm0 0" fill="#0094fd"/><path d="m362.207031 147.832031c-2.003906 1.742188-4.613281 2.804688-7.472656 2.804688h-50.496094c3.53125 4.023437 5.515625 9.191406 5.515625 14.578125v2.59375h44.980469c6.289063 0 11.390625-5.101563 11.390625-11.394532 0-3.425781-1.523438-6.496093-3.917969-8.582031zm0 0" fill="#0094fd"/><path d="m362.207031 199.253906c-2.003906 1.742188-4.613281 2.804688-7.472656 2.804688h-44.980469v17.171875h44.980469c6.289063 0 11.390625-5.101563 11.390625-11.390625 0-3.429688-1.523438-6.5-3.917969-8.585938zm0 0" fill="#0094fd"/><path d="m362.207031 250.675781c-2.003906 1.742188-4.613281 2.804688-7.472656 2.804688h-44.980469v17.171875h44.980469c6.289063 0 11.390625-5.101563 11.390625-11.390625 0-3.433594-1.523438-6.5-3.917969-8.585938zm0 0" fill="#0094fd"/><path d="m362.207031 302.097656c-2.003906 1.742188-4.613281 2.804688-7.472656 2.804688h-44.980469v17.171875h44.980469c6.289063 0 11.390625-5.101563 11.390625-11.390625 0-3.429688-1.523438-6.496094-3.917969-8.585938zm0 0" fill="#0094fd"/><path d="m362.207031 353.519531c-2.003906 1.742188-4.613281 2.808594-7.472656 2.808594h-44.980469v17.167969h44.980469c6.289063 0 11.390625-5.101563 11.390625-11.390625 0-3.429688-1.523438-6.496094-3.917969-8.585938zm0 0" fill="#0094fd"/><path d="m15.871094 512h283.660156c8.492188 0 15.375-6.882812 15.375-15.371094 0-19.996094 0-311.09375 0-331.414062 0-5.867188-2.332031-11.492188-6.480469-15.640625l-76.703125-76.707031c-4.148437-4.148438-9.777344-6.476563-15.640625-6.476563-6.519531 0-190.425781 0-200.207031 0-8.492188 0-15.375 6.882813-15.375 15.371094v414.863281c0 8.492188 6.882812 15.375 15.371094 15.375zm0 0" fill="#d9edff"/><path d="m31.40625 496.628906v-414.867187c0-8.488281 6.882812-15.371094 15.371094-15.371094-16.820313 0-28.617188 0-30.90625 0-8.488282 0-15.371094 6.882813-15.371094 15.371094v414.863281c0 8.492188 6.882812 15.375 15.371094 15.375h30.90625c-8.488282 0-15.371094-6.882812-15.371094-15.371094zm0 0" fill="#b4dbff"/><path d="m216.078125 66.390625c5.867187 0 11.496094 2.332031 15.644531 6.476563l76.703125 76.707031c4.148438 4.148437 6.480469 9.773437 6.480469 15.640625v.421875h-87.046875c-6.738281 0-12.203125-5.460938-12.203125-12.203125v-87.042969zm0 0" fill="#b4dbff"/><path d="m246.5625 153.433594v-65.726563l-14.839844-14.839843c-4.148437-4.148438-9.777344-6.476563-15.644531-6.476563-.09375 0-.238281 0-.421875 0v87.042969c0 6.742187 5.460938 12.203125 12.203125 12.203125h30.902344c-6.738281 0-12.199219-5.460938-12.199219-12.203125zm0 0" fill="#8bcaff"/><path d="m247.152344 234.195312h-178.902344c-6.292969 0-11.390625-5.097656-11.390625-11.390624 0-6.289063 5.097656-11.390626 11.390625-11.390626h178.90625c6.289062 0 11.390625 5.101563 11.390625 11.390626 0 6.292968-5.101563 11.390624-11.394531 11.390624zm0 0" fill="#b4dbff"/><path d="m247.152344 285.621094h-178.902344c-6.292969 0-11.390625-5.101563-11.390625-11.394532 0-6.289062 5.097656-11.390624 11.390625-11.390624h178.90625c6.289062 0 11.390625 5.101562 11.390625 11.390624 0 6.292969-5.101563 11.394532-11.394531 11.394532zm0 0" fill="#b4dbff"/><path d="m247.152344 337.039062h-178.902344c-6.292969 0-11.390625-5.097656-11.390625-11.390624 0-6.289063 5.097656-11.390626 11.390625-11.390626h178.90625c6.289062 0 11.390625 5.101563 11.390625 11.390626 0 6.292968-5.101563 11.390624-11.394531 11.390624zm0 0" fill="#b4dbff"/><path d="m247.152344 388.464844h-178.902344c-6.292969 0-11.390625-5.101563-11.390625-11.394532 0-6.289062 5.097656-11.390624 11.390625-11.390624h178.90625c6.289062 0 11.390625 5.101562 11.390625 11.390624 0 6.292969-5.101563 11.394532-11.394531 11.394532zm0 0" fill="#b4dbff"/><path d="m247.152344 439.886719h-178.902344c-6.292969 0-11.390625-5.101563-11.390625-11.394531 0-6.289063 5.097656-11.390626 11.390625-11.390626h178.90625c6.289062 0 11.390625 5.101563 11.390625 11.390626 0 6.292968-5.101563 11.394531-11.394531 11.394531zm0 0" fill="#b4dbff"/><path d="m254.628906 214.21875c-2.003906 1.746094-4.613281 2.808594-7.476562 2.808594h-178.902344c-2.863281 0-5.472656-1.0625-7.472656-2.808594-2.398438 2.089844-3.917969 5.15625-3.917969 8.585938 0 6.292968 5.097656 11.390624 11.390625 11.390624h178.90625c6.289062 0 11.390625-5.097656 11.390625-11.390624 0-3.429688-1.523437-6.496094-3.917969-8.585938zm0 0" fill="#8bcaff"/><path d="m254.628906 265.644531c-2.003906 1.742188-4.613281 2.804688-7.476562 2.804688h-178.902344c-2.863281 0-5.472656-1.0625-7.472656-2.804688-2.398438 2.085938-3.917969 5.15625-3.917969 8.582031 0 6.292969 5.097656 11.394532 11.390625 11.394532h178.90625c6.289062 0 11.390625-5.101563 11.390625-11.394532 0-3.425781-1.523437-6.496093-3.917969-8.582031zm0 0" fill="#8bcaff"/><path d="m254.628906 317.066406c-2.003906 1.742188-4.613281 2.804688-7.476562 2.804688h-178.902344c-2.863281 0-5.472656-1.0625-7.472656-2.804688-2.398438 2.085938-3.917969 5.15625-3.917969 8.582032 0 6.292968 5.097656 11.394531 11.390625 11.394531h178.90625c6.289062 0 11.390625-5.101563 11.390625-11.394531 0-3.425782-1.523437-6.496094-3.917969-8.582032zm0 0" fill="#8bcaff"/><path d="m254.628906 368.488281c-2.003906 1.742188-4.613281 2.804688-7.476562 2.804688h-178.902344c-2.863281 0-5.472656-1.0625-7.472656-2.804688-2.398438 2.085938-3.917969 5.152344-3.917969 8.582031 0 6.292969 5.097656 11.394532 11.390625 11.394532h178.90625c6.289062 0 11.390625-5.101563 11.390625-11.394532 0-3.429687-1.523437-6.496093-3.917969-8.582031zm0 0" fill="#8bcaff"/><path d="m254.628906 419.910156c-2.003906 1.742188-4.613281 2.804688-7.476562 2.804688h-178.902344c-2.863281 0-5.472656-1.0625-7.472656-2.804688-2.398438 2.085938-3.917969 5.152344-3.917969 8.582032 0 6.292968 5.097656 11.394531 11.390625 11.394531h178.90625c6.289062 0 11.390625-5.101563 11.390625-11.394531 0-3.429688-1.523437-6.496094-3.917969-8.582032zm0 0" fill="#8bcaff"/></svg>