<svg id="Flat" height="512" viewBox="0 0 64 64" width="512" xmlns="http://www.w3.org/2000/svg"><path d="m40 10h-16a1 1 0 0 1 -1-1v-5a3.0033 3.0033 0 0 1 3-3h12a3.0033 3.0033 0 0 1 3 3v5a1 1 0 0 1 -1 1zm-15-2h14v-4a1.0009 1.0009 0 0 0 -1-1h-12a1.0009 1.0009 0 0 0 -1 1z" fill="#455378"/><path d="m48 63h-32l-5-47h42z" fill="#a5d743"/><path d="m49 16-4.574 43h-28.852l.426 4h32l5-47z" fill="#90c925"/><path d="m14 7h36a2 2 0 0 1 2 2v2a0 0 0 0 1 0 0h-40a0 0 0 0 1 0 0v-2a2 2 0 0 1 2-2z" fill="#a5d743"/><path d="m50 7h-4a2 2 0 0 1 2 2v2h4v-2a2 2 0 0 0 -2-2z" fill="#90c925"/><circle cx="48" cy="58" fill="#455378" r="5"/><circle cx="48" cy="58" fill="#d1dbe2" r="1"/><path d="m11 11h42a2 2 0 0 1 2 2v3a0 0 0 0 1 0 0h-46a0 0 0 0 1 0 0v-3a2 2 0 0 1 2-2z" fill="#b2e339"/><path d="m53 11h-4a2 2 0 0 1 2 2v3h4v-3a2 2 0 0 0 -2-2z" fill="#a5d743"/><g fill="#f4fbff"><path d="m29.7539 43h-4.2412a1.3058 1.3058 0 0 1 -1.1572-.6685 1.32 1.32 0 0 1 0-1.3364l1.1945-2.069.16.5439a1 1 0 0 0 1.9181-.5642l-.8181-2.7829a1 1 0 0 0 -1.1942-.69l-2.8194.6822a1 1 0 0 0 -.7365 1.2069 1 1 0 0 0 1.2067.7364l.5512-.1333-1.1948 2.07a3.31 3.31 0 0 0 .1458 3.5675 3.4878 3.4878 0 0 0 2.8948 1.4374h4.09a1 1 0 0 0 0-2z"/><path d="m41.3662 39.9951-2.121-3.6733a1 1 0 0 0 -1.3663-.3661 1 1 0 0 0 -.366 1.3662l2.121 3.673a1.32 1.32 0 0 1 0 1.3364 1.3058 1.3058 0 0 1 -1.1573.6687h-2.3894l.3911-.4106a1 1 0 0 0 -1.4483-1.3794l-2 2.1a1 1 0 0 0 0 1.3792l2 2.1a1 1 0 0 0 1.448-1.3792l-.3908-.41h2.2383a3.4879 3.4879 0 0 0 2.8945-1.4374 3.31 3.31 0 0 0 .1462-3.5675z"/><path d="m32.5889 32.4406a1 1 0 0 0 .7367 1.2072l2.8184.682a1 1 0 0 0 1.1944-.6894l.8194-2.7821a1 1 0 0 0 -.6768-1.2418 1 1 0 0 0 -1.2416.6768l-.16.5441-1.1939-2.0686a3.311 3.311 0 0 0 -3.1616-1.6588 3.48 3.48 0 0 0 -2.692 1.7839l-2.0475 3.5471a1 1 0 1 0 1.7324 1l2.12-3.6729a1.3367 1.3367 0 0 1 2.3154 0l1.1941 2.0686-.55-.1332a1 1 0 0 0 -1.2074.7371z"/></g></svg>