<?xml version="1.0" encoding="iso-8859-1"?>
<!-- Generator: Adobe Illustrator 18.1.1, SVG Export Plug-In . SVG Version: 6.00 Build 0)  -->
<svg version="1.1" id="Capa_1" xmlns="http://www.w3.org/2000/svg" xmlns:xlink="http://www.w3.org/1999/xlink" x="0px" y="0px"
	 viewBox="0 0 26.989 26.989" style="enable-background:new 0 0 26.989 26.989;" xml:space="preserve">
<g>
	<path fill="white" d="M0.616,2.148v22.695c0,1.186,0.959,2.146,2.145,2.146h21.467c1.184,0,2.146-0.961,2.146-2.146V2.148
		C26.374,0.967,25.41,0,24.227,0H2.761C1.575,0,0.616,0.967,0.616,2.148z M8.778,20.824c0,1.531-1.242,2.779-2.777,2.779
		c-1.533,0-2.777-1.248-2.777-2.779c0-1.533,1.244-2.779,2.777-2.779C7.536,18.045,8.778,19.291,8.778,20.824z M23.695,5.598
		c0,1.535-1.242,2.777-2.777,2.777c-1.533,0-2.779-1.242-2.779-2.777c0-1.533,1.246-2.777,2.779-2.777
		C22.453,2.82,23.695,4.064,23.695,5.598z M16.27,13.496c0,1.535-1.242,2.779-2.777,2.779c-1.531,0-2.777-1.244-2.777-2.779
		c0-1.533,1.246-2.777,2.777-2.777C15.028,10.719,16.27,11.963,16.27,13.496z"/>
	<g>
	</g>
	<g>
	</g>
	<g>
	</g>
	<g>
	</g>
	<g>
	</g>
	<g>
	</g>
	<g>
	</g>
	<g>
	</g>
	<g>
	</g>
	<g>
	</g>
	<g>
	</g>
	<g>
	</g>
	<g>
	</g>
	<g>
	</g>
	<g>
	</g>
</g>
<g>
</g>
<g>
</g>
<g>
</g>
<g>
</g>
<g>
</g>
<g>
</g>
<g>
</g>
<g>
</g>
<g>
</g>
<g>
</g>
<g>
</g>
<g>
</g>
<g>
</g>
<g>
</g>
<g>
</g>
</svg>
