<?xml version="1.0" encoding="iso-8859-1"?>
<!-- Generator: Adobe Illustrator 19.0.0, SVG Export Plug-In . SVG Version: 6.00 Build 0)  -->
<svg version="1.1" id="Capa_1" xmlns="http://www.w3.org/2000/svg" xmlns:xlink="http://www.w3.org/1999/xlink" x="0px" y="0px"
	 viewBox="0 0 512.001 512.001" style="enable-background:new 0 0 512.001 512.001;" xml:space="preserve">
<g>
	<path style="fill:#DD9F3A;" d="M369.384,138.014v47.429c0,12.935-10.485,23.42-23.42,23.42H65.489
		c-12.935,0-23.42-10.485-23.42-23.42v-47.429c0-12.925,10.485-23.41,23.42-23.41h280.474
		C358.899,114.604,369.384,125.089,369.384,138.014z"/>
	<path style="fill:#DD9F3A;" d="M327.315,232.281v47.429c0,12.935-10.485,23.42-23.42,23.42H23.42C10.485,303.13,0,292.645,0,279.71
		v-47.429c0-12.925,10.485-23.41,23.42-23.41h280.474C316.83,208.871,327.315,219.356,327.315,232.281z"/>
	<path style="fill:#DD9F3A;" d="M343.091,326.546v47.429c0,12.935-10.485,23.42-23.42,23.42H39.196
		c-12.935,0-23.42-10.485-23.42-23.42v-47.429c0-12.925,10.485-23.41,23.42-23.41H319.67
		C332.606,303.136,343.091,313.621,343.091,326.546z"/>
	<path style="fill:#DD9F3A;" d="M327.315,420.813v47.429c0,12.935-10.485,23.42-23.42,23.42H23.42
		c-12.935,0-23.42-10.485-23.42-23.42v-47.429c0-12.925,10.485-23.41,23.42-23.41h280.474
		C316.83,397.403,327.315,407.888,327.315,420.813z"/>
</g>
<path id="SVGCleanerId_0" style="fill:#F4B74A;" d="M327.317,420.814v32.706c0,12.094-9.17,22.053-20.938,23.294
	c-0.82,0.084-1.641,0.126-2.482,0.126H81.063c-12.925,0-23.41-10.485-23.41-23.42v-32.706c0-12.925,10.485-23.41,23.41-23.41
	h222.834C316.832,397.404,327.317,407.889,327.317,420.814z"/>
<g>
	<path id="SVGCleanerId_0_1_" style="fill:#F4B74A;" d="M327.317,420.814v32.706c0,12.094-9.17,22.053-20.938,23.294
		c-0.82,0.084-1.641,0.126-2.482,0.126H81.063c-12.925,0-23.41-10.485-23.41-23.42v-32.706c0-12.925,10.485-23.41,23.41-23.41
		h222.834C316.832,397.404,327.317,407.889,327.317,420.814z"/>
</g>
<g>
	<path style="fill:#F4B74A;" d="M327.316,326.545v32.706c0,12.094-9.17,22.053-20.938,23.294c-0.82,0.084-1.641,0.126-2.482,0.126
		H81.062c-12.925,0-23.41-10.485-23.41-23.42v-32.706c0-12.925,10.485-23.41,23.41-23.41h222.834
		C316.832,303.134,327.316,313.619,327.316,326.545z"/>
	<path style="fill:#F4B74A;" d="M327.316,232.286v32.706c0,12.094-9.17,22.053-20.938,23.294c-0.82,0.084-1.641,0.126-2.482,0.126
		H81.062c-12.925,0-23.41-10.485-23.41-23.42v-32.706c0-12.925,10.485-23.41,23.41-23.41h222.834
		C316.832,208.876,327.316,219.361,327.316,232.286z"/>
	<path style="fill:#F4B74A;" d="M369.382,138.016v32.706c0,12.094-9.17,22.053-20.938,23.294c-0.82,0.084-1.641,0.126-2.482,0.126
		H123.128c-12.925,0-23.41-10.485-23.41-23.42v-32.706c0-12.925,10.485-23.41,23.41-23.41h222.834
		C358.898,114.606,369.382,125.091,369.382,138.016z"/>
</g>
<g>
	<path style="fill:#DD9F3A;" d="M327.316,420.815v47.429c0,12.094-9.17,22.053-20.938,23.294c-2.135,0.084-4.27,0.126-6.405,0.126
		c-22.631,0-45.263-4.659-66.338-13.997c-14.145-6.257-27.564-14.628-39.826-25.092c-3.281-2.797-6.457-5.742-9.559-8.834
		c-13.85-13.85-24.693-29.562-32.538-46.336h152.184C316.831,397.405,327.316,407.89,327.316,420.815z"/>
	<path style="fill:#DD9F3A;" d="M327.316,326.545v47.429c0,12.935-10.485,23.42-23.42,23.42h-136.43
		c-13.85-29.604-18.351-62.51-13.493-94.259h149.923C316.831,303.134,327.316,313.62,327.316,326.545z"/>
	<path style="fill:#DD9F3A;" d="M327.315,43.747v47.429c0,12.935-10.485,23.42-23.42,23.42H23.42C10.485,114.597,0,104.112,0,91.177
		V43.747c0-12.925,10.485-23.41,23.42-23.41h280.474C316.83,20.338,327.315,30.823,327.315,43.747z"/>
</g>
<path style="fill:#F4B74A;" d="M327.317,43.745v32.706c0,12.094-9.17,22.053-20.938,23.294c-0.82,0.084-1.641,0.126-2.482,0.126
	H81.063c-12.925,0-23.41-10.485-23.41-23.42V43.745c0-12.925,10.485-23.41,23.41-23.41h222.834
	C316.832,20.336,327.317,30.821,327.317,43.745z"/>
<g>
	<rect x="254.467" y="20.336" style="fill:#F9C662;" width="34.347" height="79.536"/>
	<rect x="212.054" y="20.336" style="fill:#F9C662;" width="17.173" height="79.536"/>
	<rect x="295.839" y="114.609" style="fill:#F9C662;" width="34.351" height="94.27"/>
	<rect x="253.416" y="114.609" style="fill:#F9C662;" width="17.176" height="94.27"/>
</g>
<g>
	<path style="fill:#DD9F3A;" d="M369.382,170.123v15.323c0,12.935-10.485,23.42-23.42,23.42H214.074
		C256.866,168.523,316.074,155.61,369.382,170.123z"/>
	<path style="fill:#DD9F3A;" d="M327.316,232.286v47.429c0,12.935-10.485,23.42-23.42,23.42H138.198
		c5.079-33.253,20.434-65.234,46.041-90.841c1.167-1.167,2.345-2.303,3.534-3.418h116.123
		C316.831,208.876,327.316,219.361,327.316,232.286z"/>
</g>
<path style="fill:#F4B74A;" d="M464.071,443.735c-49.228,49.219-122.001,60.534-182.056,33.929
	c-14.144-6.259-27.57-14.622-39.826-25.088c-3.282-2.795-6.466-5.748-9.567-8.841c-63.908-63.916-63.908-167.533,0-231.449
	c63.916-63.908,167.533-63.908,231.449,0c3.101,3.101,6.045,6.285,8.841,9.567c10.466,12.247,18.829,25.681,25.088,39.826
	C524.605,321.726,513.29,394.508,464.071,443.735z"/>
<path style="fill:#F9C662;" d="M497.999,261.679L282.015,477.664c-14.144-6.259-27.57-14.622-39.826-25.088l230.723-230.723
	C483.377,234.1,491.74,247.535,497.999,261.679z"/>
<path style="fill:#FFD488;" d="M464.07,328.011c0,63.912-51.812,115.723-115.723,115.723c-36.077,0-68.293-16.503-89.52-42.38
	c-16.38-19.964-26.203-45.507-26.203-73.343c0-63.912,51.812-115.723,115.723-115.723c27.842,0,53.386,9.837,73.349,26.218
	C447.566,259.724,464.07,291.942,464.07,328.011z"/>
<path style="fill:#F9C662;" d="M421.696,238.505L258.841,401.36l-0.015-0.007c-4.781-5.825-9.003-12.13-12.579-18.826
	c-4.077-7.61-7.319-15.72-9.619-24.23c-2.611-9.655-4.005-19.812-4.005-30.287c0-63.912,51.812-115.723,115.723-115.723
	c10.483,0,20.639,1.392,30.287,4.005c8.51,2.3,16.62,5.55,24.23,9.627C409.56,229.496,415.864,233.725,421.696,238.505z"/>
<path style="fill:#FFD488;" d="M402.864,225.919L246.248,382.528c-4.077-7.61-7.319-15.72-9.619-24.23l142.006-142.006
	C387.143,218.592,395.254,221.842,402.864,225.919z"/>
<g>
	<path style="fill:#E0A33F;" d="M356.234,320.753v-43.436c11.5,2.68,19.915,11.056,19.915,20.953c0,4.356,3.53,7.887,7.887,7.887
		s7.887-3.531,7.887-7.887c0-18.423-15.415-33.784-35.69-36.999v-4.639c0-4.356-3.53-7.887-7.887-7.887s-7.887,3.531-7.887,7.887
		v4.639c-20.275,3.216-35.691,18.577-35.691,36.999c0,18.422,15.416,33.784,35.691,36.999v43.436
		c-11.5-2.68-19.916-11.056-19.916-20.953c0-4.356-3.53-7.887-7.887-7.887c-4.357,0-7.887,3.531-7.887,7.887
		c0,18.423,15.416,33.784,35.691,36.999v4.639c0,4.356,3.53,7.887,7.887,7.887s7.887-3.531,7.887-7.887v-4.639
		c20.275-3.215,35.69-18.577,35.69-36.999S376.509,323.969,356.234,320.753z M320.544,298.269c0-9.897,8.415-18.273,19.916-20.953
		v41.906C328.96,316.543,320.544,308.166,320.544,298.269z M356.234,378.705v-41.906c11.5,2.68,19.915,11.056,19.915,20.953
		S367.734,376.025,356.234,378.705z"/>
	<path style="fill:#E0A33F;" d="M348.347,451.622c-37.169,0-72.02-16.498-95.619-45.266c-18.05-21.999-27.992-49.823-27.992-78.345
		c0-68.159,55.452-123.611,123.611-123.611c28.514,0,56.34,9.947,78.353,28.007c28.762,23.592,45.257,58.438,45.257,95.603
		C471.956,396.17,416.506,451.622,348.347,451.622z M348.347,220.175c-59.461,0-107.836,48.375-107.836,107.836
		c0,24.882,8.67,49.153,24.413,68.339c20.59,25.101,50.996,39.497,83.423,39.497c59.46,0,107.835-48.375,107.835-107.836
		c0-32.422-14.393-62.823-39.488-83.407C397.496,228.85,373.222,220.175,348.347,220.175z"/>
</g>
<g>
</g>
<g>
</g>
<g>
</g>
<g>
</g>
<g>
</g>
<g>
</g>
<g>
</g>
<g>
</g>
<g>
</g>
<g>
</g>
<g>
</g>
<g>
</g>
<g>
</g>
<g>
</g>
<g>
</g>
</svg>
