<svg viewBox="0 -28 512.00001 512" xmlns="http://www.w3.org/2000/svg"><path d="m512 153.867188c0 43.292968-16.132812 82.941406-50.773438 124.734374-30.996093 37.398438-75.53125 75.355469-127.113281 119.308594-17.625 15.015625-37.597656 32.039063-58.320312 50.171875-5.429688 4.75-12.386719 7.386719-19.613281 7.429688h-.179688c-7.289062 0-14.316406-2.640625-19.792969-7.4375-20.683593-18.085938-40.625-35.089844-58.21875-50.085938l-.089843-.066406c-51.574219-43.957031-96.128907-81.921875-127.117188-119.320313-34.648438-41.792968-50.78125-81.441406-50.78125-124.734374 0-42.066407 14.425781-80.882813 40.617188-109.292969 26.507812-28.75 62.875-44.574219 102.414062-44.574219 29.558594 0 56.617188 9.335938 80.449219 27.761719 12.027343 9.304687 22.921875 20.679687 32.519531 33.964843l.179688-.238281c9.558593-13.183593 20.394531-24.480469 32.347656-33.726562 23.824218-18.425781 50.894531-27.761719 80.441406-27.761719 39.546875 0 75.914062 15.824219 102.414062 44.574219 26.191407 28.410156 40.617188 67.214843 40.617188 109.292969zm0 0" fill="#ff5e95"/><path d="m512 153.867188c0 43.292968-16.132812 82.941406-50.773438 124.734374-30.996093 37.398438-75.53125 75.355469-127.113281 119.308594-17.625 15.015625-37.597656 32.039063-58.320312 50.171875-5.429688 4.75-12.386719 7.386719-19.613281 7.429688v-394.023438c9.558593-13.183593 20.394531-24.480469 32.347656-33.726562 23.824218-18.425781 50.894531-27.761719 80.441406-27.761719 39.546875 0 75.914062 15.824219 102.414062 44.574219 26.191407 28.410156 40.617188 67.214843 40.617188 109.292969zm0 0" fill="#ff3980"/></svg>