<svg id="Layer_1" height="512" viewBox="0 0 512 512" width="512" xmlns="http://www.w3.org/2000/svg" xmlns:xlink="http://www.w3.org/1999/xlink" data-name="Layer 1"><linearGradient id="GradientFill_1" gradientUnits="userSpaceOnUse" x1="256" x2="256" y2="512"><stop offset="0" stop-color="#1fbbee"/><stop offset="1" stop-color="#4764af"/></linearGradient><path d="m256 0c-141.159 0-256 114.841-256 256s114.841 256 256 256 256-114.841 256-256-114.841-256-256-256zm92.452 322.36-81.139 81.14a16 16 0 0 1 -22.626 0l-81.139-81.14a16 16 0 0 1 22.627-22.627l53.825 53.823v-233.739a16 16 0 0 1 32 0v233.739l53.825-53.823a16 16 0 0 1 22.627 22.627z" fill="url(#GradientFill_1)"/></svg>