<?xml version="1.0" encoding="iso-8859-1"?>
<svg version="1.1" xmlns="http://www.w3.org/2000/svg" xmlns:xlink="http://www.w3.org/1999/xlink" x="0px" y="0px"
	 viewBox="0 0 286.036 286.036" style="enable-background:new 0 0 286.036 286.036;" xml:space="preserve">
<g>
	<path style="fill:#39B29D;" d="M231.641,113.009c-3.924-40.789-37.884-72.792-79.684-72.792c-32.36,0-60.053,19.201-72.819,46.752
		c-3.853-1.225-7.849-2.056-12.095-2.056c-22.214,0-40.226,18.021-40.226,40.226c0,4.416,0.885,8.591,2.199,12.551
		C11.728,147.765,0,166.26,0,187.696c0,32.092,26.013,58.105,58.105,58.105v0.018H219.01v-0.018
		c37.035,0,67.026-30.009,67.026-67.044C286.027,146.075,262.615,118.927,231.641,113.009z M185.64,170.935l-33.799,33.316
		c-6.821,6.838-11.022,6.615-17.646,0l-33.799-33.316c-4.845-7.911-0.885-14.383,8.823-14.383h15.921v-35.864
		c0-4.943,4.005-8.957,8.939-8.957h17.878c4.943,0,8.939,4.014,8.939,8.957v35.864h15.903
		C186.507,156.552,190.494,163.024,185.64,170.935z"/>
</g>
</svg>
