<svg id="bold" enable-background="new 0 0 24 24" height="512" viewBox="0 0 24 24" width="512" xmlns="http://www.w3.org/2000/svg"><path d="m12 23c-.206 0-.402-.084-.544-.233l-4.75-5c-.206-.217-.264-.537-.146-.813s.39-.454.69-.454h2.25v-4.25c0-.689.561-1.25 1.25-1.25h2.5c.689 0 1.25.561 1.25 1.25v4.25h2.25c.3 0 .571.179.689.454s.061.595-.146.813l-4.75 5c-.141.149-.337.233-.543.233z"/><path d="m18.673 4.927c-1.312-2.399-3.884-3.927-6.673-3.927-3.545 0-6.62 2.465-7.397 5.829-2.584.272-4.603 2.442-4.603 5.071 0 2.597 1.979 4.723 4.518 5.037.03-.261.097-.521.205-.771.429-1 1.329-1.666 2.777-1.666v-2.25c0-1.792 1.458-3.25 3.25-3.25h2.5c1.792 0 3.25 1.458 3.25 3.25v2.25c1.438 0 2.345.656 2.777 1.666.087.202.141.411.177.622 2.614-.695 4.546-3.053 4.546-5.855 0-3.066-2.307-5.625-5.327-6.006z"/></svg>