<?xml version="1.0" encoding="iso-8859-1"?>
<!-- Generator: Adobe Illustrator 19.0.0, SVG Export Plug-In . SVG Version: 6.00 Build 0)  -->
<svg version="1.1" id="Layer_1" xmlns="http://www.w3.org/2000/svg" xmlns:xlink="http://www.w3.org/1999/xlink" x="0px" y="0px"
	 viewBox="0 0 492 492" style="enable-background:new 0 0 492 492;" xml:space="preserve">
<g>
	<g>
                <path fill="white" d="M246,0C110.356,0,0,110.352,0,246s110.356,246,246,246c135.648,0,246-110.352,246-246S381.648,0,246,0z M353.78,296.076
			l-94.376,94.376c-3.604,3.604-8.432,5.592-13.592,5.592l-0.064,3.844l0.012-3.844c-0.004,0.004-0.064,0.004-0.068,0.004
			c-5.16,0-9.988-1.988-13.596-5.592l-94.344-94.348c-7.496-7.496-7.496-19.692,0-27.184l16.12-16.128
			c3.608-3.608,8.4-5.6,13.476-5.6c5.076,0,9.868,1.992,13.468,5.592l27.852,28.084c1.092,1.108,2.752,1.44,4.192,0.848
			c1.44-0.592,2.38-1.996,2.38-3.556v-159.04c0-10.42,9.016-19.224,19.688-19.224h22.804c10.488,0,19.024,8.62,19.024,19.224v157.88
			c0,1.556,0.932,2.956,2.368,3.552c1.436,0.588,3.088,0.264,4.192-0.828l27.06-26.96c3.612-3.612,8.448-5.604,13.616-5.604
			c5.168,0,10.004,1.992,13.616,5.608l16.148,16.12c3.616,3.616,5.608,8.444,5.612,13.592
			C359.372,287.64,357.388,292.464,353.78,296.076z"/>
	</g>
</g>
<g>
</g>
<g>
</g>
<g>
</g>
<g>
</g>
<g>
</g>
<g>
</g>
<g>
</g>
<g>
</g>
<g>
</g>
<g>
</g>
<g>
</g>
<g>
</g>
<g>
</g>
<g>
</g>
<g>
</g>
</svg>
