<?xml version="1.0" encoding="iso-8859-1"?>
<!-- Generator: Adobe Illustrator 19.0.0, SVG Export Plug-In . SVG Version: 6.00 Build 0)  -->
<svg version="1.1" id="Capa_1" xmlns="http://www.w3.org/2000/svg" xmlns:xlink="http://www.w3.org/1999/xlink" x="0px" y="0px"
	 viewBox="0 0 511.999 511.999" style="enable-background:new 0 0 511.999 511.999;" xml:space="preserve">
<path style="fill:#E2AE83;" d="M319.009,332.976c-1.12,0.609-2.35,0.898-3.57,0.898c-1.94,0-3.86-0.75-5.3-2.189l-51.94-51.939
	c-1.42-1.42-2.2-3.34-2.2-5.311c0,1.971-0.78,3.891-2.2,5.311l-51.94,51.939c-1.44,1.439-3.36,2.189-5.3,2.189
	c-1.22,0-2.45-0.289-3.57-0.898L63.5,262.792v141.686c-0.001,0.26,0.012,0.518,0.038,0.773c0.011,0.109,0.032,0.215,0.047,0.322
	c0.019,0.131,0.034,0.262,0.06,0.391c0.032,0.164,0.076,0.322,0.118,0.48c0.02,0.074,0.035,0.148,0.057,0.221
	c0.049,0.162,0.108,0.318,0.167,0.475c0.026,0.07,0.048,0.141,0.077,0.211c0.058,0.141,0.125,0.277,0.191,0.414
	c0.041,0.084,0.078,0.168,0.122,0.252c0.06,0.111,0.126,0.219,0.191,0.326c0.062,0.103,0.121,0.207,0.187,0.309
	c0.055,0.084,0.117,0.162,0.176,0.242c0.085,0.119,0.169,0.236,0.261,0.35c0.051,0.063,0.108,0.121,0.161,0.182
	c0.106,0.123,0.212,0.244,0.326,0.359c0.06,0.061,0.124,0.115,0.186,0.172c0.114,0.108,0.226,0.215,0.347,0.315
	c0.117,0.098,0.241,0.185,0.363,0.275c0.072,0.053,0.139,0.109,0.213,0.16c0.215,0.145,0.438,0.279,0.668,0.404l184.976,99.986
	c1.114,0.602,2.34,0.902,3.567,0.902c1.227,0,2.454-0.301,3.566-0.902l184.976-99.986c0.23-0.125,0.453-0.26,0.668-0.404
	c0.074-0.051,0.142-0.107,0.213-0.16c0.123-0.09,0.247-0.178,0.363-0.275c0.121-0.1,0.233-0.207,0.347-0.315
	c0.061-0.057,0.126-0.111,0.185-0.172c0.114-0.115,0.22-0.236,0.326-0.359c0.053-0.061,0.11-0.119,0.161-0.182
	c0.092-0.113,0.176-0.23,0.261-0.35c0.059-0.08,0.121-0.158,0.176-0.242c0.066-0.102,0.125-0.205,0.187-0.309
	c0.065-0.108,0.132-0.215,0.191-0.326c0.044-0.084,0.081-0.168,0.122-0.252c0.066-0.137,0.133-0.273,0.191-0.414
	c0.029-0.07,0.051-0.141,0.077-0.211c0.059-0.156,0.118-0.313,0.167-0.475c0.022-0.072,0.037-0.147,0.057-0.221
	c0.042-0.158,0.086-0.316,0.118-0.48c0.026-0.129,0.041-0.26,0.06-0.391c0.015-0.107,0.037-0.213,0.047-0.322
	c0.026-0.256,0.039-0.514,0.038-0.773V262.792L319.009,332.976z"/>
<path style="fill:#C48D69;" d="M252.069,66.044c2.08-1.119,3.51-3.17,3.85-5.51c0.05-0.359,0.08-0.719,0.08-1.08
	c0,0.361,0.03,0.721,0.08,1.07c0.34,2.34,1.77,4.381,3.85,5.51l185,100c1.13,0.611,2.35,0.9,3.57,0.9c-1.22,0-2.44,0.301-3.57,0.91
	l-185,100c-2.08,1.121-3.51,3.17-3.85,5.51c-0.05,0.361-0.08,0.721-0.08,1.08c0-0.359-0.03-0.719-0.08-1.08
	c-0.34-2.34-1.77-4.389-3.85-5.51l-185-100c-0.99-0.529-2.05-0.83-3.11-0.9c1.06-0.07,2.12-0.369,3.11-0.9L252.069,66.044z"/>
<path style="fill:#D39C72;" d="M507.359,106.406c0.34,2.34-0.43,4.699-2.1,6.379l-51.44,51.932c-1.44,1.459-3.37,2.219-5.32,2.219
	c-1.22,0-2.44-0.289-3.57-0.9l-185-100c-2.08-1.129-3.51-3.17-3.85-5.51c-0.05-0.35-0.08-0.709-0.08-1.07c0-0.01,0-0.01,0-0.02
	c0-1.969,0.78-3.891,2.2-5.299l51.94-51.941c2.34-2.35,5.95-2.869,8.87-1.289l184.5,100
	C505.589,102.025,507.009,104.066,507.359,106.406z"/>
<path style="fill:#F2C397;" d="M505.259,221.095c1.67,1.68,2.44,4.041,2.1,6.381c-0.35,2.33-1.77,4.369-3.85,5.5l-184.5,100
	c-1.12,0.609-2.35,0.898-3.57,0.898c-1.94,0-3.86-0.75-5.3-2.189l-51.94-51.939c-1.42-1.42-2.2-3.34-2.2-5.311
	c0-0.359,0.03-0.719,0.08-1.08c0.34-2.34,1.77-4.389,3.85-5.51l185-100c1.13-0.609,2.35-0.91,3.57-0.91c1.95,0,3.88,0.77,5.32,2.221
	L505.259,221.095z"/>
<g>
	<path style="fill:#E2AE83;" d="M505.259,221.095l-51.44-51.939c-1.44-1.451-3.37-2.221-5.32-2.221c-1.22,0-2.44,0.301-3.57,0.91
		l-19.532,10.564c1.13-0.609,2.35-0.91,3.57-0.91c1.95,0,3.88,0.77,5.32,2.221l51.44,51.939c1.67,1.68,2.441,4.041,2.1,6.381
		c-0.35,2.33-1.77,4.369-3.85,5.5l19.532-10.564c2.08-1.131,3.5-3.17,3.85-5.5C507.699,225.136,506.929,222.775,505.259,221.095z"/>
	<path style="fill:#E2AE83;" d="M255.999,59.435c0,0.01,0,0.01,0,0.02c0,0.361-0.03,0.721-0.08,1.08
		c-0.34,2.34-1.77,4.391-3.85,5.51l-185,100c-0.99,0.531-2.05,0.83-3.11,0.9c-0.21-0.01-0.43-0.01-0.64,0
		c-1.89-0.039-3.74-0.799-5.14-2.209l-51.44-51.942c-1.67-1.68-2.44-4.039-2.1-6.379c0.35-2.33,1.77-4.371,3.85-5.5l184.5-100
		c2.92-1.58,6.53-1.051,8.87,1.289l51.94,51.941C255.219,55.566,255.989,57.476,255.999,59.435z"/>
</g>
<path style="fill:#FFD2A6;" d="M255.919,273.355c0.05,0.361,0.08,0.721,0.08,1.08c0,1.971-0.78,3.891-2.2,5.311l-51.94,51.939
	c-1.44,1.439-3.36,2.189-5.3,2.189c-1.22,0-2.45-0.289-3.57-0.898l-184.5-100c-2.08-1.131-3.5-3.17-3.85-5.5
	c-0.34-2.34,0.43-4.701,2.1-6.381l51.44-51.939c1.4-1.41,3.25-2.17,5.14-2.211c0.06,0.01,0.12,0.01,0.18,0.01
	c0.15,0,0.3,0,0.46-0.01c1.06,0.07,2.12,0.371,3.11,0.9l185,100C254.149,268.966,255.579,271.015,255.919,273.355z"/>
<path style="fill:#E2AE83;" d="M63.959,166.945c-0.16,0.01-0.31,0.01-0.46,0.01c-0.06,0-0.12,0-0.18-0.01
	C63.529,166.935,63.749,166.935,63.959,166.945z"/>
<path style="fill:#D39C72;" d="M446.332,263.966c-0.098,0.188-0.199,0.258-0.302,0.164h-0.001l-27.534,14.924v141.675
	c0,0.26-0.012,0.518-0.038,0.773c-0.011,0.109-0.032,0.215-0.047,0.322c-0.019,0.131-0.034,0.262-0.06,0.391
	c-0.032,0.164-0.076,0.322-0.118,0.48c-0.02,0.074-0.035,0.148-0.057,0.221c-0.049,0.162-0.108,0.318-0.167,0.475
	c-0.026,0.07-0.048,0.141-0.077,0.211c-0.058,0.141-0.125,0.277-0.191,0.414c-0.04,0.084-0.078,0.168-0.122,0.252
	c-0.06,0.111-0.126,0.219-0.191,0.326c-0.061,0.104-0.121,0.207-0.187,0.309c-0.055,0.084-0.117,0.162-0.176,0.242
	c-0.085,0.119-0.169,0.236-0.261,0.35c-0.051,0.063-0.108,0.121-0.161,0.182c-0.107,0.123-0.212,0.244-0.326,0.359
	c-0.06,0.061-0.124,0.115-0.185,0.172c-0.114,0.107-0.226,0.215-0.347,0.314c-0.117,0.098-0.241,0.186-0.363,0.275
	c-0.072,0.053-0.139,0.109-0.213,0.16c-0.049,0.032-0.102,0.06-0.151,0.092l29.486-15.939c0.23-0.125,0.453-0.26,0.668-0.404
	c0.074-0.051,0.142-0.107,0.213-0.16c0.123-0.09,0.247-0.178,0.363-0.275c0.121-0.1,0.233-0.207,0.347-0.315
	c0.061-0.057,0.126-0.111,0.185-0.172c0.114-0.115,0.22-0.236,0.326-0.359c0.053-0.061,0.11-0.119,0.161-0.182
	c0.092-0.113,0.176-0.23,0.261-0.35c0.059-0.08,0.121-0.158,0.176-0.242c0.066-0.102,0.125-0.205,0.187-0.309
	c0.065-0.108,0.132-0.215,0.191-0.326c0.044-0.084,0.081-0.168,0.122-0.252c0.066-0.137,0.133-0.273,0.191-0.414
	c0.029-0.07,0.051-0.141,0.077-0.211c0.059-0.156,0.118-0.313,0.167-0.475c0.022-0.072,0.037-0.147,0.057-0.221
	c0.042-0.158,0.086-0.316,0.118-0.48c0.026-0.129,0.041-0.26,0.06-0.391c0.015-0.107,0.037-0.213,0.047-0.322
	c0.026-0.256,0.039-0.514,0.038-0.773V262.792L446.332,263.966z"/>
<path style="fill:#F2C397;" d="M253.799,279.746l-51.94,51.939c-1.44,1.439-3.36,2.189-5.3,2.189c-1.22,0-2.45-0.289-3.57-0.898
	L63.5,262.792v141.686c-0.001,0.26,0.012,0.518,0.038,0.773c0.011,0.109,0.032,0.215,0.047,0.322
	c0.019,0.131,0.034,0.262,0.06,0.391c0.032,0.164,0.076,0.322,0.118,0.48c0.02,0.074,0.035,0.148,0.057,0.221
	c0.049,0.162,0.108,0.318,0.167,0.475c0.026,0.07,0.048,0.141,0.077,0.211c0.058,0.141,0.125,0.277,0.191,0.414
	c0.041,0.084,0.078,0.168,0.122,0.252c0.06,0.111,0.126,0.219,0.191,0.326c0.062,0.103,0.121,0.207,0.187,0.309
	c0.055,0.084,0.117,0.162,0.176,0.242c0.085,0.119,0.169,0.236,0.261,0.35c0.051,0.063,0.108,0.121,0.161,0.182
	c0.106,0.123,0.212,0.244,0.326,0.359c0.06,0.061,0.124,0.115,0.186,0.172c0.114,0.108,0.226,0.215,0.347,0.315
	c0.117,0.098,0.241,0.185,0.363,0.275c0.072,0.053,0.139,0.109,0.213,0.16c0.215,0.145,0.438,0.279,0.668,0.404l184.976,99.986
	c1.114,0.602,2.34,0.902,3.567,0.902V274.435C255.999,276.406,255.219,278.326,253.799,279.746z"/>
<g>
</g>
<g>
</g>
<g>
</g>
<g>
</g>
<g>
</g>
<g>
</g>
<g>
</g>
<g>
</g>
<g>
</g>
<g>
</g>
<g>
</g>
<g>
</g>
<g>
</g>
<g>
</g>
<g>
</g>
</svg>
