<svg xmlns="http://www.w3.org/2000/svg" version="1.1" xmlns:xlink="http://www.w3.org/1999/xlink" x="0" y="0" viewBox="0 0 32 32" style="enable-background:new 0 0 512 512" xml:space="preserve" class=""><g><path fill="#49d23d" d="M27 15h-2v-5a3 3 0 0 0-3-3h-5V5a4 4 0 0 0-8 0v2H4a3 3 0 0 0-3 3v6a1 1 0 0 0 1 1h3a2 2 0 0 1 0 4H2a1 1 0 0 0-1 1v6a3 3 0 0 0 3 3h6a1 1 0 0 0 1-1v-3a2 2 0 0 1 4 0v3a1 1 0 0 0 1 1h6a3 3 0 0 0 3-3v-5h2a4 4 0 0 0 0-8z" opacity="1" data-original="#ffc661" class=""></path><path fill="#2ba357" d="M27 15h-2v-5a3 3 0 0 0-3-3h-5V5a4 4 0 0 0-4-4 4 4 0 0 0-2.81 1.16A4.12 4.12 0 0 1 11.25 2a4 4 0 0 1 4 4v2h5a3 3 0 0 1 3 3v5h2a4 4 0 0 1 2.81 6.84A4 4 0 0 0 27 15z" opacity="1" data-original="#f7b54b" class=""></path></g></svg>