<?xml version="1.0" encoding="iso-8859-1"?>
<!-- Generator: Adobe Illustrator 19.0.0, SVG Export Plug-In . SVG Version: 6.00 Build 0)  -->
<svg version="1.1" id="Capa_1" xmlns="http://www.w3.org/2000/svg" xmlns:xlink="http://www.w3.org/1999/xlink" x="0px" y="0px"
	 viewBox="0 0 60 60" style="enable-background:new 0 0 60 60;" xml:space="preserve">
<g>
	<path d="M55.563,29.174l-22-15c-0.306-0.208-0.703-0.231-1.03-0.058C32.205,14.289,32,14.629,32,15v13.108L11.563,14.174
		c-0.306-0.208-0.703-0.231-1.03-0.058C10.205,14.289,10,14.629,10,15v30c0,0.371,0.205,0.711,0.533,0.884
		C10.68,45.962,10.84,46,11,46c0.197,0,0.395-0.059,0.563-0.174L32,31.892V45c0,0.371,0.205,0.711,0.533,0.884
		C32.68,45.962,32.84,46,33,46c0.197,0,0.395-0.059,0.563-0.174l22-15C55.837,30.64,56,30.331,56,30S55.837,29.36,55.563,29.174z
		 M12,43.107V16.893L31.225,30L12,43.107z M34,43.107V16.893L53.225,30L34,43.107z"/>
	<path d="M30,0C13.458,0,0,13.458,0,30s13.458,30,30,30s30-13.458,30-30S46.542,0,30,0z M30,58C14.561,58,2,45.439,2,30
		S14.561,2,30,2s28,12.561,28,28S45.439,58,30,58z"/>
</g>
<g>
</g>
<g>
</g>
<g>
</g>
<g>
</g>
<g>
</g>
<g>
</g>
<g>
</g>
<g>
</g>
<g>
</g>
<g>
</g>
<g>
</g>
<g>
</g>
<g>
</g>
<g>
</g>
<g>
</g>
</svg>
