<svg id="Layer_1" height="512" viewBox="0 0 512 512" width="512" xmlns="http://www.w3.org/2000/svg" xmlns:xlink="http://www.w3.org/1999/xlink" data-name="Layer 1"><linearGradient id="GradientFill_1" gradientUnits="userSpaceOnUse" x1="256" x2="256" y2="512"><stop offset="0" stop-color="#1fbbee"/><stop offset="1" stop-color="#4764af"/></linearGradient><path d="m256 0c-141.159 0-256 114.841-256 256s114.841 256 256 256 256-114.841 256-256-114.841-256-256-256zm-7.789 286.416-73.042 73.042h39.241a16 16 0 1 1 0 32h-77.867a16 16 0 0 1 -16-16v-77.868a16 16 0 0 1 32 0v39.24l73.041-73.041a16 16 0 1 1 22.627 22.627zm127.247-56.006a16 16 0 0 1 -16-16v-39.24l-73.041 73.041a16 16 0 1 1 -22.627-22.627l73.042-73.042h-39.242a16 16 0 0 1 0-32h77.867a16 16 0 0 1 16 16v77.868a16 16 0 0 1 -15.999 16z" fill="url(#GradientFill_1)"/></svg>