<?xml version="1.0"?>
<svg xmlns="http://www.w3.org/2000/svg" xmlns:xlink="http://www.w3.org/1999/xlink" xmlns:svgjs="http://svgjs.com/svgjs" version="1.1" width="512" height="512" x="0" y="0" viewBox="0 0 24 24" style="enable-background:new 0 0 512 512" xml:space="preserve" class=""><g transform="matrix(6.123233995736766e-17,-1,1,6.123233995736766e-17,0,24)"><g xmlns="http://www.w3.org/2000/svg" fill="#4caf50"><path d="m12 9c-1.654 0-3 1.346-3 3s1.346 3 3 3 3-1.346 3-3-1.346-3-3-3z" fill="#4caf50" data-original="#4caf50"/><path d="m12 0c-1.654 0-3 1.346-3 3s1.346 3 3 3 3-1.346 3-3-1.346-3-3-3z" fill="#4caf50" data-original="#4caf50"/><path d="m12 18c-1.654 0-3 1.346-3 3s1.346 3 3 3 3-1.346 3-3-1.346-3-3-3z" fill="#4caf50" data-original="#4caf50"/></g><g xmlns="http://www.w3.org/2000/svg" fill="#429846"><path d="m12 9c-1.654 0-3 1.346-3 3s1.346 3 3 3z" fill="#429846" data-original="#429846"/><path d="m12 0c-1.654 0-3 1.346-3 3s1.346 3 3 3z" fill="#429846" data-original="#429846"/><path d="m12 18c-1.654 0-3 1.346-3 3s1.346 3 3 3z" fill="#429846" data-original="#429846"/></g></g></svg>
