<?xml version="1.0" encoding="iso-8859-1"?>
<svg viewBox="0 0 60 60" xmlns="http://www.w3.org/2000/svg">
	<g id="Page-1" fill="none" fill-rule="evenodd">
		<g fill="rgb(0,0,0)" fill-rule="nonzero">
			<path d="m55 0h-42c-2.760076.00325114-4.99674886 2.23992404-5 5v43h-6c-1.10404407.0012675-1.99873253.8959559-2 2v5c.00325114 2.760076 2.23992404 4.9967489 5 5h42c2.760076-.0032511 4.9967489-2.239924 5-5v-43h6c1.1040441-.0012675 1.9987325-.8959559 2-2v-5c-.0032511-2.76007596-2.239924-4.99674886-5-5zm-46 58h-4c-1.65610033-.0018187-2.99818129-1.3438997-3-3v-5h40v5c-.0011873 1.0824303.350747 2.1357054 1.0024 3zm41-3c-.0000001 1.6568542-1.3431458 2.9999999-3 2.9999999s-2.9999999-1.3431457-3-2.9999999v-5c-.0012675-1.1040441-.8959559-1.9987325-2-2h-32v-43c.0018187-1.65610033 1.3438997-2.99818129 3-3h38.0256c-.6614385.86056068-1.021786 1.91461943-1.0256 3zm8-45h-6v-5c0-1.65685425 1.3431458-3 3-3s3 1.34314575 3 3z"/>
			<path d="m15 8h21c.5522847 0 1-.44771525 1-1s-.4477153-1-1-1h-21c-.5522847 0-1 .44771525-1 1s.4477153 1 1 1z"/>
			<path d="m41 8h4c.5522847 0 1-.44771525 1-1s-.4477153-1-1-1h-4c-.5522847 0-1 .44771525-1 1s.4477153 1 1 1z"/>
			<path d="m15 20h10c.5522847 0 1-.4477153 1-1s-.4477153-1-1-1h-10c-.5522847 0-1 .4477153-1 1s.4477153 1 1 1z"/>
			<path d="m31 18h-2c-.5522847 0-1 .4477153-1 1s.4477153 1 1 1h2c.5522847 0 1-.4477153 1-1s-.4477153-1-1-1z"/>
			<path d="m31 22h-16c-.5522847 0-1 .4477153-1 1s.4477153 1 1 1h16c.5522847 0 1-.4477153 1-1s-.4477153-1-1-1z"/>
			<path d="m45 22c-.5522847 0-1 .4477153-1 1v2h-8v-8h6c.5522847 0 1-.4477153 1-1s-.4477153-1-1-1h-6c-1.1040441.0012675-1.9987325.8959559-2 2v8c.0012675 1.1040441.8959559 1.9987325 2 2h8c1.1040441-.0012675 1.9987325-.8959559 2-2v-2c0-.2652165-.1053568-.5195704-.2928932-.7071068s-.4418903-.2928932-.7071068-.2928932z"/>
			<path d="m15 36h10c.5522847 0 1-.4477153 1-1s-.4477153-1-1-1h-10c-.5522847 0-1 .4477153-1 1s.4477153 1 1 1z"/>
			<path d="m31 34h-2c-.5522847 0-1 .4477153-1 1s.4477153 1 1 1h2c.5522847 0 1-.4477153 1-1s-.4477153-1-1-1z"/>
			<path d="m31 38h-16c-.5522847 0-1 .4477153-1 1s.4477153 1 1 1h16c.5522847 0 1-.4477153 1-1s-.4477153-1-1-1z"/>
			<path d="m44 31h-8c-1.1040441.0012675-1.9987325.8959559-2 2v8c.0012675 1.1040441.8959559 1.9987325 2 2h8c1.1040441-.0012675 1.9987325-.8959559 2-2v-8c-.0012675-1.1040441-.8959559-1.9987325-2-2zm-8 10v-8h8l.0015 8z"/>
			<path d="m46.293 15.293-5.293 5.2929-1.293-1.2929c-.3923789-.3789722-1.0160848-.3735524-1.4018186.0121814s-.3911536 1.0094397-.0121814 1.4018186l2 2c.1874626.1875936.4417952.2929936.707.2929936s.5195374-.1054.707-.2929936l6-6c.3789722-.3923789.3735524-1.0160848-.0121814-1.4018186s-1.0094397-.3911536-1.4018186-.0121814z"/>
		</g>
	</g>
</svg>