<svg id="Capa_1" enable-background="new 0 0 512 512" height="512" viewBox="0 0 512 512" width="512" xmlns="http://www.w3.org/2000/svg"><path d="m151 152h30v30h-30z"/><path d="m361 8.88v83.12h81.31z"/><path d="m151 392h30v30h-30z"/><path d="m331 122v-122h-270v512h390v-390zm-210-60h180v30h-180zm180 60v30h-60v-30zm-60 120h60v30h-60zm0 120h60v30h-60zm-30 90h-90v-90h90zm0-120h-90v-90h90zm0-120h-90v-90h90zm180 240h-150v-30h150zm0-120h-150v-30h150zm0-120h-150v-30h150z"/><path d="m151 272h30v30h-30z"/></svg>