<svg id="Capa_1" enable-background="new 0 0 512 512" height="512" viewBox="0 0 512 512" width="512" xmlns="http://www.w3.org/2000/svg"><g><path d="m494.635 255.485c.278 141.051-114.743 256.404-255.795 256.515-68.5.054-130.729-26.803-176.703-70.567-2.511-2.391-2.545-6.39-.094-8.841l16.292-16.292c2.369-2.369 6.187-2.412 8.619-.107 40.359 38.237 95.161 61.379 155.367 60.396 121.267-1.98 218.633-102.518 216.908-223.789-1.712-120.364-99.824-217.417-220.595-217.417-60.66 0-115.596 24.487-155.473 64.104l11.528 11.528c3.376 3.376 1.813 9.141-2.805 10.35l-66.767 17.487c-4.573 1.198-8.743-2.972-7.545-7.545l17.487-66.767c1.209-4.618 6.975-6.18 10.35-2.805l12.735 12.735c46.289-46.019 110.06-74.47 180.491-74.47 141.211 0 255.721 114.339 256 255.485z" fill="#62d8f9"/><path d="m459.359 126.278c3.328 15.311 5.097 31.203 5.097 47.511 0 19.006-2.387 37.454-6.867 55.065 1.092 8.897 1.664 17.954 1.664 27.146 0 121.839-98.778 220.618-220.618 220.618-58.749 0-112.137-22.966-151.669-60.415-2.437-2.308-6.259-2.275-8.633.098l-16.29 16.291c-2.452 2.452-2.418 6.451.094 8.841 45.929 43.721 108.079 70.567 176.498 70.567 141.475 0 255.643-113.866 255.999-255.341.12-47.593-12.763-92.161-35.275-130.381z" fill="#00bef7"/><g><circle cx="238.635" cy="256" fill="#c56e37" r="166.504"/><path d="m325.659 114.029c15.556 25.324 24.533 55.125 24.533 87.024 0 91.958-74.546 166.504-166.504 166.504-31.9 0-61.7-8.977-87.024-24.533 29.288 47.678 81.913 79.48 141.971 79.48 91.958 0 166.504-74.546 166.504-166.504 0-60.058-31.802-112.683-79.48-141.971z" fill="#a95e2c"/><circle cx="238.635" cy="256" fill="#eff3f5" r="135.285"/></g><g fill="#595959"><path d="m238.635 161.148c4.268 0 7.726-3.459 7.726-7.726v-6.69c0-4.268-3.459-7.726-7.726-7.726s-7.726 3.459-7.726 7.726v6.69c0 4.267 3.459 7.726 7.726 7.726z"/><path d="m246.362 246.202v-58.885c0-4.268-3.459-7.726-7.726-7.726s-7.726 3.459-7.726 7.726v58.884c-2.451 1.936-4.151 4.768-4.618 8.004l-41.987 24.241c-3.695 2.134-4.962 6.859-2.828 10.554 1.431 2.479 4.028 3.864 6.698 3.864 1.311 0 2.64-.334 3.856-1.036l41.979-24.237c1.432.572 2.99.895 4.626.895 6.897 0 12.488-5.591 12.488-12.488-.001-3.975-1.866-7.509-4.762-9.796z"/><path d="m180.655 171.028c1.432 2.479 4.028 3.864 6.698 3.864 1.311 0 2.64-.334 3.856-1.036 3.695-2.134 4.962-6.859 2.828-10.554l-3.345-5.794c-2.134-3.695-6.861-4.961-10.554-2.828-3.695 2.134-4.962 6.859-2.828 10.554z"/><path d="m153.663 198.02-5.794-3.345c-3.698-2.134-8.422-.868-10.554 2.828-2.134 3.695-.867 8.421 2.828 10.554l5.794 3.345c1.217.702 2.545 1.036 3.856 1.036 2.67 0 5.268-1.385 6.698-3.864 2.133-3.695.867-8.42-2.828-10.554z"/><path d="m143.783 256c0-4.268-3.459-7.726-7.726-7.726h-6.69c-4.268 0-7.726 3.459-7.726 7.726s3.459 7.726 7.726 7.726h6.69c4.268 0 7.726-3.458 7.726-7.726z"/><path d="m145.936 300.598-5.794 3.345c-3.695 2.134-4.962 6.859-2.828 10.554 1.432 2.479 4.028 3.864 6.698 3.864 1.311 0 2.64-.334 3.856-1.036l5.794-3.345c3.695-2.134 4.962-6.859 2.828-10.554-2.134-3.696-6.861-4.961-10.554-2.828z"/><path d="m191.209 338.144c-3.697-2.134-8.422-.868-10.554 2.828l-3.345 5.794c-2.134 3.695-.867 8.421 2.828 10.554 1.217.702 2.545 1.036 3.856 1.036 2.67 0 5.268-1.385 6.698-3.864l3.345-5.794c2.134-3.695.867-8.42-2.828-10.554z"/><path d="m238.635 350.852c-4.268 0-7.726 3.459-7.726 7.726v6.69c0 4.268 3.459 7.726 7.726 7.726s7.726-3.459 7.726-7.726v-6.69c.001-4.267-3.458-7.726-7.726-7.726z"/><path d="m296.615 340.972c-2.135-3.696-6.86-4.961-10.554-2.828-3.695 2.134-4.962 6.859-2.828 10.554l3.345 5.794c1.432 2.479 4.028 3.864 6.698 3.864 1.311 0 2.64-.334 3.856-1.036 3.695-2.134 4.962-6.859 2.828-10.554z"/><path d="m337.127 303.943-5.794-3.345c-3.697-2.134-8.422-.868-10.554 2.828-2.134 3.695-.867 8.421 2.828 10.554l5.794 3.345c1.217.702 2.545 1.036 3.856 1.036 2.67 0 5.268-1.385 6.698-3.864 2.134-3.695.868-8.421-2.828-10.554z"/><path d="m347.903 248.274h-6.689c-4.268 0-7.726 3.459-7.726 7.726s3.459 7.726 7.726 7.726h6.689c4.268 0 7.726-3.459 7.726-7.726s-3.458-7.726-7.726-7.726z"/><path d="m327.478 212.439c1.311 0 2.64-.334 3.856-1.036l5.794-3.345c3.695-2.134 4.962-6.859 2.828-10.554s-6.861-4.961-10.554-2.828l-5.794 3.345c-3.695 2.134-4.962 6.859-2.828 10.554 1.431 2.478 4.027 3.864 6.698 3.864z"/><path d="m297.132 154.68c-3.697-2.134-8.422-.869-10.554 2.828l-3.345 5.794c-2.134 3.695-.867 8.421 2.828 10.554 1.217.702 2.545 1.036 3.856 1.036 2.67 0 5.268-1.385 6.698-3.864l3.345-5.794c2.134-3.695.868-8.42-2.828-10.554z"/></g></g></svg>