<?xml version="1.0" encoding="iso-8859-1"?>
<!-- Generator: Adobe Illustrator 19.0.0, SVG Export Plug-In . SVG Version: 6.00 Build 0)  -->
<svg version="1.1" id="Capa_1" xmlns="http://www.w3.org/2000/svg" xmlns:xlink="http://www.w3.org/1999/xlink" x="0px" y="0px"
	 viewBox="0 0 512 512" style="enable-background:new 0 0 512 512;" xml:space="preserve">
<path style="fill:#00C1FD;" d="M256,512c-68.38,0-132.667-26.629-181.02-74.98C26.629,388.667,0,324.38,0,256
	S26.629,123.333,74.98,74.98C123.333,26.629,187.62,0,256,0s132.667,26.629,181.02,74.98C485.371,123.333,512,187.62,512,256
	s-26.629,132.667-74.98,181.02C388.667,485.371,324.38,512,256,512z"/>
<path style="fill:#08A8EE;" d="M437.02,74.98C388.667,26.629,324.38,0,256,0v512c68.38,0,132.667-26.629,181.02-74.98
	C485.371,388.667,512,324.38,512,256S485.371,123.333,437.02,74.98z"/>
<g>
	<polygon style="fill:#E4F7FF;" points="301,371 301,221 191,221 191,251 211,251 211,371 190,371 190,401 320,401 320,371 	"/>
	<path style="fill:#E4F7FF;" d="M256,191c24.813,0,45-20.187,45-45s-20.187-45-45-45s-45,20.187-45,45S231.187,191,256,191z"/>
</g>
<g>
	<path style="fill:#CBEDFD;" d="M256,191c24.813,0,45-20.187,45-45s-20.187-45-45-45V191z"/>
	<polygon style="fill:#CBEDFD;" points="301,371 301,221 256,221 256,401 320,401 320,371 	"/>
</g>
<g>
</g>
<g>
</g>
<g>
</g>
<g>
</g>
<g>
</g>
<g>
</g>
<g>
</g>
<g>
</g>
<g>
</g>
<g>
</g>
<g>
</g>
<g>
</g>
<g>
</g>
<g>
</g>
<g>
</g>
</svg>
