<?xml version="1.0" encoding="iso-8859-1"?>
<!-- Generator: Adobe Illustrator 16.0.0, SVG Export Plug-In . SVG Version: 6.00 Build 0)  -->
<!DOCTYPE svg PUBLIC "-//W3C//DTD SVG 1.1//EN" "http://www.w3.org/Graphics/SVG/1.1/DTD/svg11.dtd">
<svg version="1.1" id="Capa_1" xmlns="http://www.w3.org/2000/svg" xmlns:xlink="http://www.w3.org/1999/xlink" x="0px" y="0px"
	 width="575.279px" height="575.279px" viewBox="0 0 575.279 575.279" style="enable-background:new 0 0 575.279 575.279;"
	 xml:space="preserve">
<g>
	<g>
		<path d="M287.64,575.279c158.86,0,287.639-128.779,287.639-287.639C575.279,128.78,446.5,0,287.64,0S0,128.78,0,287.641
			C0,446.5,128.78,575.279,287.64,575.279z M73.149,251.664L226.838,97.975c4.097-4.097,7.417-2.72,7.417,3.072v35.312
			c0,5.792,4.697,10.462,10.483,10.747c131.275,6.497,236.755,137.593,242.089,270.009c0.232,5.789-2.365,6.557-5.848,1.928
			c-73.291-97.504-200.828-60.955-236.945-48.016c-5.453,1.957-9.783,8.477-9.783,14.27v31.818c0,5.793-3.32,7.17-7.417,3.072
			L73.149,266.496C69.052,262.401,69.052,255.758,73.149,251.664z"/>
	</g>
</g>
<g>
</g>
<g>
</g>
<g>
</g>
<g>
</g>
<g>
</g>
<g>
</g>
<g>
</g>
<g>
</g>
<g>
</g>
<g>
</g>
<g>
</g>
<g>
</g>
<g>
</g>
<g>
</g>
<g>
</g>
</svg>
