<?xml version="1.0" encoding="iso-8859-1"?>
<!-- Generator: Adobe Illustrator 19.0.0, SVG Export Plug-In . SVG Version: 6.00 Build 0)  -->
<svg version="1.1" id="Capa_1" xmlns="http://www.w3.org/2000/svg" xmlns:xlink="http://www.w3.org/1999/xlink" x="0px" y="0px"
	 viewBox="0 0 512 512" style="enable-background:new 0 0 512 512;" xml:space="preserve">
<g>
	<path style="fill:#B758CE;" d="M467,61H165c-24.901,0-45,20.099-45,45s20.099,45,45,45h302c24.901,0,45-20.099,45-45
		S491.901,61,467,61z"/>
	<path style="fill:#B758CE;" d="M467,211H165c-24.901,0-45,20.099-45,45s20.099,45,45,45h302c24.901,0,45-20.099,45-45
		S491.901,211,467,211z"/>
	<path style="fill:#B758CE;" d="M467,361H165c-24.901,0-45,20.099-45,45s20.099,45,45,45h302c24.901,0,45-20.099,45-45
		S491.901,361,467,361z"/>
	<path style="fill:#B758CE;" d="M45,61C20.099,61,0,81.099,0,106s20.099,45,45,45s45-20.099,45-45S69.901,61,45,61z"/>
	<path style="fill:#B758CE;" d="M45,211c-24.901,0-45,20.099-45,45s20.099,45,45,45s45-20.099,45-45S69.901,211,45,211z"/>
	<path style="fill:#B758CE;" d="M45,361c-24.901,0-45,20.099-45,45s20.099,45,45,45s45-20.099,45-45S69.901,361,45,361z"/>
</g>
<g>
	<path style="fill:#AA3DC8;" d="M0,406h90c0,24.901-20.099,45-45,45S0,430.901,0,406z"/>
	<path style="fill:#AA3DC8;" d="M512,406c0,24.901-20.099,45-45,45H165c-24.901,0-45-20.099-45-45H512z"/>
	<path style="fill:#AA3DC8;" d="M0,256h90c0,24.901-20.099,45-45,45S0,280.901,0,256z"/>
	<path style="fill:#AA3DC8;" d="M512,256c0,24.901-20.099,45-45,45H165c-24.901,0-45-20.099-45-45H512z"/>
	<path style="fill:#AA3DC8;" d="M0,106h90c0,24.901-20.099,45-45,45S0,130.901,0,106z"/>
	<path style="fill:#AA3DC8;" d="M512,106c0,24.901-20.099,45-45,45H165c-24.901,0-45-20.099-45-45H512z"/>
</g>
<g>
</g>
<g>
</g>
<g>
</g>
<g>
</g>
<g>
</g>
<g>
</g>
<g>
</g>
<g>
</g>
<g>
</g>
<g>
</g>
<g>
</g>
<g>
</g>
<g>
</g>
<g>
</g>
<g>
</g>
</svg>
