<?xml version="1.0" encoding="iso-8859-1"?>
<!-- Generator: Adobe Illustrator 19.0.0, SVG Export Plug-In . SVG Version: 6.00 Build 0)  -->
<svg version="1.1" id="Capa_1" xmlns="http://www.w3.org/2000/svg" xmlns:xlink="http://www.w3.org/1999/xlink" x="0px" y="0px"
	 viewBox="0 0 511.999 511.999" style="enable-background:new 0 0 511.999 511.999;" xml:space="preserve">
<g>
	<g>
		<path d="M458.217,276.92l49.389-49.389c5.858-5.858,5.858-15.354,0-21.211c-5.857-5.858-15.354-5.858-21.211,0l-49.39,49.39
			l-49.39-49.39c-5.857-5.858-15.354-5.858-21.211,0c-5.858,5.858-5.858,15.354,0,21.211l49.389,49.389l-49.389,49.389
			c-5.858,5.858-5.858,15.354,0,21.211c5.857,5.857,15.354,5.858,21.211,0l49.39-49.39l49.39,49.39
			c5.857,5.857,15.354,5.858,21.211,0c5.858-5.858,5.858-15.354,0-21.211L458.217,276.92z"/>
	</g>
</g>
<g>
	<g>
		<path d="M304.064,4.321c-15.982-7.486-34.333-5.118-47.891,6.181L129.559,116.013H44.997C20.185,116.013,0,136.198,0,161.01
			v189.98c0,24.811,20.185,44.997,44.997,44.997h84.563l126.614,105.511c13.572,11.31,31.925,13.66,47.892,6.182
			c15.982-7.486,25.91-23.1,25.91-40.749V45.069C329.975,27.42,320.047,11.807,304.064,4.321z M119.991,366.188H44.997
			c-8.27,0-14.999-6.928-14.999-15.199V161.01c0-8.27,6.729-14.999,14.999-14.999h74.994V366.188z M299.978,466.93
			c0,8.849-6.61,12.634-8.637,13.582c-2.026,0.95-9.165,3.606-15.964-2.061L149.989,373.962V138.037l125.388-104.49
			c6.799-5.666,13.939-3.01,15.964-2.061c2.026,0.949,8.637,4.733,8.637,13.583V466.93z"/>
	</g>
</g>
<g>
</g>
<g>
</g>
<g>
</g>
<g>
</g>
<g>
</g>
<g>
</g>
<g>
</g>
<g>
</g>
<g>
</g>
<g>
</g>
<g>
</g>
<g>
</g>
<g>
</g>
<g>
</g>
<g>
</g>
</svg>
