<?xml version="1.0"?>
<svg xmlns="http://www.w3.org/2000/svg" xmlns:xlink="http://www.w3.org/1999/xlink" xmlns:svgjs="http://svgjs.com/svgjs" version="1.1" x="0" y="0" viewBox="0 0 512 512" style="enable-background:new 0 0 512 512" xml:space="preserve" class=""><g transform="matrix(-1.8369701987210297e-16,-1,1,-1.8369701987210297e-16,-0.0004959106444459849,512.0004806518556)">
<path xmlns="http://www.w3.org/2000/svg" style="" d="M384,0H149.333c-41.237,0-74.667,33.429-74.667,74.667v426.667c0.001,4.316,2.603,8.207,6.592,9.856  c1.291,0.538,2.676,0.813,4.075,0.811c2.831,0.005,5.548-1.115,7.552-3.115l120.448-120.619  C260.48,434.795,325.44,499.2,332.416,507.136c3.261,4.906,9.882,6.24,14.788,2.979c1.775-1.18,3.155-2.864,3.964-4.835  c0.687-1.195,0.978-2.576,0.832-3.947v-448c0-17.673,14.327-32,32-32c5.891,0,10.667-4.776,10.667-10.667S389.891,0,384,0z" fill="#2196f3" data-original="#2196f3" class=""/>
<path xmlns="http://www.w3.org/2000/svg" style="" d="M394.667,0L394.667,0c23.564,0,42.667,19.103,42.667,42.667v32c0,5.891-4.776,10.667-10.667,10.667  H352l0,0V42.667C352,19.103,371.103,0,394.667,0z" fill="#1976d2" data-original="#1976d2" class=""/>
<g xmlns="http://www.w3.org/2000/svg">
</g>
<g xmlns="http://www.w3.org/2000/svg">
</g>
<g xmlns="http://www.w3.org/2000/svg">
</g>
<g xmlns="http://www.w3.org/2000/svg">
</g>
<g xmlns="http://www.w3.org/2000/svg">
</g>
<g xmlns="http://www.w3.org/2000/svg">
</g>
<g xmlns="http://www.w3.org/2000/svg">
</g>
<g xmlns="http://www.w3.org/2000/svg">
</g>
<g xmlns="http://www.w3.org/2000/svg">
</g>
<g xmlns="http://www.w3.org/2000/svg">
</g>
<g xmlns="http://www.w3.org/2000/svg">
</g>
<g xmlns="http://www.w3.org/2000/svg">
</g>
<g xmlns="http://www.w3.org/2000/svg">
</g>
<g xmlns="http://www.w3.org/2000/svg">
</g>
<g xmlns="http://www.w3.org/2000/svg">
</g>
</g></svg>
