<svg id="Layer_1" enable-background="new 0 0 24 24" height="512" viewBox="0 0 24 24" width="512" xmlns="http://www.w3.org/2000/svg"><path d="m21 11c-.6 0-1 .4-1 1 0 4.4-3.6 8-8 8-2 0-3.9-.7-5.3-2l-1.1-1h2.4c.6 0 1-.4 1-1s-.4-1-1-1h-5c-.1 0-.3 0-.4.1s-.2.1-.3.2v.1c-.1.1-.1.2-.1.3-.2 0-.2.1-.2.2v.1 5c0 .6.4 1 1 1s1-.4 1-1v-2.8l1.3 1.2c1.9 1.7 4.2 2.6 6.7 2.6 5.5 0 10-4.5 10-10 0-.6-.4-1-1-1zm0-9c-.6 0-1 .4-1 1v2.8l-1.3-1.2c-1.9-1.7-4.2-2.6-6.7-2.6-5.5 0-10 4.5-10 10 0 .6.4 1 1 1s1-.4 1-1c0-4.4 3.6-8 8-8 2 0 3.9.7 5.3 2l1.1 1h-2.4c-.6 0-1 .4-1 1s.4 1 1 1h5c.1 0 .3 0 .4-.1s.2-.1.3-.2c.1-.1.1-.2.2-.3.1-.1.1-.2.1-.3v-.1-5c0-.6-.4-1-1-1z"/></svg>