<?xml version="1.0" encoding="iso-8859-1"?>
<!-- Generator: Adobe Illustrator 16.0.0, SVG Export Plug-In . SVG Version: 6.00 Build 0)  -->
<!DOCTYPE svg PUBLIC "-//W3C//DTD SVG 1.1//EN" "http://www.w3.org/Graphics/SVG/1.1/DTD/svg11.dtd">
<svg version="1.1" id="Capa_1" xmlns="http://www.w3.org/2000/svg" xmlns:xlink="http://www.w3.org/1999/xlink" x="0px" y="0px"
	 width="29.865px" height="29.865px" viewBox="0 0 29.865 29.865" style="enable-background:new 0 0 29.865 29.865;"
	 xml:space="preserve">
<g>
	<g>
		<g>
			<path fill="white" d="M24.038,10.146c-0.378,0.192-0.8,0.312-1.253,0.312c-0.261,0-0.52-0.038-0.769-0.11
				c-0.578,0.735-1.466,1.184-2.447,1.184c-0.366,0-0.714-0.075-1.04-0.191c-0.021,0.037-0.029,0.078-0.053,0.114
				c-0.496,0.792-1.288,1.305-2.184,1.476l-0.803,13.95l-1.111,0.003l-0.846-14.688c-0.497-0.425-0.848-0.969-1.021-1.579
				c-0.567,0.565-1.349,0.916-2.212,0.916c-0.981,0-1.87-0.449-2.448-1.184c-0.249,0.072-0.506,0.11-0.768,0.11
				c-0.453,0-0.875-0.119-1.253-0.313c-0.491,0.612-0.731,1.393-0.644,2.176l1.672,14.912c0.168,1.5,1.434,2.631,2.942,2.631h10.262
				c1.51,0,2.773-1.131,2.942-2.631l1.672-14.911C24.771,11.539,24.529,10.759,24.038,10.146z M9.845,26.898L8.134,12.031
				l2.387-0.007l0.857,14.87L9.845,26.898z M20.032,26.863l-1.535,0.006l0.856-14.875l2.348-0.007L20.032,26.863z"/>
			<path fill="white" d="M11.73,4.636c0.216-0.119,0.447-0.209,0.688-0.27c-0.027-0.155-0.048-0.313-0.048-0.475c0-1.04,0.574-1.944,1.421-2.422
				c-0.319-0.625-0.961-1.057-1.71-1.057c-1.064,0-1.927,0.863-1.927,1.927c0,0.062,0.013,0.121,0.019,0.182
				c-0.006,0-0.012-0.001-0.019-0.001c-0.354,0-0.682,0.106-0.959,0.284C10.349,2.874,11.322,3.608,11.73,4.636z"/>
			<path fill="white" d="M13.424,4.306c0.135,0.013,0.271,0.016,0.402,0.047c0.573-0.591,1.361-0.931,2.208-0.931c0.577,0,1.141,0.162,1.63,0.469
				c0.225,0.14,0.417,0.313,0.596,0.5c0.317-0.623,0.843-1.121,1.494-1.387c-0.245-0.21-0.537-0.37-0.861-0.452
				c0.067-0.197,0.113-0.405,0.113-0.625C19.007,0.863,18.144,0,17.079,0c-1.063,0-1.926,0.863-1.926,1.927
				c0,0.062,0.013,0.121,0.018,0.182c-0.005,0-0.011-0.001-0.018-0.001c-0.984,0-1.783,0.798-1.783,1.783
				C13.372,4.034,13.393,4.172,13.424,4.306z"/>
			<path fill="white" d="M18.948,5.551c0.027,0.087,0.065,0.17,0.087,0.261c0.187,0.802,0.047,1.628-0.391,2.328
				c-0.012,0.019-0.022,0.037-0.035,0.055c0.353,0.684,0.433,1.466,0.271,2.213c0.218,0.075,0.447,0.124,0.69,0.124
				c0.967,0,1.772-0.646,2.035-1.528c0.314,0.279,0.726,0.455,1.18,0.455c0.983,0,1.783-0.798,1.783-1.783
				c0-0.985-0.8-1.783-1.783-1.783c-0.006,0-0.013,0.001-0.02,0.001c0.006-0.061,0.02-0.12,0.02-0.182
				c0-1.064-0.862-1.927-1.928-1.927C19.85,3.784,19.031,4.563,18.948,5.551z"/>
			<path fill="white" d="M7.087,9.458c0.455,0,0.864-0.175,1.179-0.455c0.263,0.882,1.069,1.528,2.036,1.528c0.626,0,1.183-0.274,1.573-0.703
				c-0.096-0.046-0.192-0.091-0.283-0.148c-1.368-0.855-1.786-2.665-0.931-4.032c0.069-0.111,0.162-0.199,0.243-0.297
				c-0.169-0.892-0.95-1.567-1.891-1.567c-1.064,0-1.927,0.863-1.927,1.927c0,0.062,0.013,0.121,0.019,0.182
				c-0.006,0-0.012-0.001-0.019-0.001c-0.984,0-1.783,0.798-1.783,1.783C5.304,8.659,6.104,9.458,7.087,9.458z"/>
			<path fill="white" d="M17.137,4.739c-0.344-0.214-0.726-0.317-1.102-0.317c-0.693,0-1.372,0.347-1.767,0.979
				c-0.036,0.057-0.058,0.118-0.087,0.177c-0.006-0.004-0.01-0.008-0.016-0.012c-0.317-0.198-0.67-0.293-1.02-0.293
				c-0.642,0-1.27,0.32-1.635,0.905c-0.563,0.902-0.289,2.091,0.613,2.655c0.314,0.196,0.662,0.286,1.007,0.286
				c0.112,0,0.224-0.009,0.333-0.028c-0.264,0.958,0.105,2.012,0.99,2.566c0.38,0.238,0.802,0.351,1.22,0.351
				c0.769,0,1.52-0.384,1.956-1.084c0.57-0.913,0.417-2.065-0.293-2.81c0.176-0.142,0.335-0.306,0.462-0.507
				C18.408,6.633,18.111,5.348,17.137,4.739z"/>
		</g>
	</g>
</g>
<g>
</g>
<g>
</g>
<g>
</g>
<g>
</g>
<g>
</g>
<g>
</g>
<g>
</g>
<g>
</g>
<g>
</g>
<g>
</g>
<g>
</g>
<g>
</g>
<g>
</g>
<g>
</g>
<g>
</g>
</svg>
