<?xml version="1.0" encoding="iso-8859-1"?>
<!-- Generator: Adobe Illustrator 19.0.0, SVG Export Plug-In . SVG Version: 6.00 Build 0)  -->
<svg version="1.1" id="Capa_1" xmlns="http://www.w3.org/2000/svg" xmlns:xlink="http://www.w3.org/1999/xlink" x="0px" y="0px"
	 viewBox="0 0 60 60" style="enable-background:new 0 0 60 60;" xml:space="preserve">
<g>
	<path fill="white" d="M45.467,14.116c-0.326-0.174-0.723-0.15-1.031,0.058l-22,15C22.164,29.36,22,29.669,22,30s0.164,0.64,0.437,0.826l22,15
		C44.606,45.941,44.803,46,45,46c0.16,0,0.321-0.038,0.467-0.116C45.795,45.711,46,45.371,46,45V15
		C46,14.629,45.795,14.289,45.467,14.116z M44,43.107L24.775,30L44,16.893V43.107z"/>
	<path fill="white" d="M30,0C13.458,0,0,13.458,0,30s13.458,30,30,30s30-13.458,30-30S46.542,0,30,0z M30,58C14.561,58,2,45.439,2,30
		S14.561,2,30,2s28,12.561,28,28S45.439,58,30,58z"/>
	<path fill="white" d="M13,46h7V14h-7V46z M15,16h3v28h-3V16z"/>
</g>
<g>
</g>
<g>
</g>
<g>
</g>
<g>
</g>
<g>
</g>
<g>
</g>
<g>
</g>
<g>
</g>
<g>
</g>
<g>
</g>
<g>
</g>
<g>
</g>
<g>
</g>
<g>
</g>
<g>
</g>
</svg>
