<?xml version="1.0" encoding="iso-8859-1"?>
<!-- Generator: Adobe Illustrator 16.0.0, SVG Export Plug-In . SVG Version: 6.00 Build 0)  -->
<!DOCTYPE svg PUBLIC "-//W3C//DTD SVG 1.1//EN" "http://www.w3.org/Graphics/SVG/1.1/DTD/svg11.dtd">
<svg version="1.1" id="Capa_1" xmlns="http://www.w3.org/2000/svg" xmlns:xlink="http://www.w3.org/1999/xlink" x="0px" y="0px"
	 width="612px" height="612px" viewBox="0 0 612 612" style="enable-background:new 0 0 612 612;" xml:space="preserve">
<g>
	<g id="_x32__39_">
		<g>
			<path d="M17.5,223.095l259.641,116.72c22.95,10.825,32.837,10.825,57.7,0l259.641-116.72c19.125-8.912,19.756-46.818,0-57.643
				L334.841,28.364c-20.388-12.087-34.75-11.456-57.701,0L17.5,165.452C-2.257,178.189-2.888,212.27,17.5,223.095z M17.5,345.361
				l259.641,116.72c22.95,10.824,32.837,10.824,57.7,0l259.641-116.72C607.314,339.394,612,311.3,612,296.171
				c-16.696,8.358-40.335,20.273-40.794,20.369L306,438.806L40.793,316.54c0.918,0.555-23.466-10.462-40.793-20.369
				C0,310.955,3.71,338.056,17.5,345.361z M306,561.072L40.793,438.806C41.711,439.36,17.327,428.345,0,418.438
				c0,14.784,3.71,41.884,17.5,49.189l259.641,116.72c22.95,10.825,32.837,10.825,57.7,0l259.641-116.72
				C607.314,461.66,612,433.565,612,418.438c-16.696,8.357-40.335,20.272-40.794,20.368L306,561.072z"/>
		</g>
	</g>
</g>
<g>
</g>
<g>
</g>
<g>
</g>
<g>
</g>
<g>
</g>
<g>
</g>
<g>
</g>
<g>
</g>
<g>
</g>
<g>
</g>
<g>
</g>
<g>
</g>
<g>
</g>
<g>
</g>
<g>
</g>
</svg>
