<svg height="512" viewBox="0 0 52 58" width="512" xmlns="http://www.w3.org/2000/svg"><g id="Page-1" fill="none" fill-rule="evenodd"><g id="119---Rewind" fill="rgb(0,0,0)" fill-rule="nonzero"><path id="Shape" d="m28.283 6.106 3.017-2.587c.8056088-.72612784.8856677-1.96203267.180472-2.78602675s-1.9386364-.93577153-2.780472-.25197325l-7 6c-.4436324.37996855-.6989854.93488888-.6989854 1.519s.255353 1.13903145.6989854 1.519l7 6c.5398529.4865913 1.3011827.6420254 1.9885682.4059887.6873856-.2360366 1.1926248-.8263892 1.3196681-1.5419814.1270434-.7155922-.1441072-1.4437818-.7082363-1.9020073l-2.711-2.323c11.7323859 1.3903499 20.2718899 11.7991628 19.3428789 23.5770612s-10.9948012 20.7191725-22.8000785 20.2529307c-11.8052772-.4662418-21.13455516-10.1735116-21.1318004-21.9879919-.01849603-4.9496865 1.6502081-9.7579247 4.731-13.632.45388963-.5596288.57165908-1.3201496.30829027-1.9908486-.26336882-.6706989-.86715671-1.1478799-1.580562-1.2491376-.7134053-.1012576-1.42612908.1890635-1.86572827.7599862-3.64164256 4.5787427-5.61438283 10.2617019-5.593 16.112-.00301472 14.0634471 11.1770636 25.5801923 25.2344129 25.9942995 14.0573493.4141071 25.895982-10.4245435 26.7208276-24.4637808.8248457-14.0392373-9.6631139-26.18963951-23.6722405-27.4245187z"/><path id="Shape" d="m15.7 15.519c.5398529.4865913 1.3011827.6420254 1.9885682.4059887.6873856-.2360366 1.1926248-.8263892 1.3196681-1.5419814.1270434-.7155922-.1441072-1.4437818-.7082363-1.9020073l-5.227-4.481 5.227-4.481c.8056088-.72612784.8856677-1.96203267.180472-2.78602675s-1.9386364-.93577153-2.780472-.25197325l-7 6c-.4436324.37996855-.6989854.93488888-.6989854 1.519s.255353 1.13903145.6989854 1.519z"/><path id="Shape" d="m16.891 21.336-3 2c-.8950793.5999232-1.1539833 1.8011109-.5855116 2.7164878.5684717.9153768 1.7599419 1.2158463 2.6945116.6795122v13.268h-1c-1.1045695 0-2 .8954305-2 2s.8954305 2 2 2h6c1.1045695 0 2-.8954305 2-2s-.8954305-2-2-2h-1v-17c-.0001355-.7374384-.4060631-1.4149703-1.056234-1.7629549-.6501708-.3479847-1.4390817-.3099547-2.052766.0989549z"/><path id="Shape" d="m34 44c2.7614237 0 5-2.2385763 5-5v-13c0-2.7614237-2.2385763-5-5-5h-3c-2.7614237 0-5 2.2385763-5 5v13c0 2.7614237 2.2385763 5 5 5zm-4-5v-13c0-.5522847.4477153-1 1-1h3c.5522847 0 1 .4477153 1 1v13c0 .5522847-.4477153 1-1 1h-3c-.5522847 0-1-.4477153-1-1z"/></g></g></svg>