<svg width="512px" height="512px" clip-rule="evenodd" fill-rule="evenodd" image-rendering="optimizeQuality" shape-rendering="geometricPrecision" text-rendering="geometricPrecision" viewBox="0 0 254000 254000" xmlns="http://www.w3.org/2000/svg"><g><path d="m254000 127000c0-70129-56871-127000-127000-127000s-127000 56871-127000 127000 56871 127000 127000 127000 127000-56871 127000-127000zm-128068 42056 29172-29172h-94964c-3692 0-6773-3081-6773-6773v-12222c0-3692 3043-6773 6773-6773h94964l-29172-29171c-2637-2638-2637-6941 0-9579l8642-8642c2638-2637 6973-2606 9579 0l54525 54525c1543 1543 2172 3704 1887 5751 285 2047-344 4209-1887 5752l-54525 54525c-2606 2606-6941 2637-9579 0l-8642-8642c-2637-2638-2637-6941 0-9579z" fill="#48b02c"/></g></svg>