<svg id="Capa_1" enable-background="new 0 0 497.254 497.254" height="512" viewBox="0 0 497.254 497.254" width="512" xmlns="http://www.w3.org/2000/svg"><path d="m291.18 206.201-21.213 127.279-107.287 107.287-127.279 21.213c46.863 46.863 122.843 46.863 169.706 0l86.074-86.074c15.456-15.456 25.815-34.08 31.075-53.781l31.829-31.829-32.408-32.408c-5.424-18.926-15.589-36.78-30.497-51.687z" fill="#83a3ab"/><path d="m183.64 440.006 86.074-86.074c46.863-46.863 56.36-113.345 21.213-148.492-46.863-46.863-122.843-46.863-169.706 0l-86.074 86.074c-46.863 46.863-46.863 122.843 0 169.706 35.147 35.147 101.63 25.649 148.493-21.214zm-106.066-21.213c-23.431-23.431-23.431-61.421 0-84.853l86.074-86.074c23.431-23.431 61.421-23.431 84.853 0l9.265 72.918c-2.517 4.259-5.605 8.275-9.265 11.935l-86.074 86.074c-23.432 23.431-61.422 23.431-84.853 0z" fill="#93b7c0"/><path d="m462.109 35.272-24.16 124.333-111.652 132.864c-.117 9.98-1.456 19.949-4.047 29.654 19.707-5.254 38.325-15.613 53.783-31.07l86.076-86.076c46.86-46.86 46.86-122.845 0-169.705z" fill="#93b7c0"/><path d="m440.896 183.764c46.86-46.86 56.358-113.347 21.213-148.492-46.86-46.86-122.846-46.86-169.706 0l-86.076 86.076c-46.86 46.86-46.86 122.846 0 169.706 14.906 14.906 32.767 25.074 51.689 30.49 13.598-23.002 10.515-53.139-9.263-72.917-23.434-23.434-23.434-61.419 0-84.853l86.076-86.076c23.426-23.426 61.419-23.434 84.853 0s23.426 61.426 0 84.853l-86.076 86.076c-3.663 3.663-7.679 6.746-11.936 9.263 3.233 11.275 4.764 22.935 4.627 34.579 9.982-6.16 19.607-13.714 28.522-22.629z" fill="#acd5df"/></svg>