<?xml version="1.0" encoding="iso-8859-1"?>
<!-- Generator: Adobe Illustrator 19.0.0, SVG Export Plug-In . SVG Version: 6.00 Build 0)  -->
<svg version="1.1" id="Capa_1" xmlns="http://www.w3.org/2000/svg" xmlns:xlink="http://www.w3.org/1999/xlink" x="0px" y="0px"
	 viewBox="0 0 60 60" style="enable-background:new 0 0 60 60;" xml:space="preserve">
<g>
	<path d="M37.563,29.174l-22-15c-0.307-0.208-0.704-0.231-1.031-0.058C14.205,14.289,14,14.629,14,15v30
		c0,0.371,0.205,0.711,0.533,0.884C14.679,45.962,14.84,46,15,46c0.197,0,0.394-0.059,0.563-0.174l22-15
		C37.836,30.64,38,30.331,38,30S37.836,29.36,37.563,29.174z M16,43.107V16.893L35.225,30L16,43.107z"/>
	<path d="M30,0C13.458,0,0,13.458,0,30s13.458,30,30,30s30-13.458,30-30S46.542,0,30,0z M30,58C14.561,58,2,45.439,2,30
		S14.561,2,30,2s28,12.561,28,28S45.439,58,30,58z"/>
	<path d="M40,46h7V14h-7V46z M42,16h3v28h-3V16z"/>
</g>
<g>
</g>
<g>
</g>
<g>
</g>
<g>
</g>
<g>
</g>
<g>
</g>
<g>
</g>
<g>
</g>
<g>
</g>
<g>
</g>
<g>
</g>
<g>
</g>
<g>
</g>
<g>
</g>
<g>
</g>
</svg>
