<?xml version="1.0" encoding="iso-8859-1"?>
<!-- Generator: Adobe Illustrator 19.0.0, SVG Export Plug-In . SVG Version: 6.00 Build 0)  -->
<svg version="1.1" id="Capa_1" xmlns="http://www.w3.org/2000/svg" xmlns:xlink="http://www.w3.org/1999/xlink" x="0px" y="0px"
	 viewBox="0 0 512 512" style="enable-background:new 0 0 512 512;" xml:space="preserve">
<g>
	<g>
		<path d="M303.462,4.82c-15.95-7.472-34.265-5.107-47.797,6.168L129.303,116.29H44.908C20.146,116.29,0,136.436,0,161.198v189.604
			c0,24.762,20.146,44.908,44.908,44.908h84.395l126.363,105.302c13.545,11.288,31.861,13.633,47.798,6.169
			c15.95-7.472,25.859-23.055,25.859-40.668V45.487C329.322,27.873,319.413,12.29,303.462,4.82z M119.753,365.97H44.908
			c-8.254,0-14.969-6.915-14.969-15.169V161.198c0-8.254,6.715-14.969,14.969-14.969h74.846V365.97z M299.384,466.512
			c0,8.832-6.597,12.609-8.62,13.555c-2.022,0.948-9.147,3.599-15.932-2.057L149.692,373.728V138.271L274.831,33.988
			c6.785-5.654,13.91-3.004,15.932-2.057c2.022,0.947,8.62,4.723,8.62,13.556V466.512z"/>
	</g>
</g>
<g>
	<g>
		<path d="M375.505,200.174c-4.59-6.877-13.884-8.731-20.76-4.141c-6.877,4.59-8.731,13.884-4.141,20.76
			c15.488,23.208,15.482,53.214-0.016,76.444c-4.589,6.877-2.732,16.172,4.144,20.76c6.879,4.59,16.173,2.732,20.76-4.144
			C397.725,276.527,397.73,233.476,375.505,200.174z"/>
	</g>
</g>
<g>
	<g>
		<path d="M475.166,133.758l-6.71-10.072c-4.584-6.881-13.876-8.742-20.757-4.158c-6.881,4.584-8.742,13.877-4.158,20.757
			l6.714,10.078c42.393,63.562,42.387,145.718-0.017,209.303l-6.695,10.042c-4.586,6.879-2.726,16.173,4.152,20.758
			c6.878,4.585,16.172,2.727,20.758-4.152l6.694-10.041C524.279,302.601,524.284,207.405,475.166,133.758z"/>
	</g>
</g>
<g>
	<g>
		<path d="M425.335,166.956l-6.717-10.075c-4.586-6.879-13.88-8.737-20.758-4.151c-6.879,4.586-8.737,13.879-4.151,20.758
			l6.716,10.075c28.93,43.396,28.93,99.476,0,142.873l-6.717,10.075c-4.587,6.879-2.727,16.173,4.151,20.758
			c6.88,4.587,16.174,2.726,20.758-4.151l6.717-10.075C460.992,289.558,460.992,220.44,425.335,166.956z"/>
	</g>
</g>
<g>
</g>
<g>
</g>
<g>
</g>
<g>
</g>
<g>
</g>
<g>
</g>
<g>
</g>
<g>
</g>
<g>
</g>
<g>
</g>
<g>
</g>
<g>
</g>
<g>
</g>
<g>
</g>
<g>
</g>
</svg>
