<?xml version="1.0" encoding="iso-8859-1"?>
<!-- Generator: Adobe Illustrator 19.0.0, SVG Export Plug-In . SVG Version: 6.00 Build 0)  -->
<svg version="1.1" id="Capa_1" xmlns="http://www.w3.org/2000/svg" xmlns:xlink="http://www.w3.org/1999/xlink" x="0px" y="0px"
	 viewBox="0 0 54 54" style="enable-background:new 0 0 54 54;" xml:space="preserve">
<g>
	<path d="M46.414,26l7.293-7.293c0.391-0.391,0.391-1.023,0-1.414s-1.023-0.391-1.414,0L45,24.586l-7.293-7.293
		c-0.391-0.391-1.023-0.391-1.414,0s-0.391,1.023,0,1.414L43.586,26l-7.293,7.293c-0.391,0.391-0.391,1.023,0,1.414
		C36.488,34.902,36.744,35,37,35s0.512-0.098,0.707-0.293L45,27.414l7.293,7.293C52.488,34.902,52.744,35,53,35
		s0.512-0.098,0.707-0.293c0.391-0.391,0.391-1.023,0-1.414L46.414,26z"/>
	<path d="M28.404,4.4c-0.975-0.552-2.131-0.534-3.09,0.044c-0.046,0.027-0.09,0.059-0.13,0.093L11.634,16H1c-0.553,0-1,0.447-1,1v19
		c0,0.266,0.105,0.52,0.293,0.707S0.734,37,1,37l10.61-0.005l13.543,12.44c0.05,0.046,0.104,0.086,0.161,0.12
		c0.492,0.297,1.037,0.446,1.582,0.446c0.517-0.001,1.033-0.134,1.508-0.402C29.403,49.035,30,48.005,30,46.844V7.156
		C30,5.995,29.403,4.965,28.404,4.4z M28,46.844c0,0.431-0.217,0.81-0.579,1.015c-0.155,0.087-0.548,0.255-1,0.026L13,35.556V31
		c0-0.553-0.447-1-1-1s-1,0.447-1,1v3.996L2,35V18h9v4c0,0.553,0.447,1,1,1s1-0.447,1-1v-4.536l13.405-11.34
		c0.46-0.242,0.86-0.07,1.016,0.018C27.783,6.347,28,6.725,28,7.156V46.844z"/>
</g>
<g>
</g>
<g>
</g>
<g>
</g>
<g>
</g>
<g>
</g>
<g>
</g>
<g>
</g>
<g>
</g>
<g>
</g>
<g>
</g>
<g>
</g>
<g>
</g>
<g>
</g>
<g>
</g>
<g>
</g>
</svg>
