<?xml version="1.0" encoding="iso-8859-1"?>
<!-- Generator: Adobe Illustrator 19.0.0, SVG Export Plug-In . SVG Version: 6.00 Build 0)  -->
<svg version="1.1" id="Capa_1" xmlns="http://www.w3.org/2000/svg" xmlns:xlink="http://www.w3.org/1999/xlink" x="0px" y="0px"
	 viewBox="0 0 55.867 55.867" style="enable-background:new 0 0 55.867 55.867;" xml:space="preserve">
<path d="M11.287,54.548c-0.207,0-0.414-0.064-0.588-0.191c-0.308-0.224-0.462-0.603-0.397-0.978l3.091-18.018L0.302,22.602
	c-0.272-0.266-0.37-0.663-0.253-1.024c0.118-0.362,0.431-0.626,0.808-0.681l18.09-2.629l8.091-16.393
	c0.168-0.342,0.516-0.558,0.896-0.558l0,0c0.381,0,0.729,0.216,0.896,0.558l8.09,16.393l18.091,2.629
	c0.377,0.055,0.689,0.318,0.808,0.681c0.117,0.361,0.02,0.759-0.253,1.024L42.475,35.363l3.09,18.017
	c0.064,0.375-0.09,0.754-0.397,0.978c-0.308,0.226-0.717,0.255-1.054,0.076l-16.18-8.506l-16.182,8.506
	C11.606,54.51,11.446,54.548,11.287,54.548z M3.149,22.584l12.016,11.713c0.235,0.229,0.343,0.561,0.287,0.885L12.615,51.72
	l14.854-7.808c0.291-0.154,0.638-0.154,0.931,0l14.852,7.808l-2.836-16.538c-0.056-0.324,0.052-0.655,0.287-0.885l12.016-11.713
	l-16.605-2.413c-0.326-0.047-0.607-0.252-0.753-0.547L27.934,4.578l-7.427,15.047c-0.146,0.295-0.427,0.5-0.753,0.547L3.149,22.584z
	"/>
<g>
</g>
<g>
</g>
<g>
</g>
<g>
</g>
<g>
</g>
<g>
</g>
<g>
</g>
<g>
</g>
<g>
</g>
<g>
</g>
<g>
</g>
<g>
</g>
<g>
</g>
<g>
</g>
<g>
</g>
</svg>
