<?xml version="1.0" encoding="iso-8859-1"?>
<!-- Generator: Adobe Illustrator 19.0.0, SVG Export Plug-In . SVG Version: 6.00 Build 0)  -->
<svg version="1.1" id="Capa_1" xmlns="http://www.w3.org/2000/svg" xmlns:xlink="http://www.w3.org/1999/xlink" x="0px" y="0px"
	 viewBox="0 0 42 42" style="enable-background:new 0 0 42 42;" xml:space="preserve">
<path d="M35.965,0.114c-0.329-0.171-0.726-0.148-1.033,0.063L7.5,19.095V1c0-0.553-0.448-1-1-1s-1,0.447-1,1v40c0,0.553,0.448,1,1,1
	s1-0.447,1-1V22.905l27.432,18.919C35.103,41.94,35.301,42,35.5,42c0.159,0,0.319-0.038,0.465-0.114
	C36.294,41.713,36.5,41.372,36.5,41V1C36.5,0.628,36.294,0.287,35.965,0.114z M34.5,39.096L8.261,21L34.5,2.904V39.096z"/>
<g>
</g>
<g>
</g>
<g>
</g>
<g>
</g>
<g>
</g>
<g>
</g>
<g>
</g>
<g>
</g>
<g>
</g>
<g>
</g>
<g>
</g>
<g>
</g>
<g>
</g>
<g>
</g>
<g>
</g>
</svg>
