<svg height="512pt" viewBox="0 -5 512.00121 512" width="512pt" xmlns="http://www.w3.org/2000/svg"><path d="m366.496094 331.695312-195.949219-195.945312 41.441406-41.441406c.714844-.710938 1.871094-.710938 2.582031 0l193.363282 193.363281c.714844.714844.714844 1.871094 0 2.585937zm0 0" fill="#e1ebf0"/><path d="m407.933594 287.671875-193.363282-193.363281c-.710937-.710938-1.867187-.710938-2.582031 0l-19.3125 19.3125 159.675781 159.675781c8.652344 8.652344 8.652344 22.683594 0 31.335937l-6.460937 6.460938 20.605469 20.605469 41.4375-41.441407c.714844-.714843.714844-1.871093 0-2.585937zm0 0" fill="#b4d2d7"/><path d="m406.996094 286.734375-191.484375-191.484375 92.757812-92.761719c4.011719-4.011719 10.8125-3.039062 13.4375 1.984375 6.070313 11.617188 1.414063 21.261719 14.277344 34.125 15.953125 15.957032 26.957031 4.953125 42.914063 20.910156 15.957031 15.957032 4.953124 26.960938 20.910156 42.917969 15.957031 15.953125 26.960937 4.949219 42.917968 20.90625 15.960938 15.960938 4.953126 26.964844 20.914063 42.921875 12.867187 12.867188 22.511719 8.207032 34.132813 14.28125 5.023437 2.628906 5.992187 9.425782 1.984374 13.4375zm0 0" fill="#fffbd0"/><g fill="#fff8b1"><path d="m387.371094 221.542969c3.015625-3.019531 3.015625-7.910157 0-10.925781-3.019532-3.019532-7.910156-3.019532-10.929688 0l-22.78125 22.78125 10.929688 10.929687zm0 0"/><path d="m268.84375 148.585938 22.785156-22.785157c3.015625-3.015625 3.015625-7.910156 0-10.925781-3.019531-3.019531-7.910156-3.019531-10.929687 0l-22.78125 22.78125zm0 0"/><path d="m316.71875 196.457031 22.78125-22.785156c3.015625-3.015625 3.015625-7.910156 0-10.925781-3.019531-3.019532-7.910156-3.019532-10.929688 0l-22.78125 22.78125zm0 0"/><path d="m497.773438 180.535156c-11.621094-6.074218-21.265626-1.414062-34.132813-14.28125-15.960937-15.957031-4.953125-26.960937-20.914063-42.917968-15.957031-15.957032-26.960937-4.953126-42.917968-20.910157-15.957032-15.957031-4.953125-26.960937-20.910156-42.917969-15.953126-15.957031-26.957032-4.953124-42.914063-20.910156-12.863281-12.863281-8.207031-22.507812-14.277344-34.125-2.625-5.023437-9.425781-5.992187-13.4375-1.984375l-22.222656 22.226563c1.363281 4.34375 3.714844 8.871094 8.730469 13.886718 15.953125 15.953126 26.957031 4.949219 42.914062 20.90625 15.957032 15.957032 4.953125 26.960938 20.910156 42.917969 15.957032 15.957031 26.960938 4.953125 42.917969 20.910157 15.960938 15.957031 4.953125 26.960937 20.914063 42.921874 12.867187 12.867188 22.511718 8.203126 34.132812 14.28125 5.023438 2.625 5.992188 9.425782 1.984375 13.433594l-72.15625 72.160156 20.601563 20.601563 92.761718-92.761719c4.007813-4.007812 3.039063-10.808594-1.984374-13.4375zm0 0"/></g><path d="m345.269531 113.144531c21.910157 21.90625 8.21875 35.597657 30.128907 57.507813 21.910156 21.910156 35.601562 8.222656 57.515624 30.132812 15.996094 16 13.027344 27.617188 18.78125 41.25l48.0625-48.0625c4.007813-4.007812 3.039063-10.808594-1.988281-13.4375-11.617187-6.074218-21.261719-1.414062-34.128906-14.28125-15.960937-15.957031-4.957031-26.960937-20.914063-42.921875-15.957031-15.957031-26.960937-4.953125-42.917968-20.910156-15.957032-15.957031-4.953125-26.960937-20.910156-42.917969-15.957032-15.953125-26.960938-4.949218-42.917969-20.90625-12.863281-12.863281-8.203125-22.507812-14.273438-34.125-2.628906-5.027344-9.429687-5.996094-13.4375-1.984375l-39.289062 39.285157c5.75 13.628906 2.785156 25.246093 18.777343 41.238281 21.914063 21.914062 35.601563 8.222656 57.511719 30.132812zm0 0" fill="#ea7f87"/><path d="m500.542969 182.871094c-1.167969-1.535156-2.429688-2.207032-3.996094-2.941406-11.109375-5.167969-20.5-1.269532-32.90625-13.675782-15.972656-15.972656-4.964844-26.972656-20.914063-42.917968-12.898437-12.902344-22.464843-8.175782-34.148437-14.289063-4.898437-2.570313-9.425781-6.832031-12.453125-10.808594-10.558594-13.835937-2.667969-24.175781-17.222656-38.730469-16.386719-16.382812-27.589844-4.40625-44.074219-22.105468-11.433594-12.285156-7.234375-21.667969-13.121094-32.929688-2.621093-5.019531-9.421875-6-13.4375-1.984375-7.769531 7.773438-14.449219 14.449219-22.222656 22.222657 1.363281 4.347656 3.714844 8.871093 8.730469 13.886718 15.957031 15.957032 26.960937 4.953125 42.917968 20.910156 15.957032 15.957032 4.953126 26.960938 20.910157 42.917969 15.953125 15.957031 26.960937 4.953125 42.914062 20.910157 15.960938 15.957031 4.957031 26.960937 20.914063 42.917968 12.867187 12.867188 22.511718 8.207032 34.132812 14.28125 5.023438 2.628906 5.992188 9.429688 1.984375 13.4375l-17.257812 17.257813c6.714843 11.015625 5.976562 20.316406 10.402343 30.804687l48.0625-48.0625c3.09375-3.09375 3.230469-7.875.785157-11.101562zm0 0" fill="#e5646e"/><path d="m170.546875 135.75-60.449219 60.453125c-13.050781 13.046875-13.050781 34.203125 0 47.25l34.742188 34.742187c7.140625 7.140626 6.566406 18.886719-1.234375 25.296876l-123.585938 101.554687c-25.027343 20.566406-26.863281 58.230469-3.960937 81.136719 22.90625 22.90625 60.570312 21.066406 81.136718-3.960938l101.558594-123.582031c6.410156-7.804687 18.152344-8.378906 25.292969-1.234375l34.742187 34.742188c13.050782 13.046874 34.203126 13.046874 47.253907 0l60.449219-60.453126zm-103.316406 327.519531c-7.800781 7.804688-20.453125 7.804688-28.257813 0-7.800781-7.800781-7.800781-20.453125 0-28.257812 7.804688-7.800781 20.457032-7.800781 28.257813 0 7.804687 7.804687 7.804687 20.457031 0 28.257812zm0 0" fill="#d29380"/><path d="m170.546875 135.75-10.300781 10.300781 113.886718 113.886719c28.25 28.253906 28.25 74.058594 0 102.308594l-9.296874 9.300781c-4.945313 4.941406-11.050782 8.011719-17.4375 9.210937l11.390624 11.390626c13.050782 13.050781 34.203126 13.050781 47.253907 0l60.449219-60.449219zm0 0" fill="#c97e67"/><path d="m182.839844 336.800781c-7.140625-7.140625-18.882813-6.566406-25.292969 1.234375l-85.667969 104.25c2.574219 7.074219 1.027344 15.3125-4.648437 20.984375-4.945313 4.945313-11.839844 6.757813-18.210938 5.433594-10.566406 8.957031-23.84375 13.304687-37.050781 12.914063 1.261719 1.574218 2.625 3.101562 4.089844 4.566406 22.90625 22.90625 60.570312 21.066406 81.136718-3.960938l101.558594-123.582031c.910156-1.109375 1.933594-2.074219 3.035156-2.890625zm0 0" fill="#c97e67"/><path d="m512 296.328125c0 14.453125-11.714844 26.167969-26.164062 26.167969-14.453126 0-26.167969-11.714844-26.167969-26.167969 0-14.449219 18.238281-45.355469 26.167969-45.355469 7.925781 0 26.164062 30.90625 26.164062 45.355469zm0 0" fill="#ea7f87"/><path d="m485.835938 250.972656c-1.734376 0-3.960938 1.476563-6.378907 3.9375 6.339844 10.050782 11.941407 23.109375 11.941407 31.117188 0 14.449218-11.714844 26.164062-26.167969 26.164062-.066407 0-.136719 0-.207031 0 4.78125 6.261719 12.324218 10.304688 20.8125 10.304688 14.449218 0 26.164062-11.714844 26.164062-26.167969 0-14.449219-18.238281-45.355469-26.164062-45.355469zm0 0" fill="#e5646e"/><path d="m362.144531 292.339844c-1.976562 0-3.953125-.753906-5.464843-2.261719l-144.511719-144.515625c-3.019531-3.015625-3.019531-7.90625 0-10.925781 3.015625-3.015625 7.90625-3.015625 10.925781 0l144.515625 144.515625c3.019531 3.015625 3.019531 7.90625 0 10.925781-1.507813 1.507813-3.488281 2.261719-5.464844 2.261719zm0 0" fill="#b4d2d7"/><path d="m223.09375 134.636719c-2.757812-2.757813-7.085938-2.996094-10.113281-.710938l139.371093 139.371094c4.980469 4.980469 7.09375 11.742187 6.339844 18.234375 1.085938.539062 2.269532.808594 3.453125.808594 1.980469 0 3.957031-.753906 5.464844-2.261719 3.019531-3.019531 3.019531-7.910156 0-10.929687zm0 0" fill="#9bb9c3"/></svg>