<svg enable-background="new 0 0 512 512" viewBox="0 0 512 512" xmlns="http://www.w3.org/2000/svg"><g clip-rule="evenodd" fill-rule="evenodd"><g><path d="m149.754 60.423h32.43v266.908h-32.43z" fill="#d5a889"/><path d="m144.392 264.215h43.154c4.619 0 8.386 3.767 8.386 8.386v136.954c0 4.619-3.768 8.386-8.386 8.386h-43.154c-4.618 0-8.386-3.767-8.386-8.386v-136.954c0-4.618 3.767-8.386 8.386-8.386z" fill="#636c77"/><path d="m140.199 50.569h51.54c4.619 0 8.386 3.77 8.386 8.386v44.704c0 4.616-3.77 8.386-8.386 8.386h-51.54c-4.616 0-8.386-3.767-8.386-8.386v-44.704c0-4.619 3.767-8.386 8.386-8.386z" fill="#424852"/><path d="m222.472 32.187h34.053v38.709h-34.053l-11.939-19.368z" fill="#424852"/><path d="m252.399 15.41h21.566c4.619 0 8.386 3.767 8.386 8.386v55.49c0 4.619-3.767 8.386-8.386 8.386h-21.566c-4.619 0-8.386-3.767-8.386-8.386v-55.49c0-4.619 3.767-8.386 8.386-8.386z" fill="#636c77"/><path d="m109.466 15.41h104.619c4.619 0 8.386 3.767 8.386 8.386v55.49c0 4.619-3.767 8.386-8.386 8.386h-104.619c-8.01-33.011-63.349-25.563-85.718-21.117-1.635.324-3.218-.345-4.125-1.744-.906-1.397-.874-3.115.087-4.475 33.358-47.289 89.756-44.926 89.756-44.926z" fill="#636c77"/><path d="m109.466 87.672c-8.01-33.011-63.349-25.563-85.718-21.117-1.635.324-3.218-.345-4.125-1.744-.906-1.397-.874-3.115.087-4.475 33.359-47.289 89.757-44.926 89.757-44.926z" fill="#a9b0bb"/></g><path d="m365.631 85.076-17.961-26.121c-.515-.749-.661-1.598-.426-2.476l9.28-34.631c.297-1.108-.025-2.213-.871-2.989-.846-.775-1.975-.999-3.053-.607-16.457 5.991-29.828 19.644-34.705 37.844-5.83 21.76 2.102 43.962 18.46 57.373.932.764 1.308 1.932.996 3.096l-62.403 232.893c-.428 1.596.525 3.246 2.121 3.674l34.996 9.377c1.596.428 3.246-.525 3.674-2.121l62.403-232.893c.312-1.164 1.221-1.987 2.411-2.183 20.871-3.436 38.842-18.697 44.673-40.457 4.876-18.2.124-36.71-11.133-50.126-.738-.879-1.827-1.249-2.947-1.001s-1.952 1.044-2.249 2.152l-9.279 34.632c-.235.878-.786 1.54-1.607 1.931l-28.616 13.642c-1.343.64-2.922.217-3.764-1.009z" fill="#cad0d7"/><path d="m258.605 210.686 26.491-10.092 20.759-59.875-33.514-19.349-41.473 47.916 4.505 27.988-132.013 228.654 23.232 13.413z" fill="#a9b0bb"/><g><path d="m435.154 156.324c18.115 0 32.936 14.821 32.936 32.936v197.2h-65.871v-197.2c0-18.115 14.821-32.936 32.935-32.936z" fill="#a9b0bb"/><path d="m435.154 199.291c5.508 0 10-4.492 10-10s-4.492-10-10-10-10 4.492-10 10 4.493 10 10 10z" fill="#f4f6f8"/></g><g><path d="m486 496.609h-460c-5.508 0-10-4.492-10-10v-170.341c0-5.508 4.492-10 10-10h460c5.508 0 10 4.492 10 10v170.341c0 5.508-4.492 10-10 10z" fill="#fdcd56"/><g fill="#f5b945"><path d="m55.856 306.269h46.906v36.646c0 5.508-4.492 10-10 10h-26.906c-5.508 0-10-4.492-10-10z"/><path d="m55.856 383.233c-3.866 0-7-3.134-7-7s3.134-7 7-7h46.906c3.866 0 7 3.134 7 7s-3.134 7-7 7z"/><path d="m409.238 306.269h46.906v36.646c0 5.508-4.492 10-10 10h-26.906c-5.508 0-10-4.492-10-10z"/><path d="m409.238 383.233c-3.866 0-7-3.134-7-7s3.134-7 7-7h46.906c3.866 0 7 3.134 7 7s-3.134 7-7 7z"/></g></g></g></svg>