<?xml version="1.0" encoding="iso-8859-1"?>
<!-- Generator: Adobe Illustrator 19.0.0, SVG Export Plug-In . SVG Version: 6.00 Build 0)  -->
<svg version="1.1" id="Capa_1" xmlns="http://www.w3.org/2000/svg" xmlns:xlink="http://www.w3.org/1999/xlink" x="0px" y="0px"
	 viewBox="0 0 54 54" style="enable-background:new 0 0 54 54;" xml:space="preserve">
<g>
	<g>
		<path d="M51.412,35.108c-1.751,0.019-3.144-0.121-4.138-0.405c-3.012-0.86-3.941-2.093-3.942-2.093
			c-0.211-0.316-0.582-0.489-0.963-0.436c-0.378,0.05-0.695,0.311-0.817,0.672c-0.014,0.041-1.433,4.141-4.999,5.924
			c-3.704,1.853-10.416,1.4-10.481,1.397c-0.363-0.034-0.688,0.135-0.889,0.422c-0.202,0.287-0.239,0.658-0.098,0.979l5.148,11.671
			c0.162,0.367,0.523,0.597,0.915,0.597c0.052,0,0.105-0.004,0.158-0.013c9.626-1.544,17.693-8.2,21.053-17.371
			c0.113-0.308,0.068-0.651-0.121-0.92C52.049,35.264,51.72,35.087,51.412,35.108z M31.747,51.714l-4.188-9.494
			c2.386,0.014,6.869-0.152,9.889-1.661c2.922-1.461,4.606-4.092,5.411-5.704c0.781,0.567,2.01,1.24,3.867,1.771
			c0.865,0.247,1.947,0.399,3.23,0.457C46.683,44.656,39.859,50.155,31.747,51.714z"/>
		<path d="M27,0.164c-14.888,0-27,12.112-27,27C0,38.966,7.882,49.595,19.167,53.01c0.096,0.029,0.193,0.043,0.29,0.043
			c0.275,0,0.544-0.114,0.736-0.323c0.26-0.282,0.335-0.688,0.193-1.046C9.743,24.853,7.815,18.611,7.513,17.17
			c1.436-0.758,6.239-1.803,7.517-1.593c0.376,0.535,1.151,2.433,1.841,4.12c2.615,6.399,6.566,16.072,12.059,16.464
			c3.897,0.278,7.406-1.197,9.412-3.944c1.219-1.669,1.635-3.556,1.088-4.924c-0.832-2.08-4.67-10.836-6.036-13.946l6.016-1.504
			c1.313,3.121,6.074,14.262,8.324,16.962c0.98,1.176,2.668,1.896,5.017,2.141c0.559,0.046,1.039-0.341,1.098-0.889
			C53.948,29.105,54,28.131,54,27.164C54,12.277,41.888,0.164,27,0.164z M51.947,28.808c-1.262-0.246-2.178-0.683-2.679-1.284
			c-1.971-2.364-6.691-13.248-8.345-17.242c-0.189-0.457-0.687-0.71-1.166-0.587l-8,2c-0.286,0.071-0.526,0.265-0.656,0.529
			c-0.129,0.265-0.136,0.573-0.017,0.843c0.055,0.125,5.504,12.514,6.486,14.969c0.237,0.593,0.067,1.751-0.846,3.002
			c-1.598,2.187-4.458,3.355-7.654,3.13c-4.253-0.304-8.219-10.012-10.35-15.227c-1.563-3.825-2.052-4.94-2.905-5.225
			c-1.8-0.602-8.733,0.949-10.023,2.241c-0.651,0.651-1.217,1.216,11.927,34.427C8.366,46.63,2,37.371,2,27.164
			c0-13.785,11.215-25,25-25s25,11.215,25,25C52,27.712,51.982,28.262,51.947,28.808z"/>
	</g>
</g>
<g>
</g>
<g>
</g>
<g>
</g>
<g>
</g>
<g>
</g>
<g>
</g>
<g>
</g>
<g>
</g>
<g>
</g>
<g>
</g>
<g>
</g>
<g>
</g>
<g>
</g>
<g>
</g>
<g>
</g>
</svg>
