<svg height="512" viewBox="0 0 59 58" width="512" xmlns="http://www.w3.org/2000/svg"><g id="Page-1" fill="none" fill-rule="evenodd"><g id="031---Video-Sections" fill-rule="nonzero"><rect id="Rectangle-path" fill="#24ae5f" height="14" rx="3" width="49" x="10" y="44"/><rect id="Rectangle-path" fill="#f0c419" height="14" rx="3" width="49" x="10" y="26"/><rect id="Rectangle-path" fill="#ff5364" height="14" rx="3" width="49" x="10" y="8"/><path id="Shape" d="m16.5 48.462 2.976 1.653c.3216306.1783814.521165.5172145.521165.885s-.1995344.7066186-.521165.885l-2.976 1.653c-.3132634.1724327-.694271.1667451-1.0022479-.0149613-.3079769-.1817063-.4971989-.5124542-.4977521-.8700387v-3.306c.0005532-.3575845.1897752-.6883324.4977521-.8700387.3079769-.1817064.6889845-.187394 1.0022479-.0149613z" fill="#fff"/><path id="Shape" d="m16.5 30.462 2.976 1.653c.3216306.1783814.521165.5172145.521165.885s-.1995344.7066186-.521165.885l-2.976 1.653c-.3132634.1724327-.694271.1667451-1.0022479-.0149613-.3079769-.1817063-.4971989-.5124542-.4977521-.8700387v-3.306c.0005532-.3575845.1897752-.6883324.4977521-.8700387.3079769-.1817064.6889845-.187394 1.0022479-.0149613z" fill="#fff"/><path id="Shape" d="m16.5 12.462 2.976 1.653c.3216306.1783814.521165.5172145.521165.885s-.1995344.7066186-.521165.885l-2.976 1.653c-.3132634.1724327-.694271.1667451-1.0022479-.0149613-.3079769-.1817063-.4971989-.5124542-.4977521-.8700387v-3.306c.0005532-.3575845.1897752-.6883324.4977521-.8700387.3079769-.1817064.6889845-.187394 1.0022479-.0149613z" fill="#fff"/><rect id="Rectangle-path" fill="#3f5c6c" height="4" rx="2" width="47" x="11"/><g fill="#fff"><path id="Shape" d="m52 14h-15c-.5522847 0-1-.4477153-1-1s.4477153-1 1-1h15c.5522847 0 1 .4477153 1 1s-.4477153 1-1 1z"/><path id="Shape" d="m33 14h-7c-.5522847 0-1-.4477153-1-1s.4477153-1 1-1h7c.5522847 0 1 .4477153 1 1s-.4477153 1-1 1z"/><path id="Shape" d="m43 18h-17c-.5522847 0-1-.4477153-1-1s.4477153-1 1-1h17c.5522847 0 1 .4477153 1 1s-.4477153 1-1 1z"/><path id="Shape" d="m52 32h-15c-.5522847 0-1-.4477153-1-1s.4477153-1 1-1h15c.5522847 0 1 .4477153 1 1s-.4477153 1-1 1z"/><path id="Shape" d="m33 32h-7c-.5522847 0-1-.4477153-1-1s.4477153-1 1-1h7c.5522847 0 1 .4477153 1 1s-.4477153 1-1 1z"/><path id="Shape" d="m43 36h-17c-.5522847 0-1-.4477153-1-1s.4477153-1 1-1h17c.5522847 0 1 .4477153 1 1s-.4477153 1-1 1z"/><path id="Shape" d="m52 50h-15c-.5522847 0-1-.4477153-1-1s.4477153-1 1-1h15c.5522847 0 1 .4477153 1 1s-.4477153 1-1 1z"/><path id="Shape" d="m33 50h-7c-.5522847 0-1-.4477153-1-1s.4477153-1 1-1h7c.5522847 0 1 .4477153 1 1s-.4477153 1-1 1z"/><path id="Shape" d="m43 54h-17c-.5522847 0-1-.4477153-1-1s.4477153-1 1-1h17c.5522847 0 1 .4477153 1 1s-.4477153 1-1 1z"/></g><path id="Shape" d="m3 46h-2c-.55228475 0-1 .4477153-1 1s.44771525 1 1 1h2c.55228475 0 1 .4477153 1 1s-.44771525 1-1 1-1 .4477153-1 1 .44771525 1 1 1 1 .4477153 1 1-.44771525 1-1 1h-2c-.55228475 0-1 .4477153-1 1s.44771525 1 1 1h2c1.18267885-.000815 2.25451294-.6963988 2.73696747-1.7761985.48245454-1.0797998.28548556-2.3422848-.50296747-3.2238015.78845303-.8815167.98542201-2.1440017.50296747-3.2238015-.48245453-1.0797997-1.55428862-1.7753835-2.73696747-1.7761985z" fill="#3f5c6c"/><path id="Shape" d="m1 18c-.55228475 0-1 .4477153-1 1s.44771525 1 1 1h4c.55228475 0 1-.4477153 1-1s-.44771525-1-1-1h-1v-7c-.00008635-.4043959-.2437275-.7689341-.61734544-.923678-.37361794-.15474391-.80366031-.0692299-1.08965456.216678l-2 2c-.37897221.3923789-.37355237 1.0160848.01218143 1.4018186.38573379.3857338 1.00943968.3911536 1.40181857.0121814l.293-.293v4.586z" fill="#3f5c6c"/><path id="Shape" d="m6 36h-2.28c1.3413808-1.3348977 2.15170907-3.1119334 2.28-5 0-1.6568542-1.34314575-3-3-3s-3 1.3431458-3 3c0 .5522847.44771525 1 1 1s1-.4477153 1-1 .44771525-1 1-1 1 .4477153 1 1c0 1.039-.749 3.3-3.555 5.168-.36665571.2444851-.53004275.7001723-.40227078 1.1219349.12777198.4217626.51657885.710164.95727078.7100651h5c.55228475 0 1-.4477153 1-1s-.44771525-1-1-1z" fill="#3f5c6c"/></g></g></svg>