<svg id="Layer_1" enable-background="new 0 0 512 512" height="512" viewBox="0 0 512 512" width="512" xmlns="http://www.w3.org/2000/svg"><g><path d="m91.422 220.823h329.157v70.353h-329.157z" fill="#88c3e0" transform="matrix(.707 -.707 .707 .707 -106.039 256)"/><path d="m105.221 254.138h329.157v31.323h-329.157z" fill="#6eabc9" transform="matrix(.707 -.707 .707 .707 -111.755 269.799)"/><path d="m484.184 161.073c-37.506 37.506-98.511 37.108-135.155-1.305-34.896-36.582-34.294-95.142 1.317-131.364 25.366-25.801 61.741-34.034 94.02-24.658 3.692 1.073 4.906 5.681 2.177 8.41l-40.613 40.613c-.026 11.128-.041 17.367-.067 28.495l24.874 24.874c11.128-.026 17.367-.041 28.495-.067l40.614-40.614c2.732-2.732 7.338-1.51 8.411 2.186 9.302 32.03 1.263 68.093-24.073 93.43z" fill="#a9dbf5"/><g><path d="m484.184 161.072c25.336-25.336 33.375-61.399 24.074-93.43-1.073-3.696-5.679-4.918-8.411-2.186l-12.822 12.822c-1.979 21.233-11.106 41.954-27.394 58.242-32.737 32.737-83.376 36.59-120.092 11.496 2.806 4.109 5.956 8.047 9.49 11.751 36.643 38.414 97.649 38.811 135.155 1.305z" fill="#88c3e0"/></g><path d="m27.816 350.927c37.506-37.506 98.511-37.108 135.155 1.305 34.896 36.582 34.294 95.142-1.317 131.364-25.366 25.801-61.741 34.034-94.02 24.658-3.692-1.073-4.906-5.681-2.177-8.41l40.613-40.613c.026-11.128.041-17.367.067-28.495l-24.874-24.874c-11.128.026-17.367.041-28.495.067l-40.614 40.614c-2.732 2.732-7.338 1.51-8.411-2.186-9.302-32.03-1.263-68.093 24.073-93.43z" fill="#a9dbf5"/><g><path d="m127.195 352.233c34.896 36.582 34.294 95.142-1.317 131.364-14.059 14.3-31.501 23.193-49.752 26.693 30.022 5.77 62.364-3.133 85.528-26.693 35.611-36.222 36.213-94.782 1.317-131.364-23.013-24.125-55.634-33.246-86.009-27.41 18.528 3.553 36.175 12.672 50.233 27.41z" fill="#88c3e0"/></g><path d="m232.261 209.844-22.418 22.418-208.295-208.297c-2.063-2.063-2.063-5.409 0-7.473l14.945-14.944c2.063-2.063 5.409-2.063 7.473 0z" fill="#a9dbf5"/><path d="m375.957 291.763 125.769 125.769c13.699 13.699 13.699 35.91 0 49.61l-34.584 34.584c-13.699 13.699-35.91 13.699-49.61 0l-125.769-125.769c-7.892-7.892-14.686-16.809-20.201-26.513l-8.013-14.099c-5.515-9.703-12.309-18.621-20.201-26.513l-42.463-42.463 65.484-65.484 42.463 42.463c7.892 7.892 16.809 14.686 26.513 20.201l14.099 8.013c9.703 5.515 18.621 12.309 26.513 20.201z" fill="#f75632"/><path d="m349.444 271.562-14.099-8.013c-9.703-5.514-18.621-12.309-26.513-20.201l-42.463-42.463-21.887 21.887 42.463 42.463c7.892 7.892 16.809 14.687 26.513 20.201l14.099 8.013c9.703 5.514 18.621 12.309 26.513 20.201l125.769 125.769c13.699 13.699 13.699 35.91 0 49.61l21.887-21.887c13.699-13.699 13.699-35.91 0-49.61l-125.769-125.769c-7.892-7.892-16.81-14.686-26.513-20.201z" fill="#e33629"/><g><path d="m420.329 482.636c-6.044 6.044-15.843 6.044-21.887 0l-91.924-91.924c-6.044-6.044-6.044-15.843 0-21.887 6.044-6.044 15.843-6.044 21.887 0l91.924 91.924c6.044 6.044 6.044 15.843 0 21.887z" fill="#f3f3f3"/><path d="m482.636 420.329c-6.044 6.044-15.843 6.044-21.887 0l-91.924-91.924c-6.044-6.044-6.044-15.843 0-21.887 6.044-6.044 15.843-6.044 21.887 0l91.924 91.924c6.044 6.044 6.044 15.843 0 21.887z" fill="#e4e4e4"/></g><path d="m272.381 206.996-65.385 65.385c-7.706 7.706-20.315 7.706-28.021 0l-.001-.001c-7.706-7.706-7.706-20.315 0-28.021l65.385-65.385c7.706-7.706 20.315-7.706 28.021 0l.001.001c7.706 7.705 7.706 20.315 0 28.021z" fill="#f3f3f3"/><path d="m272.381 178.974c-7.706-7.706-20.316-7.706-28.022-.001l-20.066 20.065c7.706-7.706 20.315-7.706 28.021 0l.001.001c7.706 7.706 7.706 20.315 0 28.021l20.066-20.065c7.706-7.705 7.706-20.315 0-28.021z" fill="#e4e4e4"/></g></svg>