<svg id="Layer_1" enable-background="new 0 0 512.002 512.002" viewBox="0 0 512.002 512.002" xmlns="http://www.w3.org/2000/svg"><path d="m241.807 332.011c-61.661 0-111.826-50.263-111.826-112.045v-107.695c0-61.782 50.165-112.045 111.826-112.045 61.662 0 111.827 50.263 111.827 112.045v107.695c0 61.782-50.165 112.045-111.827 112.045z" fill="#dada3b"/><path d="m241.808.226v331.785c61.662 0 111.827-50.263 111.827-112.045v-107.695c-.001-61.782-50.166-112.045-111.827-112.045z" fill="#9dbc29"/><path d="m241.053 107.925c-8.268 0-14.971 6.716-14.971 15v45.718l-9.977-10.096c-5.817-5.887-15.295-5.934-21.172-.105-5.875 5.829-5.923 15.326-.105 21.213l31.253 31.628v285.527c0 8.284 6.703 15 14.971 15s14.971-6.716 14.971-15v-373.885c.001-8.284-6.702-15-14.97-15z" fill="#a34f3e"/><path d="m241.808 107.982v403.808c7.915-.396 14.217-6.933 14.217-14.962v-373.885c-.001-8.029-6.302-14.565-14.217-14.961z" fill="#873f2e"/><path d="m84.382 510.962c-8.268 0-14.971-6.716-14.971-15v-92.339c0-8.284 6.703-15 14.971-15s14.971 6.716 14.971 15v92.339c0 8.284-6.703 15-14.971 15z" fill="#c86e59"/><path d="m84.382 388.623v122.339c8.268 0 14.971-6.716 14.971-15v-92.339c0-8.285-6.703-15-14.971-15z" fill="#a34f3e"/><path d="m84.382 418.623c-24.227 0-46.163-17.077-61.768-48.085-13.961-27.744-21.65-64.299-21.65-102.93 0-79.149 68.463-172.906 71.378-176.858 2.823-3.828 7.291-6.087 12.041-6.087s9.218 2.259 12.041 6.087c2.914 3.953 71.377 97.709 71.377 176.858 0 38.631-7.689 75.186-21.651 102.93-15.604 31.008-37.541 48.085-61.768 48.085z" fill="#dada3b"/><path d="m96.423 90.75c-2.823-3.828-7.291-6.087-12.041-6.087v333.96c24.227 0 46.163-17.077 61.768-48.085 13.962-27.744 21.651-64.299 21.651-102.93-.001-79.149-68.464-172.906-71.378-176.858z" fill="#9dbc29"/><path d="m454.909 131.449c-46.289 6.398-85.114-35.728-73.006-82.825 5.827-22.667 23.668-40.543 46.291-46.381 47.005-12.132 89.049 26.769 82.663 73.149-4.003 29.08-26.924 52.045-55.948 56.057z" fill="#ffdd54"/><path d="m445.583.001v132.085c3.066 0 6.178-.203 9.326-.638 29.023-4.011 51.944-26.977 55.948-56.057 5.584-40.555-25.861-75.39-65.274-75.39z" fill="#ffb454"/><path d="m447.109 307.45c-8.268 0-14.971-6.716-14.971-15v-83.894c0-8.284 6.703-15 14.971-15s14.971 6.716 14.971 15v83.894c0 8.284-6.703 15-14.971 15z" fill="#ff405c"/><path d="m147.671 512.002v-197.405c0-1.429.612-2.792 1.679-3.74l159.351-141.635c.914-.812 2.09-1.26 3.311-1.26 1.222 0 2.398.448 3.312 1.26l159.35 141.635c1.067.948 1.679 2.312 1.679 3.74v197.404h-328.682z" fill="#fff2de"/><path d="m474.674 310.857-159.35-141.635c-.914-.812-2.09-1.26-3.312-1.26v344.039h164.341v-197.404c0-1.428-.612-2.792-1.679-3.74z" fill="#fde4c3"/><path d="m277.417 512.002h-89.825v-156.618c0-8.284 6.703-15 14.971-15h59.883c8.268 0 14.971 6.716 14.971 15z" fill="#a34f3e"/><path d="m406.184 427.872h-51.17c-5.848 0-10.589-4.75-10.589-10.609v-51.27c0-5.859 4.741-10.609 10.589-10.609h51.17c5.848 0 10.589 4.75 10.589 10.609v51.27c0 5.859-4.741 10.609-10.589 10.609z" fill="#c8ffff"/><path d="m416.773 442.872h-72.347c-8.268 0-14.971-6.716-14.971-15v-72.488c0-8.284 6.703-15 14.971-15h72.347c8.268 0 14.971 6.716 14.971 15v72.488c-.001 8.284-6.703 15-14.971 15zm-57.377-30h42.405v-42.488h-42.405z" fill="#a34f3e"/><path d="m496.027 351.524c-3.533.001-7.079-1.245-9.929-3.779l-174.086-154.731-174.085 154.731c-6.184 5.497-15.647 4.931-21.134-1.267-5.487-6.197-4.921-15.678 1.265-21.175l184.02-163.562c5.669-5.038 14.201-5.038 19.869 0l184.02 163.562c6.185 5.498 6.751 14.978 1.265 21.175-2.959 3.341-7.073 5.046-11.205 5.046z" fill="#ff405c"/><path d="m505.967 325.303-184.02-163.562c-2.834-2.519-6.384-3.779-9.935-3.779v35.051l174.085 154.731c2.85 2.534 6.397 3.779 9.929 3.779 4.133 0 8.247-1.705 11.205-5.046 5.487-6.196 4.921-15.677-1.264-21.174z" fill="#e20059"/><path d="m497.03 512.002h-482.058c-8.268-.192-14.971-6.908-14.971-15.192s6.703-15 14.971-15h482.058c8.268 0 14.971 6.716 14.971 15s-6.703 15-14.971 15.192z" fill="#dada3b"/><path d="m497.03 481.81h-241.006v30.192h241.006c8.268-.192 14.971-6.908 14.971-15.192 0-8.285-6.703-15-14.971-15z" fill="#9dbc29"/></svg>