<?xml version="1.0" encoding="iso-8859-1"?>
<!-- Generator: Adobe Illustrator 19.0.0, SVG Export Plug-In . SVG Version: 6.00 Build 0)  -->
<svg version="1.1" id="Capa_1" xmlns="http://www.w3.org/2000/svg" xmlns:xlink="http://www.w3.org/1999/xlink" x="0px" y="0px"
	 viewBox="0 0 512 512" style="enable-background:new 0 0 512 512;" xml:space="preserve">
<g>
	<path style="fill:#D1CFCF;" d="M495.659,139.803h-338.4v70.809H495.66c9.024,0,16.34-7.315,16.34-16.341v-38.127
		C512,147.119,504.683,139.803,495.659,139.803z"/>
	<path style="fill:#D1CFCF;" d="M500.683,52.29l-7.558-37.369c-1.79-8.846-10.413-14.567-19.255-12.778l-331.725,67.71l0.047,0.237
		c8.429,0.651,15.067,7.68,15.067,16.275v52.672l330.647-67.489C496.749,69.757,502.47,61.136,500.683,52.29z"/>
</g>
<path style="fill:#C1BDBD;" d="M180.161,134.362V78.785c0-6.092-2.675-11.548-6.909-15.282l-31.108,6.349l0.047,0.237
	c8.429,0.651,15.067,7.68,15.067,16.275v52.672L180.161,134.362z"/>
<polygon style="fill:#414356;" points="199.955,139.803 157.26,139.803 157.26,210.61 227.943,210.61 "/>
<rect x="157.257" y="139.805" style="fill:#2F3244;" width="22.902" height="70.809"/>
<g>
	<polygon style="fill:#414356;" points="290.088,210.61 352.237,210.61 324.247,139.803 262.1,139.803 	"/>
	<polygon style="fill:#414356;" points="414.382,210.61 476.527,210.61 448.54,139.803 386.392,139.803 	"/>
	<polygon style="fill:#414356;" points="272.527,43.24 211.524,55.691 197.884,130.745 259.14,118.242 	"/>
	<polygon style="fill:#414356;" points="394.388,18.367 333.457,30.804 320.07,105.804 380.998,93.368 	"/>
	<path style="fill:#414356;" d="M493.125,14.921c-1.79-8.846-10.413-14.567-19.255-12.778L455.317,5.93l-13.391,75.002l45.98-9.385
		c8.844-1.791,14.565-10.411,12.777-19.256L493.125,14.921z"/>
</g>
<path style="fill:#D63322;" d="M495.659,209.58H261.261c-8.915,0-223.808,0-232.665,0c0,25.721,0,279.359,0,284.264
	c0,9.025,7.317,16.34,16.341,16.34h450.723c9.024,0,16.34-7.316,16.34-16.34V225.921C512,216.897,504.683,209.58,495.659,209.58z"/>
<path style="fill:#C12D21;" d="M49.2,493.844c0-4.907,0-258.543,0-284.264c-9.039,0-7.395,0-20.605,0c0,25.721,0,279.359,0,284.264
	c0,9.025,7.317,16.34,16.341,16.34h20.605C56.517,510.185,49.2,502.869,49.2,493.844z"/>
<path style="fill:#EFEFEF;" d="M346.255,357.617c0,44.384-35.978,80.363-80.361,80.363c-44.386,0-80.364-35.979-80.364-80.363
	s35.978-80.364,80.364-80.364C310.277,277.253,346.255,313.233,346.255,357.617z"/>
<path style="fill:#D1CFCF;" d="M206.135,357.617c0-40.89,30.546-74.624,70.062-79.684c-48.527-6.219-90.667,31.592-90.667,79.684
	c0,48.085,42.136,85.902,90.667,79.683C236.68,432.24,206.135,398.508,206.135,357.617z"/>
<path style="fill:#49B5CE;" d="M142.978,68.994H44.936c-9.024,0-16.341,7.317-16.341,16.341v25.873l0,0v57.191l0,0
	c0,57.727,0,7.276,0,42.213c65.235,0,64.415,0,130.725,0c0-7.652,0-62.529,0-70.809V85.335
	C159.32,76.311,152.002,68.994,142.978,68.994z"/>
<path style="fill:#37A9BC;" d="M49.2,168.398L49.2,168.398v-57.191l0,0V85.335c0-9.024,7.317-16.341,16.341-16.341H44.936
	c-9.024,0-16.341,7.317-16.341,16.341v25.873l0,0v57.191l0,0c0,57.727,0,7.276,0,42.213c12.887,0,12.171,0,20.605,0
	C49.2,179.727,49.2,223.92,49.2,168.398z"/>
<path style="fill:#49B5CE;" d="M292.404,353.126l-37.618-21.138c-1.594-0.896-3.545-0.879-5.125,0.045
	c-1.579,0.924-2.55,2.616-2.55,4.446v42.275c0,2.85,2.314,5.151,5.151,5.151c0.87,0,1.739-0.219,2.523-0.66l37.618-21.138
	C295.904,360.141,295.903,355.092,292.404,353.126z"/>
<path style="fill:#37A9BC;" d="M266.922,338.808l-12.136-6.819c-1.594-0.896-3.545-0.879-5.125,0.045
	c-1.579,0.924-2.55,2.616-2.55,4.446v42.275c0,2.85,2.314,5.151,5.151,5.151c0.87,0,1.739-0.219,2.523-0.66l12.136-6.819v-37.618
	H266.922z"/>
<circle style="fill:#414356;" cx="28.595" cy="139.805" r="28.595"/>
<path style="fill:#2F3244;" d="M42.894,115.042C23.933,104.07,0,117.757,0,139.803c0,15.794,12.804,28.595,28.595,28.595
	c5.211,0,10.091-1.4,14.299-3.835C23.844,153.539,23.848,126.064,42.894,115.042z"/>
<g>
</g>
<g>
</g>
<g>
</g>
<g>
</g>
<g>
</g>
<g>
</g>
<g>
</g>
<g>
</g>
<g>
</g>
<g>
</g>
<g>
</g>
<g>
</g>
<g>
</g>
<g>
</g>
<g>
</g>
</svg>
