<svg enable-background="new 0 0 512 512" height="512" viewBox="0 0 512 512" width="512" xmlns="http://www.w3.org/2000/svg"><g><circle cx="357.079" cy="171.063" fill="#fd7f86" r="154.921"/><path d="m301.663 171.063c0 85.561-57.162 147.453-142.722 147.453s-153.969-61.893-153.969-147.453c0-43.789 15.198-82.473 44.407-110.65 6.105-5.889 17.695-16.971 17.695-16.971 24.964-17.217 55.228-27.3 87.847-27.3 38.626 0 73.951 14.136 101.083 37.517 0 0-2.303 6.838-.004 9.081 28.834 28.135 45.663 64.854 45.663 108.323z" fill="#b3e5ff"/><path d="m276.779 266.725c-28.361 36.087-72.401 59.256-121.86 59.256-85.557.001-154.919-69.362-154.919-154.918 0-52.941 26.557-99.682 67.074-127.621-20.727 26.342-33.078 59.567-33.078 95.685 0 85.556 69.362 154.919 154.919 154.919 32.625 0 62.892-10.085 87.864-27.321z" fill="#84ddff"/><path d="m410.921 340.94c0 25.773-6.296 50.076-17.43 71.456 0 0-8.229 9.395-11.74 14.518-27.912 40.733-76.04 62.053-129.148 62.053-85.561 0-141.947-65.914-141.947-151.474s145.344-151.474 145.344-151.474 120.545 49.019 137.488 116.207c1.165 4.621 14.861 10.037 15.601 14.813 1.206 7.79 1.832 15.773 1.832 23.901z" fill="#ffdf6b"/><path d="m309.837 171.063c0 8.128-.628 16.112-1.834 23.9-16.256-5.79-33.759 3.712-52.004 3.712s-35.747-9.502-52.004-3.712c-1.205-7.788-1.834-15.772-1.834-23.9 0-46.935 20.871-88.997 53.837-117.399 32.968 28.402 53.839 70.464 53.839 117.399z" fill="#30aee5"/><path d="m409.085 317.04c-16.256 5.79-33.759 8.942-52.004 8.942-38.632 0-73.946-14.134-101.081-37.519 13.629-11.744 9.835-35.43 18.709-51.221 8.874-15.79 30.415-23.684 33.294-42.279 52.735 18.791 92.294 65.355 101.082 122.077z" fill="#ffa44d"/><path d="m256 288.462c-27.135 23.385-62.45 37.519-101.081 37.519-18.245 0-35.747-3.152-52.004-8.942 7.741-22.958 15.343-45.464 28.684-64.456 5.325-7.581 15.428-21.75 15.428-21.75 15.972-15.811 35.364-28.173 56.969-35.871 2.789 18.013 16.322 26.879 24.755 42.279 8.977 16.394 13.194 39.11 27.249 51.221z" fill="#9ae69d"/><path d="m308.004 194.963c-5.759 37.189-24.745 70.011-52.004 93.499-27.259-23.488-46.245-56.31-52.004-93.499 16.256-5.79 33.759-8.942 52.004-8.942s35.747 3.153 52.004 8.942z" fill="#f9f8f9"/><path d="m393.488 412.393c-25.827 49.593-77.707 83.465-137.488 83.465-85.557 0-154.919-69.362-154.919-154.919 0-8.128.628-16.112 1.834-23.9 4.457 1.587 12.223-10.758 16.855-9.578 4.898 1.247 6.671 15.995 11.743 16.768 10.796 75.008 75.337 132.656 153.332 132.656 42.32.002 80.684-16.965 108.643-44.492z" fill="#ffce4b"/><path d="m129.926 301.968c0 7.561.546 14.989 1.586 22.262-9.869-1.504-19.429-3.925-28.598-7.191 5.192-33.481 21.098-63.428 44.112-86.205.113-.103.227-.216.33-.319-11.135 21.376-17.43 45.678-17.43 71.453z" fill="#75db9e"/></g></svg>