<svg xmlns="http://www.w3.org/2000/svg" version="1.1" xmlns:xlink="http://www.w3.org/1999/xlink" viewBox="0 0 512 512" style="enable-background:new 0 0 512 512" xml:space="preserve" class=""><g><path fill="#adaaa4" d="M497 512H15c-8.291 0-15-6.709-15-15V375c0-8.291 6.709-15 15-15h482c8.291 0 15 6.709 15 15v122c0 8.291-6.709 15-15 15z" opacity="1" data-original="#ffbe40"></path><path fill="#c3cbbb" d="M137 150H15c-8.291 0-15-6.709-15-15V15C0 6.709 6.709 0 15 0h122c8.291 0 15 6.709 15 15v120c0 8.291-6.709 15-15 15zM317 150H197c-8.291 0-15-6.709-15-15V15c0-8.291 6.709-15 15-15h120c8.291 0 15 6.709 15 15v120c0 8.291-6.709 15-15 15z" opacity="1" data-original="#a0e65c" class=""></path><path fill="#c3cbbb" d="M497 150H377c-8.291 0-15-6.709-15-15V15c0-8.291 6.709-15 15-15h120c8.291 0 15 6.709 15 15v120c0 8.291-6.709 15-15 15z" opacity="1" data-original="#79cc52" class=""></path><path fill="#c1c3c7" d="M96.395 274.395 92 278.789V195c0-8.291-6.709-15-15-15s-15 6.709-15 15v83.789l-4.395-4.395c-5.859-5.859-15.352-5.859-21.211 0s-5.859 15.352 0 21.211l29.982 29.982c5.781 5.796 15.338 5.925 21.248 0l29.982-29.982c5.859-5.859 5.859-15.352 0-21.211s-15.352-5.859-21.211.001zM276.395 274.395 272 278.789V195c0-8.291-6.709-15-15-15s-15 6.709-15 15v83.789l-4.395-4.395c-5.859-5.859-15.352-5.859-21.211 0s-5.859 15.352 0 21.211l29.982 29.982c5.932 5.948 15.486 5.777 21.248 0l29.982-29.982c5.859-5.859 5.859-15.352 0-21.211s-15.352-5.859-21.211.001z" opacity="1" data-original="#4d5e80" class=""></path><path fill="#c1c3c7" d="M477.605 274.395c-5.859-5.859-15.352-5.859-21.211 0L452 278.789V195c0-8.291-6.709-15-15-15s-15 6.709-15 15v83.789l-4.395-4.395c-5.859-5.859-15.352-5.859-21.211 0s-5.859 15.352 0 21.211l29.982 29.982c5.932 5.948 15.486 5.777 21.248 0l29.982-29.982c5.859-5.859 5.859-15.351-.001-21.21z" opacity="1" data-original="#3d4566" class=""></path><path fill="#adaaa4" d="M256.998 512H497c8.291 0 15-6.709 15-15V375c0-8.291-6.709-15-15-15H256.998z" opacity="1" data-original="#ff9f40" class=""></path><path fill="#c1c3c7" d="M256.998 329.971c3.873-.005 7.727-1.478 10.626-4.384l29.982-29.982c5.859-5.859 5.859-15.352 0-21.211s-15.352-5.859-21.211 0L272 278.789V195c0-8.291-6.709-15-15-15h-.002z" opacity="1" data-original="#3d4566" class=""></path><path fill="#c3cbbb" d="M317 150c8.291 0 15-6.709 15-15V15c0-8.291-6.709-15-15-15h-60.002v150z" opacity="1" data-original="#79cc52"></path></g></svg>