<svg enable-background="new 0 0 512 512" viewBox="0 0 512 512" xmlns="http://www.w3.org/2000/svg"><path d="m497 512h-482c-8.291 0-15-6.709-15-15v-122c0-8.291 6.709-15 15-15h482c8.291 0 15 6.709 15 15v122c0 8.291-6.709 15-15 15z" fill="#ffbe40"/><path d="m137 150h-122c-8.291 0-15-6.709-15-15v-120c0-8.291 6.709-15 15-15h122c8.291 0 15 6.709 15 15v120c0 8.291-6.709 15-15 15z" fill="#a0e65c"/><g><path d="m317 150h-120c-8.291 0-15-6.709-15-15v-120c0-8.291 6.709-15 15-15h120c8.291 0 15 6.709 15 15v120c0 8.291-6.709 15-15 15z" fill="#a0e65c"/><g><path d="m497 150h-120c-8.291 0-15-6.709-15-15v-120c0-8.291 6.709-15 15-15h120c8.291 0 15 6.709 15 15v120c0 8.291-6.709 15-15 15z" fill="#79cc52"/></g><g><path d="m96.395 274.395-4.395 4.394v-83.789c0-8.291-6.709-15-15-15s-15 6.709-15 15v83.789l-4.395-4.395c-5.859-5.859-15.352-5.859-21.211 0s-5.859 15.352 0 21.211l29.982 29.982c5.781 5.796 15.338 5.925 21.248 0l29.982-29.982c5.859-5.859 5.859-15.352 0-21.211s-15.352-5.859-21.211.001z" fill="#4d5e80"/><path d="m276.395 274.395-4.395 4.394v-83.789c0-8.291-6.709-15-15-15s-15 6.709-15 15v83.789l-4.395-4.395c-5.859-5.859-15.352-5.859-21.211 0s-5.859 15.352 0 21.211l29.982 29.982c5.932 5.948 15.486 5.777 21.248 0l29.982-29.982c5.859-5.859 5.859-15.352 0-21.211s-15.352-5.859-21.211.001z" fill="#4d5e80"/><path d="m477.605 274.395c-5.859-5.859-15.352-5.859-21.211 0l-4.394 4.394v-83.789c0-8.291-6.709-15-15-15s-15 6.709-15 15v83.789l-4.395-4.395c-5.859-5.859-15.352-5.859-21.211 0s-5.859 15.352 0 21.211l29.982 29.982c5.932 5.948 15.486 5.777 21.248 0l29.982-29.982c5.859-5.859 5.859-15.351-.001-21.21z" fill="#3d4566"/></g></g><path d="m256.998 512h240.002c8.291 0 15-6.709 15-15v-122c0-8.291-6.709-15-15-15h-240.002z" fill="#ff9f40"/><path d="m256.998 329.971c3.873-.005 7.727-1.478 10.626-4.384l29.982-29.982c5.859-5.859 5.859-15.352 0-21.211s-15.352-5.859-21.211 0l-4.395 4.395v-83.789c0-8.291-6.709-15-15-15h-.002z" fill="#3d4566"/><path d="m317 150c8.291 0 15-6.709 15-15v-120c0-8.291-6.709-15-15-15h-60.002v150z" fill="#79cc52"/></svg>