<svg enable-background="new 0 0 512 512" viewBox="0 0 512 512" xmlns="http://www.w3.org/2000/svg"><g><path d="m262.801 159.288-33.084-33.033-24.132 24.095 42.133 42.069c3.798 3.792 9.162 5.577 14.479 4.819l14.077-2.008c2.815-.401 5.228 2.008 4.826 4.819l-9.653 67.466c-.804 5.622 4.022 10.441 9.653 9.638l40.823-5.823c2.658-.379 5.34.513 7.239 2.409l33.914 33.862 24.132-24.095-42.964-42.898c-3.798-3.792-9.162-5.577-14.479-4.819l-14.076 2.008c-2.815.402-5.229-2.008-4.827-4.819l9.653-67.466c.804-5.622-4.022-10.441-9.653-9.638l-40.823 5.823c-2.657.38-5.339-.513-7.238-2.409z" fill="#ffbd66"/><path d="m478.79 1.893-94.446 40.415c-6.981 2.987-9.316 11.712-4.76 17.779l22.92 30.514c1.853 2.467 1.471 5.947-.874 7.954l-38.818 33.222c-9.466 8.102-1.399 23.401 10.648 20.194l108.759-28.958c8.176-2.177 11.418-12.022 6.133-18.619l-32.391-40.427c-1.866-2.328-1.679-5.685.432-7.793l35.302-35.248c9.126-9.113-1.043-24.109-12.905-19.033z" fill="#ffe880"/><path d="m455.205 273.563-56.795-15.576-122.127 121.941c-39.918 39.858-104.865 39.851-144.784-.006l-56.812 19.31-15.662 52.908c79.831 79.789 209.791 79.813 289.652.073l122.128-121.941z" fill="#2b9ee0"/><path d="m181.225 41.133-120.875 120.691c-79.598 79.477-80.883 210.801-1.325 290.316.024.024.049.048.074.072l72.4-72.29c-.238-.238-.48-.47-.717-.711-39.468-40.18-38.223-104.979 1.634-144.775l121.204-121.02-15.6-56.709z" fill="#ff6f4a"/><path d="m491.695 20.925c9.126-9.112-1.043-24.108-12.905-19.032l-10.455 4.474c1.263 3.802.646 8.244-2.91 11.796l-35.302 35.249c-2.112 2.108-2.298 5.465-.432 7.793l39.217 48.652c4.754 5.933 2.595 14.475-3.832 17.721l17.144-4.565c8.176-2.177 11.418-12.022 6.133-18.619l-32.391-40.427c-1.866-2.329-1.679-5.685.432-7.793z" fill="#ffd261"/><path d="m116.185 216.747c-39.857 39.796-41.103 104.594-1.634 144.774 2.021 2.057 4.111 4.006 6.257 5.855-28.926-40.206-24.535-96.852 11.608-132.94l121.204-121.02-7.315-26.592z" fill="#ff513d"/><path d="m463.49 303.68-143.652 143.432c-45.377 45.308-106.927 64.851-166.266 58.655 67.626 17.002 142.311-.841 195.105-53.555l122.128-121.941z" fill="#248dd1"/><path d="m253.62 113.417 36.198-36.142c6.664-6.654 6.664-17.441 0-24.095l-48.264-48.19c-6.664-6.654-17.468-6.654-24.132 0l-36.197 36.142z" fill="#e3f9ff"/><path d="m273.415 59.757-36.768 36.713 16.974 16.948 36.198-36.142c6.664-6.654 6.664-17.441 0-24.095l-13.309-13.289c3.318 6.413 2.29 14.488-3.095 19.865z" fill="#cde3ea"/><path d="m470.805 330.272 36.197-36.142c6.664-6.654 6.664-17.441 0-24.095l-48.263-48.19c-6.664-6.654-17.468-6.654-24.132 0l-36.197 36.142z" fill="#e3f9ff"/><path d="m490.599 276.611-36.769 36.712 16.974 16.948 36.197-36.142c6.664-6.654 6.664-17.441 0-24.095l-13.308-13.288c3.32 6.414 2.291 14.488-3.094 19.865z" fill="#cde3ea"/></g></svg>