<?xml version="1.0" encoding="iso-8859-1"?>
<!-- Generator: Adobe Illustrator 19.0.0, SVG Export Plug-In . SVG Version: 6.00 Build 0)  -->
<svg version="1.1" id="Capa_1" xmlns="http://www.w3.org/2000/svg" xmlns:xlink="http://www.w3.org/1999/xlink" x="0px" y="0px"
	 viewBox="0 0 512.002 512.002" style="enable-background:new 0 0 512.002 512.002;" xml:space="preserve">
<path style="fill:#EBAF4B;" d="M256.001,81.27c-22.405,0-40.635-18.23-40.635-40.635S233.597,0,256.001,0
	s40.635,18.23,40.635,40.635S278.406,81.27,256.001,81.27z M256.001,16.254c-13.444,0-24.381,10.937-24.381,24.381
	s10.937,24.381,24.381,24.381c13.444,0,24.381-10.937,24.381-24.381S269.445,16.254,256.001,16.254z"/>
<path style="fill:#E1A546;" d="M256.001,81.27c15.097,0,28.144-8.374,35.15-20.627c-5.861-1.231-11.804-2.227-17.866-2.838
	c-4.419,4.449-10.533,7.212-17.284,7.212c-6.751,0-12.865-2.763-17.284-7.212c-6.063,0.611-12.005,1.608-17.866,2.839
	C227.858,72.896,240.905,81.27,256.001,81.27z"/>
<circle style="fill:#FFC850;" cx="256.001" cy="463.24" r="48.762"/>
<path style="fill:#EBAF4B;" d="M207.971,455.111c-0.445,2.648-0.731,5.352-0.731,8.127c0,2.785,0.275,5.5,0.723,8.157
	c0.017,0.098,0.026,0.199,0.043,0.297c3.788,21.62,21.799,38.322,44.05,40.109c-5.52-6.223-9.492-13.849-11.269-22.286
	c-1.082-5.137,2.689-10.022,7.939-10.022h53.203c1.803-5.091,2.834-10.546,2.834-16.254c0-2.779-0.311-5.478-0.761-8.127h-96.031
	V455.111z"/>
<path style="fill:#FFDC64;" d="M423.632,360.49l-15.375-149.91c-8.008-78.073-73.772-137.437-152.255-137.437l0,0
	c-78.483,0-144.247,59.364-152.255,137.438L88.372,360.49c-1.911,18.635-12.493,35.279-28.556,44.916l0,0
	c-9.378,5.627-15.116,15.761-15.116,26.697l0,0c0,17.195,13.939,31.134,31.134,31.134h360.335c17.195,0,31.134-13.939,31.134-31.134
	l0,0c0-10.936-5.738-21.071-15.116-26.697l0,0C436.124,395.769,425.543,379.125,423.632,360.49z"/>
<path style="fill:#FFC850;" d="M377.035,390.095H219.832c-9.52,0-17.127-8.145-16.185-17.619c0.383-3.859,0.647-7.871,0.777-11.986
	l4.731-149.91c2.463-78.073,22.698-137.437,46.847-137.437c-78.483,0-144.248,59.364-152.255,137.438L88.441,359.814
	c-1.897,18.493-11.576,36.041-27.8,45.115c-11.873,6.641-18.257,20.36-15.166,34.119c3.256,14.492,17.055,24.191,31.908,24.191
	h123.183c-3.484,0-6.534-10.165-8.21-22.018c-1.387-9.808,6.203-18.617,16.109-18.617h169.443c9.871,0,17.688-8.8,16.031-18.984
	C392.637,395.628,385.133,390.095,377.035,390.095z"/>
<g>
</g>
<g>
</g>
<g>
</g>
<g>
</g>
<g>
</g>
<g>
</g>
<g>
</g>
<g>
</g>
<g>
</g>
<g>
</g>
<g>
</g>
<g>
</g>
<g>
</g>
<g>
</g>
<g>
</g>
</svg>
