<svg id="Capa_1" enable-background="new 0 0 437.111 437.111" height="512" viewBox="0 0 437.111 437.111" width="512" xmlns="http://www.w3.org/2000/svg"><g><path d="m291.626 388.604h-146.094l20.908-64.505h104.277z" fill="#62667c"/><path d="m301.882 383.057h-166.586c-6.918 0-12.525 5.608-12.525 12.525v6.603h191.637v-6.603c-.001-6.917-5.609-12.525-12.526-12.525z" fill="#575b6d"/><path d="m437.11 52.435v278.424c.035 9.196-7.393 16.68-16.589 16.714-.012 0-.024 0-.037 0h-403.77c-9.219.012-16.702-7.453-16.714-16.673 0-.014 0-.028 0-.042v-278.423c-.012-9.659 7.81-17.499 17.469-17.51h.042 402.084c9.659-.014 17.501 7.804 17.516 17.464-.001.015-.001.031-.001.046z" fill="#575b6d"/><path d="m18.093 54.007h400.971v233.053h-400.971z" fill="#69b0ee"/><circle cx="218.581" cy="317.314" fill="#828a9e" r="11.099"/><g fill="#eeefee"><path d="m129.458 287.054h-9.653l130.092-233.047h9.653z" opacity=".5"/><path d="m187.213 287.054h-36.837l130.093-233.047h36.837z" opacity=".5"/></g></g></svg>