<svg id="Capa_1" enable-background="new 0 0 512 512" height="512" viewBox="0 0 512 512" width="512" xmlns="http://www.w3.org/2000/svg"><g><g><path d="m435.921 427.833h-344.39c-5.45 0-9.993-4.203-10.415-9.632l-23.746-302.832h11.384l71.412 258.555c1.257 4.533 5.378 7.675 10.075 7.675h293.355l2.74 34.964c.474 6.078-4.327 11.27-10.415 11.27z" fill="#31a7fb"/><path d="m445.996 412.226h-304.45c-14.062 0-26.486-9.467-30.226-23.014l-45.348-164.222-8.602-109.632h11.384l71.412 258.565c1.257 4.533 5.378 7.675 10.075 7.675h293.355z" fill="#1c96f9"/><path d="m62.191 168.866-15.38 234.315-8.025-4.708-29.649-3.75c-6.068-.773-10.188-6.572-8.901-12.558l57.134-266.796z" fill="#1785f8"/><path d="m57.369 115.364 27.982 310.432-46.57-27.319z" fill="#1576f7"/><g><path d="m501.543 391.323h-359.997c-4.708 0-8.829-3.142-10.075-7.664l-56.65-205.109h381.682l55.115 199.536c1.834 6.655-3.173 13.237-10.075 13.237z" fill="#eaf6ff"/><path d="m511.616 378.089-70.444-255.056c-1.251-4.531-5.374-7.669-10.074-7.669h-373.729l74.099 268.29c1.251 4.531 5.374 7.669 10.074 7.669h360.001c6.904 0 11.912-6.577 10.073-13.234z" fill="#eaf6ff"/><path d="m501.543 391.323h-38.292c6.902 0 11.909-6.583 10.075-13.238l-55.114-199.535h38.292l55.115 199.536c1.833 6.655-3.174 13.237-10.076 13.237z" fill="#d9ecfd"/><path d="m457.929 183.704-16.757-60.671c-1.251-4.531-5.374-7.669-10.074-7.669h-373.729l18.875 68.34z" fill="#fc5a95"/><path d="m402.881 123.032 16.757 60.672h38.294l-16.757-60.672c-1.254-4.525-5.372-7.671-10.075-7.671h-38.293c4.702 0 8.82 3.146 10.074 7.671z" fill="#fb3a82"/></g></g><g><path d="m423.522 84.167c-9.35 0-17.746 4.14-23.468 10.678-5.722-6.537-14.118-10.678-23.468-10.678s-17.746 4.14-23.468 10.678c-5.722-6.537-14.118-10.678-23.468-10.678s-17.746 4.14-23.468 10.678c-5.722-6.537-14.118-10.678-23.468-10.678s-17.746 4.14-23.468 10.678c-5.722-6.537-14.118-10.678-23.468-10.678s-17.746 4.14-23.468 10.678c-5.722-6.537-14.118-10.678-23.468-10.678s-17.746 4.14-23.468 10.678c-5.722-6.537-14.118-10.678-23.468-10.678s-17.746 4.14-23.468 10.678c-5.722-6.537-14.118-10.678-23.468-10.678-17.201 0-31.194 13.994-31.194 31.194 0 4.268 3.459 7.726 7.726 7.726s7.726-3.459 7.726-7.726c0-8.68 7.061-15.741 15.741-15.741s15.741 7.061 15.741 15.741-7.061 15.741-15.741 15.741c-4.267 0-7.726 3.459-7.726 7.726 0 4.268 3.459 7.726 7.726 7.726 17.201 0 31.194-13.994 31.194-31.194 0-8.68 7.061-15.741 15.741-15.741s15.741 7.061 15.741 15.741-7.061 15.741-15.741 15.741c-4.267 0-7.726 3.459-7.726 7.726 0 4.268 3.459 7.726 7.726 7.726 17.201 0 31.194-13.994 31.194-31.194 0-8.68 7.061-15.741 15.741-15.741s15.741 7.061 15.741 15.741-7.061 15.741-15.741 15.741c-4.267 0-7.726 3.459-7.726 7.726 0 4.268 3.459 7.726 7.726 7.726 17.201 0 31.194-13.994 31.194-31.194 0-8.68 7.061-15.741 15.741-15.741s15.741 7.061 15.741 15.741-7.061 15.741-15.741 15.741c-4.267 0-7.726 3.459-7.726 7.726 0 4.268 3.459 7.726 7.726 7.726 17.201 0 31.194-13.994 31.194-31.194 0-8.68 7.061-15.741 15.741-15.741s15.741 7.061 15.741 15.741-7.061 15.741-15.741 15.741c-4.267 0-7.726 3.459-7.726 7.726 0 4.268 3.459 7.726 7.726 7.726 17.201 0 31.194-13.994 31.194-31.194 0-8.68 7.061-15.741 15.741-15.741s15.741 7.061 15.741 15.741-7.061 15.741-15.741 15.741c-4.267 0-7.726 3.459-7.726 7.726 0 4.268 3.459 7.726 7.726 7.726 17.201 0 31.194-13.994 31.194-31.194 0-8.68 7.061-15.741 15.741-15.741s15.741 7.061 15.741 15.741-7.061 15.741-15.741 15.741c-4.267 0-7.726 3.459-7.726 7.726 0 4.268 3.459 7.726 7.726 7.726 17.201 0 31.194-13.994 31.194-31.194 0-8.68 7.061-15.741 15.741-15.741s15.741 7.061 15.741 15.741-7.061 15.741-15.741 15.741c-4.267 0-7.726 3.459-7.726 7.726 0 4.268 3.459 7.726 7.726 7.726 17.201 0 31.194-13.994 31.194-31.194s-13.985-31.186-31.186-31.186z" fill="#d9ecfd"/></g><g><path d="m82.403 115.369c-.804 5.306-5.378 9.364-10.899 9.364-5.522 0-10.096-4.059-10.899-9.364z" fill="#fc5a95"/></g><g><path d="m197.295 268.934-13.305-41.482c-1.387-4.325-5.41-7.259-9.952-7.259h-30.629c-7.084 0-12.115 6.898-9.952 13.643l13.306 41.482c1.387 4.325 5.41 7.259 9.952 7.259h30.629c7.083.001 12.115-6.897 9.951-13.643z" fill="#31a7fb"/></g><g><g><g><path d="m237.5 231.055h-14.263c-4.267 0-7.726-3.459-7.726-7.726 0-4.268 3.459-7.726 7.726-7.726h14.263c4.267 0 7.726 3.459 7.726 7.726.001 4.267-3.459 7.726-7.726 7.726z" fill="#fc5a95"/></g><g><path d="m285.733 231.055h-14.263c-4.267 0-7.726-3.459-7.726-7.726 0-4.268 3.459-7.726 7.726-7.726h14.263c4.267 0 7.726 3.459 7.726 7.726s-3.459 7.726-7.726 7.726z" fill="#31a7fb"/></g><g><path d="m333.965 231.055h-14.263c-4.267 0-7.726-3.459-7.726-7.726 0-4.268 3.459-7.726 7.726-7.726h14.263c4.267 0 7.726 3.459 7.726 7.726s-3.459 7.726-7.726 7.726z" fill="#31a7fb"/></g><g><path d="m382.197 231.055h-14.263c-4.267 0-7.726-3.459-7.726-7.726 0-4.268 3.459-7.726 7.726-7.726h14.263c4.267 0 7.726 3.459 7.726 7.726.001 4.267-3.459 7.726-7.726 7.726z" fill="#31a7fb"/></g><g><path d="m430.429 231.055h-14.263c-4.267 0-7.726-3.459-7.726-7.726 0-4.268 3.459-7.726 7.726-7.726h14.263c4.267 0 7.726 3.459 7.726 7.726s-3.459 7.726-7.726 7.726z" fill="#31a7fb"/></g></g><g><g><path d="m247.768 273.177h-14.263c-4.267 0-7.726-3.459-7.726-7.726s3.459-7.726 7.726-7.726h14.263c4.267 0 7.726 3.459 7.726 7.726s-3.459 7.726-7.726 7.726z" fill="#fc5a95"/></g><g><path d="m295.999 273.177h-14.263c-4.267 0-7.726-3.459-7.726-7.726s3.459-7.726 7.726-7.726h14.263c4.267 0 7.726 3.459 7.726 7.726s-3.458 7.726-7.726 7.726z" fill="#31a7fb"/></g><g><path d="m344.231 273.177h-14.263c-4.267 0-7.726-3.459-7.726-7.726s3.459-7.726 7.726-7.726h14.263c4.267 0 7.726 3.459 7.726 7.726s-3.459 7.726-7.726 7.726z" fill="#31a7fb"/></g><g><path d="m392.464 273.177h-14.263c-4.267 0-7.726-3.459-7.726-7.726s3.459-7.726 7.726-7.726h14.263c4.267 0 7.726 3.459 7.726 7.726s-3.459 7.726-7.726 7.726z" fill="#31a7fb"/></g><g><path d="m440.696 273.177h-14.263c-4.267 0-7.726-3.459-7.726-7.726s3.459-7.726 7.726-7.726h14.263c4.267 0 7.726 3.459 7.726 7.726s-3.459 7.726-7.726 7.726z" fill="#31a7fb"/></g></g><g><g><path d="m258.034 315.3h-14.263c-4.267 0-7.726-3.459-7.726-7.726s3.459-7.726 7.726-7.726h14.263c4.267 0 7.726 3.459 7.726 7.726s-3.459 7.726-7.726 7.726z" fill="#fc5a95"/></g><g><path d="m306.266 315.3h-14.263c-4.267 0-7.726-3.459-7.726-7.726s3.459-7.726 7.726-7.726h14.263c4.267 0 7.726 3.459 7.726 7.726s-3.459 7.726-7.726 7.726z" fill="#31a7fb"/></g><g><path d="m354.498 315.3h-14.263c-4.267 0-7.726-3.459-7.726-7.726s3.459-7.726 7.726-7.726h14.263c4.267 0 7.726 3.459 7.726 7.726s-3.458 7.726-7.726 7.726z" fill="#31a7fb"/></g><g><path d="m402.73 315.3h-14.263c-4.267 0-7.726-3.459-7.726-7.726s3.459-7.726 7.726-7.726h14.263c4.267 0 7.726 3.459 7.726 7.726s-3.458 7.726-7.726 7.726z" fill="#31a7fb"/></g><g><path d="m450.962 315.3h-14.262c-4.267 0-7.726-3.459-7.726-7.726s3.459-7.726 7.726-7.726h14.263c4.267 0 7.726 3.459 7.726 7.726s-3.46 7.726-7.727 7.726z" fill="#31a7fb"/></g></g><g><g><path d="m265.165 357.422h-14.263c-4.267 0-7.726-3.459-7.726-7.726s3.459-7.726 7.726-7.726h14.263c4.267 0 7.726 3.459 7.726 7.726s-3.459 7.726-7.726 7.726z" fill="#fc5a95"/></g><g><path d="m313.397 357.422h-14.263c-4.267 0-7.726-3.459-7.726-7.726s3.459-7.726 7.726-7.726h14.263c4.267 0 7.726 3.459 7.726 7.726s-3.459 7.726-7.726 7.726z" fill="#31a7fb"/></g><g><path d="m361.63 357.422h-14.263c-4.267 0-7.726-3.459-7.726-7.726s3.459-7.726 7.726-7.726h14.263c4.267 0 7.726 3.459 7.726 7.726s-3.459 7.726-7.726 7.726z" fill="#31a7fb"/></g><g><path d="m409.862 357.422h-14.263c-4.267 0-7.726-3.459-7.726-7.726s3.459-7.726 7.726-7.726h14.263c4.267 0 7.726 3.459 7.726 7.726s-3.459 7.726-7.726 7.726z" fill="#31a7fb"/></g><g><path d="m458.094 357.422h-14.263c-4.267 0-7.726-3.459-7.726-7.726s3.459-7.726 7.726-7.726h14.263c4.267 0 7.726 3.459 7.726 7.726s-3.459 7.726-7.726 7.726z" fill="#31a7fb"/></g></g></g><g><path d="m178.184 358.09c-3.388 0-6.497-2.246-7.443-5.671l-9.532-34.511c-1.136-4.114 1.278-8.369 5.391-9.505 4.111-1.136 8.368 1.277 9.505 5.39l9.532 34.511c1.136 4.114-1.278 8.369-5.391 9.505-.688.19-1.38.281-2.062.281z" fill="#31a7fb"/></g><g><path d="m204.476 358.09c-3.388 0-6.497-2.246-7.443-5.671l-4.766-17.256c-1.136-4.114 1.278-8.369 5.391-9.505 4.11-1.14 8.368 1.278 9.505 5.39l4.766 17.256c1.136 4.114-1.278 8.369-5.391 9.505-.689.19-1.381.281-2.062.281z" fill="#31a7fb"/></g></g></svg>